<svg width="18" height="18" viewBox="0 0 18 18" fill="none" xmlns="http://www.w3.org/2000/svg">
<path d="M9.5625 2.25C8.11623 2.25 6.70243 2.67887 5.4999 3.48238C4.29736 4.28589 3.3601 5.42794 2.80663 6.76413C2.25317 8.10031 2.10836 9.57061 2.39051 10.9891C2.67267 12.4076 3.36911 13.7105 4.39178 14.7332C5.41446 15.7559 6.71742 16.4523 8.13591 16.7345C9.55439 17.0166 11.0247 16.8718 12.3609 16.3184C13.6971 15.7649 14.8391 14.8276 15.6426 13.6251C16.4461 12.4226 16.875 11.0088 16.875 9.5625C16.8713 7.62425 16.0997 5.76644 14.7291 4.39589C13.3586 3.02533 11.5008 2.25372 9.5625 2.25ZM13.043 8.28281L8.92266 12.2203C8.81614 12.3205 8.67515 12.3759 8.52891 12.375C8.45743 12.376 8.38645 12.3629 8.32008 12.3363C8.25371 12.3098 8.19325 12.2704 8.14219 12.2203L6.08203 10.2516C6.02489 10.2017 5.97842 10.1408 5.94541 10.0725C5.91241 10.0043 5.89354 9.93003 5.88996 9.85429C5.88638 9.77854 5.89815 9.70285 5.92456 9.63177C5.95097 9.56068 5.99149 9.49568 6.04367 9.44065C6.09585 9.38563 6.15861 9.34172 6.22819 9.31157C6.29778 9.28142 6.37273 9.26565 6.44856 9.26521C6.5244 9.26477 6.59953 9.27967 6.66946 9.30901C6.73939 9.33835 6.80266 9.38152 6.85547 9.43594L8.52891 11.032L12.2695 7.46719C12.3789 7.37177 12.5209 7.32232 12.6659 7.32917C12.8109 7.33603 12.9476 7.39867 13.0475 7.50399C13.1474 7.60932 13.2027 7.74917 13.2018 7.89431C13.201 8.03946 13.1441 8.17866 13.043 8.28281Z" fill="#AAAAAA"/>
</svg>
