<svg width="150" height="26" viewBox="0 0 150 26" fill="none" xmlns="http://www.w3.org/2000/svg">
<g opacity="0.4">
<path fill-rule="evenodd" clip-rule="evenodd" d="M14.3 2.6C8.55624 2.6 3.9 7.25624 3.9 13C3.9 18.7438 8.55624 23.4 14.3 23.4C16.8954 23.4 19.2688 22.4493 21.0909 20.877L17.7355 17.5216C16.7708 18.2227 15.5837 18.6362 14.3 18.6362C11.0691 18.6362 8.45 16.017 8.45 12.7862C8.45 9.5553 11.0691 6.93616 14.3 6.93616C17.5309 6.93616 20.15 9.5553 20.15 12.7862C20.15 13.7902 19.8971 14.7351 19.4515 15.5607L23.9385 20.0477L23.9349 20.0512L24.7 20.8013C22.3282 23.9581 18.5526 26 14.3 26C7.1203 26 1.3 20.1797 1.3 13C1.3 5.8203 7.1203 0 14.3 0C18.7459 0 22.6706 2.23179 25.0147 5.63616L22.9746 7.26116C21.1126 4.45216 17.9226 2.6 14.3 2.6ZM17.55 12.7862C17.55 14.5811 16.0949 16.0362 14.3 16.0362C12.5051 16.0362 11.05 14.5811 11.05 12.7862C11.05 10.9912 12.5051 9.53616 14.3 9.53616C16.0949 9.53616 17.55 10.9912 17.55 12.7862Z" fill="#222222"/>
<path d="M146.528 12.536H149.453V19.1697C148.597 19.8513 147.598 20.3744 146.457 20.7389C145.316 21.1035 144.143 21.2858 142.938 21.2858C141.242 21.2858 139.712 20.9212 138.349 20.1921C136.986 19.4471 135.916 18.4247 135.139 17.1249C134.362 15.8251 133.974 14.3589 133.974 12.7262C133.974 11.0936 134.362 9.62735 135.139 8.32756C135.916 7.02777 136.986 6.0133 138.349 5.28416C139.728 4.53916 141.274 4.16666 142.985 4.16666C144.38 4.16666 145.648 4.3965 146.79 4.85618C147.931 5.31586 148.89 5.98953 149.667 6.87719L147.717 8.77931C146.449 7.51123 144.919 6.87719 143.128 6.87719C141.955 6.87719 140.909 7.12288 139.99 7.61426C139.086 8.10564 138.373 8.79516 137.85 9.68282C137.342 10.5705 137.089 11.5849 137.089 12.7262C137.089 13.8358 137.342 14.8344 137.85 15.7221C138.373 16.6097 139.086 17.3072 139.99 17.8144C140.909 18.3216 141.947 18.5753 143.104 18.5753C144.404 18.5753 145.545 18.2899 146.528 17.7193V12.536Z" fill="#222222"/>
<path d="M130.703 4.40442V21.048H128.159L118.981 9.77793V21.048H115.914V4.40442H118.458L127.636 15.6745V4.40442H130.703Z" fill="#222222"/>
<path d="M108.321 4.40442H111.412V21.048H108.321V4.40442Z" fill="#222222"/>
<path d="M103.862 4.40442V21.048H100.771V13.9151H92.1636V21.048H89.0726V4.40442H92.1636V11.2759H100.771V4.40442H103.862Z" fill="#222222"/>
<path d="M79.5011 21.2858C77.8208 21.2858 76.2991 20.9212 74.9359 20.1921C73.5886 19.4471 72.5266 18.4247 71.7499 17.1249C70.989 15.8251 70.6086 14.3589 70.6086 12.7262C70.6086 11.0936 70.997 9.62735 71.7737 8.32756C72.5504 7.02777 73.6124 6.0133 74.9597 5.28416C76.3229 4.53916 77.8446 4.16666 79.5248 4.16666C80.888 4.16666 82.1323 4.40442 83.2578 4.87995C84.3832 5.35549 85.3342 6.04501 86.1109 6.94852L84.1137 8.82687C82.909 7.52708 81.427 6.87719 79.6675 6.87719C78.5262 6.87719 77.5038 7.1308 76.6003 7.63804C75.6968 8.12942 74.9914 8.81894 74.4842 9.7066C73.977 10.5943 73.7233 11.6008 73.7233 12.7262C73.7233 13.8517 73.977 14.8582 74.4842 15.7459C74.9914 16.6335 75.6968 17.331 76.6003 17.8382C77.5038 18.3296 78.5262 18.5753 79.6675 18.5753C81.427 18.5753 82.909 17.9174 84.1137 16.6018L86.1109 18.5039C85.3342 19.4074 84.3753 20.097 83.234 20.5725C82.1086 21.048 80.8642 21.2858 79.5011 21.2858Z" fill="#222222"/>
<path d="M59.5573 21.2858C57.8613 21.2858 56.3316 20.9212 54.9684 20.1921C53.6053 19.4471 52.5353 18.4247 51.7586 17.1249C50.9819 15.8093 50.5936 14.343 50.5936 12.7262C50.5936 11.1094 50.9819 9.65112 51.7586 8.35134C52.5353 7.0357 53.6053 6.0133 54.9684 5.28416C56.3316 4.53916 57.8613 4.16666 59.5573 4.16666C61.2534 4.16666 62.783 4.53916 64.1462 5.28416C65.5094 6.0133 66.5793 7.02777 67.356 8.32756C68.1327 9.62735 68.5211 11.0936 68.5211 12.7262C68.5211 14.3589 68.1327 15.8251 67.356 17.1249C66.5793 18.4247 65.5094 19.4471 64.1462 20.1921C62.783 20.9212 61.2534 21.2858 59.5573 21.2858ZM59.5573 18.5753C60.6669 18.5753 61.6655 18.3296 62.5532 17.8382C63.4408 17.331 64.1383 16.6335 64.6455 15.7459C65.1527 14.8423 65.4064 13.8358 65.4064 12.7262C65.4064 11.6167 65.1527 10.618 64.6455 9.73038C64.1383 8.82687 63.4408 8.12942 62.5532 7.63804C61.6655 7.1308 60.6669 6.87719 59.5573 6.87719C58.4477 6.87719 57.4491 7.1308 56.5615 7.63804C55.6738 8.12942 54.9764 8.82687 54.4691 9.73038C53.9619 10.618 53.7083 11.6167 53.7083 12.7262C53.7083 13.8358 53.9619 14.8423 54.4691 15.7459C54.9764 16.6335 55.6738 17.331 56.5615 17.8382C57.4491 18.3296 58.4477 18.5753 59.5573 18.5753Z" fill="#222222"/>
<path d="M42.5591 21.2858C40.8789 21.2858 39.3572 20.9212 37.994 20.1921C36.6467 19.4471 35.5846 18.4247 34.8079 17.1249C34.0471 15.8251 33.6667 14.3589 33.6667 12.7262C33.6667 11.0936 34.055 9.62735 34.8317 8.32756C35.6084 7.02777 36.6704 6.0133 38.0178 5.28416C39.381 4.53916 40.9027 4.16666 42.5829 4.16666C43.9461 4.16666 45.1904 4.40442 46.3158 4.87995C47.4412 5.35549 48.3923 6.04501 49.169 6.94852L47.1718 8.82687C45.9671 7.52708 44.485 6.87719 42.7256 6.87719C41.5843 6.87719 40.5619 7.1308 39.6584 7.63804C38.7549 8.12942 38.0495 8.81894 37.5423 9.7066C37.035 10.5943 36.7814 11.6008 36.7814 12.7262C36.7814 13.8517 37.035 14.8582 37.5423 15.7459C38.0495 16.6335 38.7549 17.331 39.6584 17.8382C40.5619 18.3296 41.5843 18.5753 42.7256 18.5753C44.485 18.5753 45.9671 17.9174 47.1718 16.6018L49.169 18.5039C48.3923 19.4074 47.4333 20.097 46.292 20.5725C45.1666 21.048 43.9223 21.2858 42.5591 21.2858Z" fill="#222222"/>
</g>
</svg>
