<?xml version="1.0" encoding="UTF-8"?>
<svg width="80px" height="43px" viewBox="0 0 80 43" version="1.1" xmlns="http://www.w3.org/2000/svg" xmlns:xlink="http://www.w3.org/1999/xlink">
    <title>한국씨티은행_logo</title>
    <defs>
        <polygon id="path-1" points="0 25.3907833 39.2161905 25.3907833 39.2161905 0 0 0"></polygon>
    </defs>
    <g id="Erns_html-(220816-개선)" stroke="none" stroke-width="1" fill="none" fill-rule="evenodd">
        <g id="은행-로고_이미지" transform="translate(-22.000000, -575.000000)">
            <g id="Group-16" transform="translate(22.000000, 575.000000)">
                <g id="Group-9" transform="translate(20.714286, 8.838889)">
                    <polygon id="Fill-1" fill="#003B70" points="15.6097619 25.0489333 18.8416667 25.0489333 18.8416667 9.38833333 15.6097619 9.38833333"></polygon>
                    <g id="Group-8">
                        <path d="M21.7342143,9.38862 L21.7342143,12.3331644 L24.4570714,12.3331644 L24.4570714,21.1653644 C24.4570714,22.3612422 24.7968333,23.3863144 25.4351667,24.1538644 C26.0725476,24.8798478 26.965881,25.2630256 27.9868333,25.3062644 C29.1354048,25.3483089 30.1135,25.04922 30.8365952,24.5807589 L30.8801667,24.5807589 L30.9223095,24.5382367 L31.6023095,21.7644978 L31.6442143,21.5509311 L31.4754048,21.6352589 C30.5815952,22.1904367 29.8589762,22.4458089 29.0927857,22.4458089 C28.1137381,22.4458089 27.6046905,21.8918256 27.6046905,20.6964256 L27.6046905,12.3331644 L30.8801667,12.3331644 L30.8801667,9.38862 L27.6046905,9.38862 L27.6046905,4.48040889 L24.4989762,6.18822556 L24.4570714,6.18822556 L24.4570714,9.38862 L21.7342143,9.38862 Z" id="Fill-2" fill="#003B70"></path>
                        <mask id="mask-2" fill="white">
                            <use xlink:href="#path-1"></use>
                        </mask>
                        <g id="Clip-5"></g>
                        <polygon id="Fill-4" fill="#003B70" mask="url(#mask-2)" points="33.9845238 25.0489333 37.26 25.0489333 37.26 9.38833333 33.9845238 9.38833333"></polygon>
                        <path d="M8.20940476,9.08988944 C5.9122619,9.08988944 3.99845238,9.81443944 2.46702381,11.2234061 C0.808690476,12.7164617 0.000119047619,14.7224117 0.000119047619,17.2410172 C0.000119047619,19.7154283 0.808690476,21.7646172 2.46702381,23.257195 C3.99845238,24.6661617 5.9122619,25.3907117 8.20940476,25.3907117 C10.3784524,25.3907117 12.249881,24.4948783 13.7384524,22.7027339 L13.7808333,22.6599728 L13.7384524,22.616495 L12.0375,20.5257394 L11.9522619,20.4414117 L11.909881,20.5257394 C10.8044048,21.7211394 9.5277381,22.3202728 8.08154762,22.3202728 C6.67702381,22.3202728 5.52940476,21.848945 4.59369048,20.8678283 C3.70083333,19.9285172 3.2327381,18.7345506 3.2327381,17.2410172 C3.2327381,15.7474839 3.70083333,14.5516061 4.59369048,13.6134894 C5.52940476,12.631895 6.67702381,12.1624783 8.08154762,12.1624783 C9.5277381,12.1624783 10.8044048,12.7592228 11.909881,13.9548617 L11.9522619,14.0403839 L12.0375,13.9548617 L13.7384524,11.8633894 L13.7808333,11.8206283 L13.7384524,11.778345 C12.249881,9.98548389 10.3784524,9.08988944 8.20940476,9.08988944" id="Fill-6" fill="#003B70" mask="url(#mask-2)"></path>
                        <path d="M17.2262143,6.78544778 C19.7362143,4.13903667 22.7976429,2.81630889 26.3709762,2.81630889 C29.9445476,2.81630889 33.0069286,4.13903667 35.4735952,6.78544778 L35.5574048,6.82725333 L39.2162143,6.82725333 L39.0888333,6.61440333 C37.6424048,4.56593111 35.7707381,2.94411444 33.4740714,1.74943111 C31.2202619,0.554508889 28.8812143,4.77777778e-05 26.3709762,4.77777778e-05 C23.9035952,4.77777778e-05 21.5219286,0.554508889 19.2671667,1.74943111 C17.0133571,2.94411444 15.0997857,4.56593111 13.6526429,6.61440333 L13.5255,6.82725333 L17.1838333,6.82725333 L17.2262143,6.78544778 Z" id="Fill-7" fill="#D9261C" mask="url(#mask-2)"></path>
                    </g>
                </g>
            </g>
        </g>
    </g>
</svg>