<?xml version="1.0" encoding="utf-8"?>
<!-- Generator: Adobe Illustrator 23.0.2, SVG Export Plug-In . SVG Version: 6.00 Build 0)  -->
<svg version="1.1" id="Layer_1" xmlns="http://www.w3.org/2000/svg" xmlns:xlink="http://www.w3.org/1999/xlink" x="0px" y="0px"
	 viewBox="0 0 80 43" style="enable-background:new 0 0 80 43;" xml:space="preserve">
<style type="text/css">
	.st0{fill-rule:evenodd;clip-rule:evenodd;fill:#FFCB00;}
</style>
<title>D1AAAF0000_S</title>
<g>
	<g id="카드사로고_이미지" transform="translate(-40.000000, -282.000000)">
		<g transform="translate(40.000000, 282.000000)">
			<path id="Fill-1" class="st0" d="M54.7,21.9c0,0-0.3-0.2-0.3-0.2c-0.9-0.9-2.1-1.2-3.7-1.1c-1.3,0.1-2.4,0.6-3.2,1.1c0,0,0,0,0,0
				c0-0.4,0-0.9,0.1-1.3c0-0.4,0.1-0.9,0.1-1.3c0-0.4-0.1-0.9-0.2-1.2c0-0.1-0.1-0.1-0.2-0.1c-0.4,0-1.3,0.3-1.5,0.5l-0.1,0.2
				c0,0.5-0.1,1.8-0.2,2c0,0-0.1,0.2-0.1,0.2c-0.2,1.9-0.2,3.6,0,5c0,0.1,0.3,0.4,0.5,0.4c0.2,0.1,1-0.1,1.4-0.3c0,0,0.2,0,0.2,0
				c0.1,0,0.2-0.1,0.2-0.3c0,0,0-0.4,0-0.4c0.3-1.2,1.5-2.7,3-2.9c0.8-0.1,1.5,0.1,2,0.6c0.1,0.1,0.2,1-0.3,2
				c-0.4,0.8-1.2,1.4-2.3,1.8c-1,0.4-2.1,0.5-3.5,0.5c-0.1,0-1.3-0.9-1.3-0.9c-1.1-0.8-2.4-1.7-3.7-2.2c-0.2-0.1-0.6-0.4-0.8-0.6
				l-0.1-0.1c-0.7-0.6-2-1.5-3.1-2.2c0,0-0.5-0.3-0.6-0.4c0,0,0-0.1,0-0.1c0,0,0.7-0.4,0.7-0.4c0.9-0.6,1.4-0.8,1.5-1
				c0,0,0.1-0.1,0.1-0.1c0,0,2.4-1.3,2.4-1.3c2.3-1.2,4.8-2.6,6.2-4c0,0,0.1-0.2,0.1-0.2l0-0.2c0.1-0.3,0.1-0.5,0-0.8
				c0-0.1-0.1-0.2-0.2-0.2c-1-0.1-2.4,0.5-3.6,1.7c-0.3,0.3-0.5,0.4-0.8,0.5l-0.2,0.1c-1.4,0.8-4.4,2.7-6,3.7
				c0.1-1.7,0.4-4.2,0.8-6.2l0-0.2c0,0-0.2-0.3-0.2-0.3l-0.1-0.2l0,0c-0.3-0.2-0.6-0.1-0.8,0c0,0-0.3,0.1-0.3,0.1l-0.4,0.2
				c-0.1,0-0.1,0.1-0.2,0.2c-0.8,1.8-1.4,4.9-1.6,7.3c-1.5-1-2.9-1.7-3.6-2l0,0l-0.1,0c-0.2,0-0.6-0.2-0.8-0.4c0,0-0.6-0.4-0.6-0.4
				l-0.9-0.6c0,0-0.2-0.1-0.2-0.1c-0.4,0.1-1.1,0.6-1.3,0.9c0,0,0,0.1,0,0.1c0,0.1,0,0.1,0,0.2l0,0.2l0,0.1c0.4,0.4,1.5,1.2,2.6,1.7
				l1.2,0.6l1.9,1c0,0,0.3,0.3,0.3,0.3c0,0,0.2,0.1,0.2,0.1s0,0,0,0c-0.5,0.3-3.4,2.3-3.4,2.3l-1.8,1.2c-0.2,0.1-0.9,0.4-1,0.5
				c-0.4,0.2-0.7,0.4-0.8,0.7l0,0.1l0,0.1l0.1,0.1c0,0,0.2,0.1,0.2,0.1l0.2,0.1c0,0,0.2,0,0.2,0c0.3,0,0.8-0.2,1.6-0.5
				c0.8-0.4,3-1.7,3.9-2.2l0.4-0.2c0.2,0,0.3-0.1,0.5-0.2c0.2-0.1,0.6-0.4,0.8-0.5c0,0,0.1-0.1,0.3-0.2c0,0,0,0.1,0,0.1
				c0,2.8,0.2,4.9,0.5,6.5l0,0l0,0.1c0.2,0.2,0.3,0.9,0.5,1.5l0.4,1.2c0,0,0.1,0.1,0.1,0.1C36,31.8,36.6,32,37,32l0.1,0l0.1-0.1
				c0-0.2,0-0.3,0-0.5c0-0.2,0-0.5,0-0.7l0-0.4c-0.1-2-0.3-4.8-0.3-6.7c0-0.1,0-0.1,0-0.2c0.3,0.2,1.8,1.1,1.8,1.1
				c2.5,1.6,6.3,4.1,8.6,4.7c0.1,0,0.2,0,0.3-0.1c0,0,0.4-0.2,0.4-0.2l0.1,0c0.1-0.1,0.2-0.3,0.2-0.5c1.9-0.1,4.6-0.8,6.1-2.6
				c0.6-0.7,0.8-1.6,0.8-2.3C55.2,22.7,55,22.2,54.7,21.9"/>
		</g>
	</g>
</g>
</svg>
