<?xml version="1.0" encoding="UTF-8"?>
<svg width="80px" height="43px" viewBox="0 0 80 43" version="1.1" xmlns="http://www.w3.org/2000/svg" xmlns:xlink="http://www.w3.org/1999/xlink">
    <title>광주은행_logo</title>
    <g id="Erns_html-(220816-개선)" stroke="none" stroke-width="1" fill="none" fill-rule="evenodd">
        <g id="은행-로고_이미지" transform="translate(-272.000000, -483.000000)">
            <g id="Group-15" transform="translate(272.000000, 483.000000)">
                <g id="Group-19" transform="translate(24.285714, 5.733207)">
                    <polygon id="Fill-1" fill="#0090D0" points="0 31.190545 31.0845333 31.190545 31.0845333 0.000294311111 0 0.000294311111"></polygon>
                    <polygon id="Fill-2" fill="#0090D0" points="0 0 7.76704762 7.80134667 15.5420571 0"></polygon>
                    <polygon id="Fill-3" fill="#3597D3" points="0 0 0 15.593864 7.76704762 7.80134667"></polygon>
                    <polygon id="Fill-4" fill="#0090D0" points="0 15.593864 15.5420571 15.593864 7.77333333 7.79504"></polygon>
                    <polygon id="Fill-5" fill="#0081C8" points="15.5420571 0 7.77333333 7.79504 15.5420571 15.593864"></polygon>
                    <polygon id="Fill-6" fill="#0071BA" points="15.5420571 0 15.5420571 15.593864 24.0889524 7.02268356"></polygon>
                    <polygon id="Fill-7" fill="#004C97" points="15.5420571 15.593864 31.0845333 15.593864 23.3174857 7.79504"></polygon>
                    <polygon id="Fill-8" fill="#0081C8" points="0 15.593864 7.76704762 23.3977333 15.5420571 15.593864"></polygon>
                    <polygon id="Fill-9" fill="#0071BA" points="0 31.1926472 7.76704762 23.3976072 0 15.5937379"></polygon>
                    <polygon id="Fill-10" fill="#0066B2" points="0 31.1903768 15.5420571 31.1903768 7.77333333 23.3886097"></polygon>
                    <polygon id="Fill-11" fill="#00529B" points="7.77329143 23.3885256 15.5420152 31.1902927 15.5420152 15.593906"></polygon>
                    <polygon id="Fill-12" fill="#1B3280" points="15.5420571 15.593864 23.310781 23.3977333 31.0845333 15.593864"></polygon>
                    <polygon id="Fill-13" fill="#004C97" points="15.5420571 31.1926472 23.310781 23.3976072 15.5420571 15.5937379"></polygon>
                    <polygon id="Fill-14" fill="#1B3280" points="15.5420571 31.1903768 31.0845333 31.1903768 23.3174857 23.3886097"></polygon>
                    <polygon id="Fill-15" fill="#1B3280" points="23.3176114 23.3885256 31.084659 31.1902927 31.084659 15.593906"></polygon>
                    <polygon id="Fill-16" fill="#0066B2" points="15.5420571 0 23.310781 7.80134667 31.0845333 0"></polygon>
                    <polygon id="Fill-17" fill="#00529B" points="31.0844914 0 23.3174438 7.79504 31.0844914 15.593864"></polygon>
                    <polygon id="Fill-18" fill="#FFFFFF" points="6.02862857 25.1798712 11.5386857 30.7066134 21.132781 21.227273 31.0843238 31.1556481 31.0843238 19.4963032 21.132781 9.98627031"></polygon>
                </g>
            </g>
        </g>
    </g>
</svg>