<svg width="18" height="18" viewBox="0 0 18 18" fill="none" xmlns="http://www.w3.org/2000/svg">
<g clip-path="url(#clip0_539_6157)">
<path d="M9 6.1875C9 5.59076 9.23705 5.01847 9.65901 4.59651C10.081 4.17455 10.6533 3.9375 11.25 3.9375H16.3125V14.0625H11.25C10.6533 14.0625 10.081 14.2996 9.65901 14.7215C9.23705 15.1435 9 15.7158 9 16.3125" stroke="#3D44EA" stroke-width="1.5" stroke-linecap="round" stroke-linejoin="round"/>
<path d="M1.6875 14.0625H6.75C7.34674 14.0625 7.91903 14.2996 8.34099 14.7215C8.76295 15.1435 9 15.7158 9 16.3125V6.1875C9 5.59076 8.76295 5.01847 8.34099 4.59651C7.91903 4.17455 7.34674 3.9375 6.75 3.9375H1.6875V14.0625Z" stroke="#3D44EA" stroke-width="1.5" stroke-linecap="round" stroke-linejoin="round"/>
</g>
<defs>
<clipPath id="clip0_539_6157">
<rect width="18" height="18" fill="white"/>
</clipPath>
</defs>
</svg>
