<svg width="18" height="18" viewBox="0 0 18 18" fill="none" xmlns="http://www.w3.org/2000/svg">
<g clip-path="url(#clip0_479_11321)">
<path d="M9 11.8125C10.5533 11.8125 11.8125 10.5533 11.8125 9C11.8125 7.4467 10.5533 6.1875 9 6.1875C7.4467 6.1875 6.1875 7.4467 6.1875 9C6.1875 10.5533 7.4467 11.8125 9 11.8125Z" stroke="#222222" stroke-width="1.5" stroke-linecap="round" stroke-linejoin="round"/>
<path d="M2.913 12.5219C2.6022 11.9866 2.36409 11.4123 2.20496 10.814L3.3848 9.33749C3.37144 9.11175 3.37144 8.88541 3.3848 8.65967L2.20566 7.18311C2.36452 6.58481 2.60215 6.01025 2.9123 5.47452L4.79035 5.26358C4.94032 5.09462 5.10021 4.93472 5.26917 4.78475L5.48011 2.90741C6.01508 2.59873 6.58869 2.36252 7.18589 2.20499L8.66246 3.38483C8.8882 3.37147 9.11453 3.37147 9.34027 3.38483L10.8168 2.20569C11.4151 2.36455 11.9897 2.60218 12.5254 2.91233L12.7364 4.79038C12.9053 4.94035 13.0652 5.10024 13.2152 5.26921L15.0925 5.48014C15.4033 6.01548 15.6414 6.58982 15.8006 7.18803L14.6207 8.6646C14.6341 8.89034 14.6341 9.11667 14.6207 9.34241L15.7999 10.819C15.6421 11.4171 15.4057 11.9916 15.0968 12.5276L13.2187 12.7385C13.0687 12.9075 12.9088 13.0674 12.7399 13.2173L12.5289 15.0947C11.9936 15.4055 11.4193 15.6436 10.821 15.8027L9.34449 14.6229C9.11875 14.6362 8.89241 14.6362 8.66667 14.6229L7.19011 15.802C6.59198 15.6443 6.01744 15.4078 5.48152 15.0989L5.27058 13.2208C5.10162 13.0709 4.94172 12.911 4.79175 12.742L2.913 12.5219Z" stroke="#222222" stroke-width="1.5" stroke-linecap="round" stroke-linejoin="round"/>
</g>
<defs>
<clipPath id="clip0_479_11321">
<rect width="18" height="18" fill="white"/>
</clipPath>
</defs>
</svg>
