<svg width="32" height="32" viewBox="0 0 32 32" fill="none" xmlns="http://www.w3.org/2000/svg">
<path opacity="0.3" d="M18 23C24.0751 23 29 18.0751 29 12C29 5.92487 24.0751 1 18 1C11.9249 1 7 5.92487 7 12C7 18.0751 11.9249 23 18 23Z" fill="#797BA7"/>
<path d="M14.667 3.75C21.2482 3.75018 26.583 9.08571 26.583 15.667C26.5829 18.5072 25.5874 21.1138 23.9287 23.1611L28.8838 28.1162L28.9697 28.2109C29.3702 28.7019 29.3415 29.4261 28.8838 29.8838C28.4261 30.3414 27.7019 30.3702 27.2109 29.9697L27.1162 29.8838L22.1611 24.9287C20.1138 26.5874 17.5072 27.5829 14.667 27.583C8.08571 27.583 2.75018 22.2482 2.75 15.667C2.75 9.0856 8.0856 3.75 14.667 3.75ZM14.667 6.25C9.46631 6.25 5.25 10.4663 5.25 15.667C5.25018 20.8675 9.46642 25.083 14.667 25.083C17.2155 25.0829 19.5255 24.0684 21.2207 22.4238C21.2502 22.3867 21.282 22.3508 21.3164 22.3164C21.3508 22.2821 21.3867 22.2502 21.4238 22.2207C23.0684 20.5255 24.0829 18.2155 24.083 15.667C24.083 10.4664 19.8675 6.25018 14.667 6.25Z" fill="#797BA7"/>
</svg>
