<svg width="40" height="40" viewBox="0 0 40 40" fill="none" xmlns="http://www.w3.org/2000/svg">
<path d="M36.254 11.6821C33.1796 6.0299 27.2791 2.51797 20.8465 2.51797C20.7164 2.51797 20.5745 2.51797 20.4444 2.51797C10.9138 2.74264 3.23958 10.677 3.33418 20.2195C3.38148 25.1977 5.55721 29.9275 9.30563 33.2148C9.97963 33.806 10.8428 34.1253 11.7297 34.1253C12.1435 34.1253 12.5574 34.0543 12.9476 33.9124C14.3548 33.404 15.5254 32.3989 16.223 31.0627C16.2467 31.0154 16.2703 30.9681 16.294 30.9208L26.002 35.0239L28.6981 38.394C28.8518 38.5832 29.0764 38.6777 29.3011 38.6777C29.4667 38.6777 29.644 38.6186 29.7859 38.5122C30.117 38.2521 30.1761 37.7673 29.9042 37.4362L27.2791 34.1607L28.0359 25.1149C28.0713 25.1031 28.095 25.1031 28.1305 25.0912C29.2065 24.772 29.9278 23.8023 29.9278 22.679V20.3141C29.9278 19.0488 30.7319 17.9018 31.9262 17.4643L34.3857 16.5775C35.3317 16.2346 36.0885 15.4896 36.4432 14.5436C36.7979 13.6095 36.727 12.5571 36.254 11.6821ZM16.7079 26.7585L16.3768 25.5287C16.022 24.1926 16.8143 22.8091 18.1505 22.4425L22.3482 21.2837C22.5138 21.2364 22.6793 21.2127 22.8567 21.2127C23.6489 21.2127 24.3584 21.7094 24.6422 22.4543L25.0442 23.554C25.2926 24.2399 25.8365 24.7601 26.4987 25.0203L25.801 33.2739L16.7906 29.4663C16.968 28.5795 16.9443 27.6572 16.7079 26.7585ZM35.0006 13.9997C34.7996 14.52 34.3857 14.9339 33.8536 15.1231L31.3941 16.0099C29.5967 16.6603 28.3788 18.3867 28.3788 20.3022V22.6672C28.3788 23.1047 28.095 23.4831 27.6811 23.6013C27.5865 23.625 27.4919 23.6486 27.3973 23.6486C26.9953 23.6486 26.6169 23.3885 26.475 23.0101L26.073 21.9104C25.5763 20.5742 24.2756 19.6637 22.8449 19.6637C22.5374 19.6637 22.23 19.711 21.9344 19.782L17.7366 20.9408C15.5963 21.532 14.3193 23.755 14.8869 25.9071L15.218 27.1369C15.8092 29.3481 14.5794 31.6776 12.4273 32.4462C12.2027 32.5289 11.9662 32.5644 11.7179 32.5644C11.1976 32.5644 10.7009 32.3752 10.3107 32.0323C6.90522 29.0643 4.91868 24.7365 4.87138 20.1958C4.78861 11.4929 11.7888 4.2562 20.4799 4.05518C20.61 4.05518 20.7282 4.05518 20.8465 4.05518C26.7115 4.05518 32.0917 7.25966 34.8942 12.4152C35.1661 12.9 35.2016 13.4794 35.0006 13.9997Z" fill="#222222" stroke="#222222" stroke-width="0.5"/>
<path d="M13.0767 15.4741L13.0767 15.4741L13.0765 15.4736C12.9056 14.9894 12.3783 14.7325 11.8934 14.9036C11.4093 15.0745 11.1524 15.6017 11.3234 16.0866C11.3234 16.0866 11.3234 16.0867 11.3235 16.0867L12.3211 18.9718C12.3211 18.9719 12.3212 18.972 12.3212 18.9721C12.4496 19.357 12.8062 19.5994 13.1912 19.5994C13.29 19.5994 13.3909 19.5853 13.4925 19.542C13.9756 19.3706 14.2318 18.8441 14.061 18.3597C14.061 18.3597 14.061 18.3596 14.0609 18.3595L13.0767 15.4741Z" fill="#222222" stroke="#222222" stroke-width="0.1"/>
<path d="M16.1927 14.3965L16.1927 14.3965L16.1925 14.396C16.0216 13.9118 15.4943 13.6549 15.0094 13.8261C14.5253 13.997 14.2684 14.5242 14.4394 15.009C14.4395 15.0091 14.4395 15.0091 14.4395 15.0092L15.4371 17.8943C15.4372 17.8943 15.4372 17.8944 15.4372 17.8945C15.5657 18.2795 15.9223 18.5218 16.3072 18.5218C16.406 18.5218 16.5069 18.5077 16.6086 18.4645C17.0917 18.293 17.3478 17.7665 17.1771 17.2822C17.177 17.2821 17.177 17.282 17.177 17.2819L16.1927 14.3965Z" fill="#222222" stroke="#222222" stroke-width="0.1"/>
<path d="M19.3077 13.3305L19.3077 13.3305L19.3075 13.33C19.1366 12.8458 18.6094 12.5889 18.1244 12.7601C17.6403 12.9309 17.3834 13.4581 17.5545 13.943C17.5545 13.9431 17.5545 13.9431 17.5545 13.9432L18.5522 16.8282C18.5522 16.8283 18.5522 16.8284 18.5522 16.8285C18.6807 17.2135 19.0373 17.4558 19.4222 17.4558C19.521 17.4558 19.622 17.4417 19.7236 17.3985C20.2067 17.227 20.4629 16.7005 20.2921 16.2162C20.292 16.2161 20.292 16.216 20.292 16.2159L19.3077 13.3305Z" fill="#222222" stroke="#222222" stroke-width="0.1"/>
</svg>
