<?xml version="1.0" encoding="utf-8"?>
<!-- Generator: Adobe Illustrator 23.0.2, SVG Export Plug-In . SVG Version: 6.00 Build 0)  -->
<svg version="1.1" id="Layer_1" xmlns="http://www.w3.org/2000/svg" xmlns:xlink="http://www.w3.org/1999/xlink" x="0px" y="0px"
	 viewBox="0 0 20 21" style="enable-background:new 0 0 20 21;" xml:space="preserve">
<style type="text/css">
	.st0{fill:#FFFFFF;}
</style>
<path class="st0" d="M15.4,11c0-2.5,2-3.7,2.1-3.8c-1.2-1.7-3-1.9-3.6-1.9c-1.5-0.2-3,0.9-3.8,0.9c-0.8,0-2-0.9-3.3-0.9
	c-1.7,0-3.2,1-4.1,2.5c-1.7,3-0.4,7.5,1.2,9.9c0.8,1.2,1.8,2.5,3.1,2.5c1.2-0.1,1.7-0.8,3.2-0.8c1.5,0,1.9,0.8,3.3,0.8
	c1.3,0,2.2-1.2,3-2.4c1-1.4,1.4-2.7,1.4-2.8C18,14.9,15.4,14,15.4,11z"/>
<path class="st0" d="M12.9,3.7c0.7-0.8,1.1-2,1-3.2c-1,0-2.2,0.7-2.9,1.5c-0.6,0.7-1.2,1.9-1,3C11.1,5.1,12.2,4.5,12.9,3.7z"/>
</svg>
