<svg width="20" height="21" viewBox="0 0 20 21" fill="none" xmlns="http://www.w3.org/2000/svg">
<path d="M15.3879 10.9684C15.3678 8.47688 17.4173 7.27131 17.5178 7.21103C16.3524 5.50312 14.544 5.2821 13.901 5.26201C12.374 5.10126 10.9072 6.16619 10.1436 6.16619C9.36002 6.16619 8.15445 5.2821 6.88859 5.30219C5.22087 5.34238 3.69381 6.28675 2.82981 7.77363C1.08172 10.8077 2.38776 15.2482 4.05548 17.6996C4.89938 18.9051 5.86385 20.2313 7.1498 20.1911C8.39556 20.1308 8.87779 19.3874 10.3848 19.3874C11.8917 19.3874 12.3338 20.1911 13.6398 20.1509C14.9861 20.1308 15.83 18.9453 16.6337 17.7397C17.5981 16.3734 18 15.0071 18 14.9468C18 14.9468 15.408 13.9623 15.3879 10.9684Z" fill="#221E1F"/>
<path d="M12.9164 3.6546C13.5995 2.81069 14.0617 1.66539 13.921 0.5C12.9364 0.540186 11.7309 1.18316 11.0276 2.00697C10.4047 2.73032 9.84213 3.9359 10.0029 5.04101C11.0879 5.12138 12.2131 4.47841 12.9164 3.6546Z" fill="#221E1F"/>
</svg>
