<svg width="60" height="60" viewBox="0 0 60 60" fill="none" xmlns="http://www.w3.org/2000/svg">
<path d="M54.381 17.523C49.7694 9.04474 40.9187 3.77686 31.2698 3.77686C31.0747 3.77686 30.8618 3.77686 30.6667 3.77686C16.3707 4.11386 4.8594 16.0154 5.0013 30.3291C5.07225 37.7964 8.33585 44.8912 13.9585 49.822C14.9695 50.7089 16.2643 51.1878 17.5945 51.1878C18.2153 51.1878 18.8361 51.0814 19.4215 50.8685C21.5322 50.1058 23.2881 48.5982 24.3346 46.5939C24.3701 46.523 24.4055 46.452 24.441 46.3811L39.0031 52.5358L43.0471 57.5908C43.2777 57.8746 43.6147 58.0165 43.9517 58.0165C44.2 58.0165 44.4661 57.9278 44.6789 57.7682C45.1755 57.378 45.2642 56.6508 44.8563 56.1541L40.9187 51.241L42.0538 37.6722C42.107 37.6545 42.1425 37.6545 42.1957 37.6367C43.8098 37.1578 44.8917 35.7034 44.8917 34.0184V30.471C44.8917 28.5731 46.0979 26.8527 47.8893 26.1964L51.5786 24.8661C52.9975 24.3517 54.1327 23.2343 54.6648 21.8154C55.1969 20.4141 55.0905 18.8355 54.381 17.523ZM25.0618 40.1376L24.5652 38.293C24.0331 36.2887 25.2214 34.2135 27.2257 33.6637L33.5224 31.9254C33.7707 31.8545 34.019 31.819 34.285 31.819C35.4734 31.819 36.5376 32.564 36.9633 33.6814L37.5664 35.3309C37.9389 36.3597 38.7548 37.1401 39.748 37.5303L38.7015 49.9107L25.186 44.1994C25.452 42.8691 25.4166 41.4857 25.0618 40.1376ZM52.5009 20.9995C52.1994 21.7799 51.5786 22.4007 50.7804 22.6845L47.0911 24.0147C44.3951 24.9903 42.5682 27.5799 42.5682 30.4533V34.0007C42.5682 34.6569 42.1425 35.2245 41.5217 35.4019C41.3798 35.4374 41.2379 35.4728 41.096 35.4728C40.493 35.4728 39.9254 35.0826 39.7126 34.515L39.1095 32.8655C38.3645 30.8612 36.4135 29.4955 34.2673 29.4955C33.8061 29.4955 33.345 29.5664 32.9016 29.6728L26.6049 31.4111C23.3945 32.2979 21.4789 35.6325 22.3303 38.8606L22.827 40.7052C23.7138 44.022 21.8692 47.5162 18.641 48.6691C18.304 48.7933 17.9493 48.8465 17.5768 48.8465C16.7964 48.8465 16.0514 48.5627 15.4661 48.0483C10.3579 43.5964 7.37805 37.1046 7.3071 30.2936C7.18295 17.2392 17.6832 6.38419 30.7199 6.08266C30.915 6.08266 31.0924 6.08266 31.2698 6.08266C40.0673 6.08266 48.1376 10.8894 52.3413 18.6227C52.7492 19.3499 52.8024 20.219 52.5009 20.9995Z" fill="#222222" stroke="#222222" stroke-width="0.5"/>
<path d="M19.5913 23.2193L19.5913 23.2193L19.5911 23.2188C19.3393 22.5054 18.5625 22.1271 17.8483 22.3792C17.135 22.631 16.7567 23.4077 17.0087 24.1218C17.0087 24.1218 17.0087 24.1219 17.0087 24.1219L18.5053 28.45C18.5053 28.4501 18.5054 28.4501 18.5054 28.4502C18.6945 29.0173 19.2197 29.3742 19.7867 29.3742C19.9327 29.3742 20.0808 29.3534 20.2297 29.2899C20.942 29.0375 21.3196 28.2615 21.0678 27.5479C21.0678 27.5479 21.0678 27.5478 21.0678 27.5477L19.5913 23.2193Z" fill="#222222" stroke="#222222" stroke-width="0.1"/>
<path d="M24.2653 21.6031L24.2653 21.6031L24.2652 21.6026C24.0134 20.8892 23.2366 20.5109 22.5224 20.763C21.809 21.0148 21.4308 21.7914 21.6827 22.5056C21.6827 22.5056 21.6828 22.5057 21.6828 22.5057L23.1794 26.8338C23.1794 26.8338 23.1795 26.8339 23.1795 26.834C23.3686 27.401 23.8938 27.758 24.4608 27.758C24.6068 27.758 24.7549 27.7372 24.9037 27.6737C25.6161 27.4213 25.9936 26.6453 25.7419 25.9317C25.7419 25.9316 25.7419 25.9316 25.7418 25.9315L24.2653 21.6031Z" fill="#222222" stroke="#222222" stroke-width="0.1"/>
<path d="M28.9378 20.004L28.9378 20.004L28.9376 20.0035C28.6858 19.2901 27.9091 18.9118 27.1949 19.1639C26.4815 19.4156 26.1033 20.1923 26.3552 20.9065C26.3552 20.9065 26.3552 20.9065 26.3553 20.9066L27.8519 25.2346C27.8519 25.2347 27.8519 25.2348 27.852 25.2349C28.0411 25.8019 28.5663 26.1589 29.1332 26.1589C29.2793 26.1589 29.4274 26.1381 29.5762 26.0746C30.2886 25.8222 30.6661 25.0462 30.4144 24.3326C30.4144 24.3325 30.4143 24.3324 30.4143 24.3324L28.9378 20.004Z" fill="#222222" stroke="#222222" stroke-width="0.1"/>
</svg>
