<svg width="40" height="40" viewBox="0 0 40 40" fill="none" xmlns="http://www.w3.org/2000/svg">
<path d="M20 35C28.2843 35 35 28.2843 35 20C35 11.7157 28.2843 5 20 5C11.7157 5 5 11.7157 5 20C5 28.2843 11.7157 35 20 35Z" stroke="#222222" stroke-width="2" stroke-linecap="round" stroke-linejoin="round"/>
<path d="M11.6667 15L15.8334 26.6402L20 15L24.1667 26.6402L28.3334 15" stroke="#222222" stroke-width="2" stroke-linecap="round" stroke-linejoin="round"/>
<path d="M10 18.0738C9.44772 18.0738 9 18.5215 9 19.0738C9 19.6261 9.44772 20.0738 10 20.0738L10 18.0738ZM11.6667 20.0738L12.6667 20.0738L12.6667 18.0738L11.6667 18.0738L11.6667 20.0738ZM10 20.0738L11.6667 20.0738L11.6667 18.0738L10 18.0738L10 20.0738Z" fill="#222222"/>
<path d="M28.3333 18.0738L27.3333 18.0738L27.3333 20.0738L28.3333 20.0738L28.3333 18.0738ZM30 20.0738C30.5523 20.0738 31 19.6261 31 19.0738C31 18.5215 30.5523 18.0738 30 18.0738L30 20.0738ZM28.3333 20.0738L30 20.0738L30 18.0738L28.3333 18.0738L28.3333 20.0738Z" fill="#222222"/>
</svg>
