<svg width="60" height="60" viewBox="0 0 60 60" fill="none" xmlns="http://www.w3.org/2000/svg">
<path d="M30 52.5C42.4264 52.5 52.5 42.4264 52.5 30C52.5 17.5736 42.4264 7.5 30 7.5C17.5736 7.5 7.5 17.5736 7.5 30C7.5 42.4264 17.5736 52.5 30 52.5Z" stroke="#222222" stroke-width="3" stroke-linecap="round" stroke-linejoin="round"/>
<path d="M17.5 22.5L23.75 39.9603L30 22.5L36.25 39.9603L42.5 22.5" stroke="#BA143B" stroke-width="3" stroke-linecap="round" stroke-linejoin="round"/>
<path d="M15 27.1108C14.1716 27.1108 13.5 27.7824 13.5 28.6108C13.5 29.4393 14.1716 30.1108 15 30.1108L15 27.1108ZM17.5 30.1108L19 30.1108L19 27.1108L17.5 27.1108L17.5 30.1108ZM15 30.1108L17.5 30.1108L17.5 27.1108L15 27.1108L15 30.1108Z" fill="#BA143B"/>
<path d="M42.5 27.1108L41 27.1108L41 30.1108L42.5 30.1108L42.5 27.1108ZM45 30.1108C45.8284 30.1108 46.5 29.4393 46.5 28.6108C46.5 27.7824 45.8284 27.1108 45 27.1108L45 30.1108ZM42.5 30.1108L45 30.1108L45 27.1108L42.5 27.1108L42.5 30.1108Z" fill="#BA143B"/>
</svg>
