<svg width="60" height="60" viewBox="0 0 60 60" fill="none" xmlns="http://www.w3.org/2000/svg">
<path d="M15.7105 33.3837C15.5273 33.0661 15.2833 32.7878 14.9925 32.5645C14.7017 32.3411 14.3697 32.1773 14.0156 32.0823C13.6614 31.9873 13.2921 31.963 12.9285 32.0107C12.565 32.0584 12.2144 32.1773 11.8968 32.3606C11.5792 32.5438 11.3008 32.7878 11.0775 33.0786C10.8542 33.3694 10.6904 33.7014 10.5954 34.0555C10.5004 34.4096 10.476 34.779 10.5238 35.1426C10.5715 35.5061 10.6904 35.8567 10.8736 36.1743L16.6097 46.1116C18.105 48.645 20.5401 50.4857 23.3853 51.2334C26.2305 51.981 29.2558 51.5753 31.8035 50.1043C34.3511 48.6333 36.2151 46.2161 36.99 43.3782C37.765 40.5403 37.3882 37.5112 35.9418 34.9495L33.3063 30.3762C32.9135 29.7838 32.3096 29.3637 31.6176 29.2014C30.9257 29.0392 30.1979 29.1471 29.5827 29.5031C28.9676 29.8591 28.5115 30.4364 28.3075 31.1173C28.1035 31.7981 28.1669 32.5311 28.4849 33.1667" stroke="#222222" stroke-width="1.5" stroke-linecap="round" stroke-linejoin="round"/>
<path d="M24.2679 37.0425L18.3768 26.8416C18.1936 26.524 17.9496 26.2456 17.6588 26.0223C17.3679 25.799 17.036 25.6351 16.6818 25.5401C16.3277 25.4451 15.9583 25.4208 15.5948 25.4685C15.2313 25.5163 14.8807 25.6352 14.5631 25.8184C14.2455 26.0016 13.9671 26.2456 13.7438 26.5364C13.5205 26.8272 13.3567 27.1592 13.2616 27.5133C13.1666 27.8675 13.1423 28.2368 13.19 28.6004C13.2378 28.9639 13.3567 29.3145 13.5399 29.6321L19.431 39.833" stroke="#222222" stroke-width="1.5" stroke-linecap="round" stroke-linejoin="round"/>
<path d="M30.9653 37.4765L24.4541 26.1904C24.084 25.549 23.4743 25.0809 22.7591 24.889C22.0439 24.6971 21.2818 24.7972 20.6404 25.1672C19.9989 25.5373 19.5308 26.147 19.3389 26.8622C19.147 27.5774 19.2471 28.3395 19.6172 28.9809" stroke="#222222" stroke-width="1.5" stroke-linecap="round" stroke-linejoin="round"/>
<path d="M23.0278 24.9812L21.431 22.2062C21.061 21.5648 20.4513 21.0966 19.7361 20.9048C19.0208 20.7129 18.2587 20.813 17.6173 21.183C16.9759 21.5531 16.5077 22.1627 16.3159 22.878C16.124 23.5932 16.2241 24.3553 16.5941 24.9967L16.9662 25.6323" stroke="#222222" stroke-width="1.5" stroke-linecap="round" stroke-linejoin="round"/>
<path d="M36.8251 44.1738C38.7172 42.4605 39.9659 40.1511 40.3636 37.6297C40.7613 35.1083 40.284 32.5267 39.011 30.3142L36.3755 25.7564C36.1923 25.4388 35.9483 25.1604 35.6575 24.9371C35.3667 24.7138 35.0347 24.5499 34.6806 24.4549C34.3265 24.3599 33.9571 24.3356 33.5935 24.3833C33.23 24.4311 32.8794 24.5499 32.5618 24.7332C32.2442 24.9164 31.9658 25.1604 31.7425 25.4512C31.5192 25.742 31.3554 26.074 31.2604 26.4281C31.1654 26.7823 31.1411 27.1516 31.1888 27.5152C31.2365 27.8787 31.3554 28.2293 31.5386 28.5469" stroke="#222222" stroke-width="1.5" stroke-linecap="round" stroke-linejoin="round"/>
<path d="M31.8953 29.167L27.508 21.5706C27.138 20.9292 26.5283 20.461 25.8131 20.2691C25.0979 20.0772 24.3357 20.1773 23.6943 20.5474C23.0529 20.9174 22.5847 21.5271 22.3929 22.2423C22.201 22.9575 22.3011 23.7197 22.6711 24.3611" stroke="#222222" stroke-width="1.5" stroke-linecap="round" stroke-linejoin="round"/>
<path d="M34.8927 9L33.8135 13.0535" stroke="#BA143B" stroke-width="2" stroke-linecap="round" stroke-linejoin="round"/>
<path d="M42.8686 12.7113L40.447 16.1594" stroke="#BA143B" stroke-width="2" stroke-linecap="round" stroke-linejoin="round"/>
<path d="M49.0534 18.8969L45.6053 21.3184" stroke="#BA143B" stroke-width="2" stroke-linecap="round" stroke-linejoin="round"/>
</svg>
