<svg width="60" height="60" viewBox="0 0 60 60" fill="none" xmlns="http://www.w3.org/2000/svg">
<path d="M19.5311 27.9373C19.7199 27.2328 20.1808 26.6322 20.8124 26.2675C21.4441 25.9028 22.1947 25.804 22.8992 25.9928C23.6037 26.1816 24.2043 26.6425 24.569 27.2741C24.9337 27.9057 25.0325 28.6563 24.8437 29.3608L22.7085 37.3297" stroke="#222222" stroke-width="1.5" stroke-linecap="round" stroke-linejoin="round"/>
<path d="M13.6491 28.6389L14.7879 24.3888C14.9767 23.6843 15.4376 23.0836 16.0692 22.719C16.7009 22.3543 17.4515 22.2555 18.156 22.4442C18.8605 22.633 19.4611 23.0939 19.8258 23.7255C20.1905 24.3572 20.2893 25.1078 20.1005 25.8123L17.6806 34.8437" stroke="#222222" stroke-width="1.5" stroke-linecap="round" stroke-linejoin="round"/>
<path d="M15.2606 43.8751C15.6382 42.4661 16.56 41.2648 17.8232 40.5355C19.0865 39.8061 20.5877 39.6085 21.9967 39.986L22.7085 37.3297C22.8972 36.6252 23.3581 36.0246 23.9898 35.6599C24.6214 35.2952 25.372 35.1964 26.0765 35.3852C26.781 35.5739 27.3817 36.0348 27.7463 36.6665C28.111 37.2981 28.2098 38.0487 28.0211 38.7532L26.5976 44.0658C25.8425 46.8838 23.9989 49.2864 21.4724 50.7451C18.9459 52.2038 15.9433 52.5991 13.1254 51.844C10.3074 51.0889 7.90479 49.2453 6.4461 46.7188C4.98741 44.1923 4.59212 41.1898 5.3472 38.3718L8.33656 27.2153C8.52533 26.5109 8.98622 25.9102 9.61785 25.5455C10.2495 25.1809 11.0001 25.082 11.7046 25.2708C12.4091 25.4596 13.0098 25.9205 13.3744 26.5521C13.7391 27.1837 13.8379 27.9344 13.6491 28.6389L12.0833 34.4827" stroke="#222222" stroke-width="1.5" stroke-linecap="round" stroke-linejoin="round"/>
<path d="M40.4065 27.9373C40.2178 27.2328 39.7569 26.6322 39.1253 26.2675C38.4936 25.9028 37.743 25.804 37.0385 25.9928C36.334 26.1816 35.7334 26.6425 35.3687 27.2741C35.004 27.9057 34.9052 28.6563 35.094 29.3608L37.2292 37.3297" stroke="#222222" stroke-width="1.5" stroke-linecap="round" stroke-linejoin="round"/>
<path d="M46.2885 28.6389L45.1497 24.3888C44.961 23.6843 44.5001 23.0836 43.8684 22.719C43.2368 22.3543 42.4862 22.2555 41.7817 22.4442C41.0772 22.633 40.4765 23.0939 40.1119 23.7255C39.7472 24.3572 39.6484 25.1078 39.8371 25.8123L42.2571 34.8437" stroke="#222222" stroke-width="1.5" stroke-linecap="round" stroke-linejoin="round"/>
<path d="M44.6771 43.8751C44.2995 42.4661 43.3777 41.2648 42.1145 40.5355C40.8512 39.8061 39.3499 39.6085 37.941 39.986L37.2292 37.3297C37.0404 36.6252 36.5795 36.0246 35.9479 35.6599C35.3163 35.2952 34.5657 35.1964 33.8612 35.3852C33.1567 35.5739 32.556 36.0348 32.1913 36.6665C31.8267 37.2981 31.7278 38.0487 31.9166 38.7532L33.3401 44.0658C34.0952 46.8838 35.9388 49.2864 38.4653 50.7451C40.9918 52.2038 43.9943 52.5991 46.8123 51.844C49.6303 51.0889 52.0329 49.2453 53.4916 46.7188C54.9503 44.1923 55.3456 41.1898 54.5905 38.3718L51.6011 27.2153C51.4124 26.5109 50.9515 25.9102 50.3198 25.5455C49.6882 25.1809 48.9376 25.082 48.2331 25.2708C47.5286 25.4596 46.9279 25.9205 46.5633 26.5521C46.1986 27.1837 46.0998 27.9344 46.2885 28.6389L47.8544 34.4827" stroke="#222222" stroke-width="1.5" stroke-linecap="round" stroke-linejoin="round"/>
<path d="M19.2922 8.32566L21.5523 12.8964" stroke="#BA143B" stroke-width="2" stroke-linecap="round" stroke-linejoin="round"/>
<path d="M28.8624 5.99999L28.9279 10.9996" stroke="#BA143B" stroke-width="2" stroke-linecap="round" stroke-linejoin="round"/>
<path d="M38.6801 7.27139L37.3431 12.0893" stroke="#BA143B" stroke-width="2" stroke-linecap="round" stroke-linejoin="round"/>
</svg>
