<svg width="21" height="21" viewBox="0 0 21 21" fill="none" xmlns="http://www.w3.org/2000/svg">
<path d="M10.5051 1.5C4.97868 1.5 0.5 5.04391 0.5 9.4096C0.5 11.9571 2.02029 14.217 4.38289 15.6654C4.56779 15.8503 4.72188 16.1584 4.53698 16.6001C4.53698 16.6001 3.79738 18.5108 2.36954 19.7948C2.36954 19.7948 2.21546 20.0208 2.94478 19.8667C2.94478 19.8667 5.6361 19.2093 8.52259 17.3808C8.52259 17.3808 8.63559 17.2987 8.98484 17.2987C8.98484 17.2987 9.2211 17.2884 9.54981 17.2781C9.85798 17.2987 10.1764 17.3089 10.4949 17.3089C16.0213 17.3089 20.5 13.765 20.5 9.39933C20.5103 5.04391 16.0316 1.5 10.5051 1.5Z" fill="#3C1E1E"/>
</svg>
