<svg width="60" height="60" viewBox="0 0 60 60" fill="none" xmlns="http://www.w3.org/2000/svg">
<path d="M46.875 41.2501V15C46.8781 14.2605 46.7347 13.5276 46.4531 12.8438C46.1716 12.1599 45.7573 11.5386 45.2344 11.0157C44.7114 10.4927 44.0901 10.0785 43.4063 9.79691C42.7224 9.51533 41.9896 9.37195 41.25 9.37505H9.375" stroke="#222222" stroke-width="2.5" stroke-linecap="round" stroke-linejoin="round"/>
<path d="M24.375 24.375H39.375" stroke="#222222" stroke-width="2.5" stroke-linecap="round" stroke-linejoin="round"/>
<path d="M24.375 31.875H39.375" stroke="#222222" stroke-width="2.5" stroke-linecap="round" stroke-linejoin="round"/>
<path d="M5.17969 18.7497C4.57251 18.0699 4.13963 17.2527 3.91832 16.3685C3.69701 15.4843 3.69389 14.5595 3.90923 13.6738C4.12457 12.7881 4.55193 11.968 5.1545 11.2841C5.75708 10.6002 6.51683 10.073 7.36835 9.74785C8.21988 9.42268 9.13767 9.30932 10.0427 9.41752C10.9478 9.52572 11.813 9.85224 12.5638 10.369C13.3147 10.8857 13.9288 11.5772 14.3531 12.3838C14.7775 13.1905 14.9995 14.0882 15 14.9997V44.9997C15.0005 45.9112 15.2225 46.809 15.6468 47.6156C16.0712 48.4223 16.6853 49.1138 17.4362 49.6305C18.187 50.1472 19.0522 50.4738 19.9573 50.582C20.8623 50.6902 21.7801 50.5768 22.6316 50.2516C23.4832 49.9265 24.2429 49.3992 24.8455 48.7153C25.4481 48.0314 25.8754 47.2113 26.0908 46.3256C26.3061 45.44 26.303 44.5152 26.0817 43.631C25.8604 42.7468 25.4275 41.9296 24.8203 41.2497H51.0703C51.7944 42.0593 52.2686 43.0611 52.4357 44.1343C52.6028 45.2074 52.4557 46.306 52.012 47.2974C51.5684 48.2887 50.8473 49.1304 49.9357 49.7209C49.0241 50.3113 47.9611 50.6253 46.875 50.6247H20.625" stroke="#222222" stroke-width="2.5" stroke-linecap="round" stroke-linejoin="round"/>
</svg>
