<svg width="40" height="40" viewBox="0 0 40 40" fill="none" xmlns="http://www.w3.org/2000/svg">
<path d="M20 20V5" stroke="black" stroke-width="2" stroke-linecap="round" stroke-linejoin="round"/>
<path d="M32.9837 12.5L7.01495 27.5" stroke="black" stroke-width="2" stroke-linecap="round" stroke-linejoin="round"/>
<path d="M5.25015 22.75C5.07962 21.8434 4.99591 20.9225 5.00015 20C4.99818 16.8978 5.95909 13.8715 7.75027 11.3386C9.54145 8.80576 12.0746 6.89128 15.0002 5.85938V17.1094L5.25015 22.75Z" stroke="#BA143B" stroke-width="2" stroke-linecap="round" stroke-linejoin="round"/>
<path d="M19.9999 5C22.6283 5.0003 25.2104 5.69123 27.4877 7.00359C29.765 8.31594 31.6575 10.2037 32.9756 12.4776C34.2937 14.7516 34.9912 17.332 34.9981 19.9604C35.0051 22.5888 34.3213 25.1728 33.0152 27.4537C31.7091 29.7346 29.8266 31.6323 27.5563 32.9567C25.2859 34.281 22.7075 34.9856 20.0791 34.9998C17.4508 35.014 14.8648 34.3373 12.5803 33.0375C10.2959 31.7377 8.393 29.8604 7.06238 27.5938" stroke="black" stroke-width="2" stroke-linecap="round" stroke-linejoin="round"/>
</svg>
