<svg width="60" height="60" viewBox="0 0 60 60" fill="none" xmlns="http://www.w3.org/2000/svg">
<path d="M30 18.75V30" stroke="#BA143B" stroke-width="3" stroke-linecap="round" stroke-linejoin="round"/>
<path d="M39.75 35.625L30 30" stroke="#BA143B" stroke-width="3" stroke-linecap="round" stroke-linejoin="round"/>
<path d="M43.1719 23.3672H52.5469V13.9922" stroke="#222222" stroke-width="3" stroke-linecap="round" stroke-linejoin="round"/>
<path d="M44.5781 44.5781C41.6943 47.4643 38.0193 49.4303 34.018 50.2275C30.0167 51.0247 25.8688 50.6172 22.0991 49.0566C18.3294 47.4961 15.1073 44.8525 12.8402 41.4604C10.5732 38.0683 9.3631 34.08 9.3631 30C9.3631 25.9201 10.5732 21.9318 12.8402 18.5396C15.1073 15.1475 18.3294 12.5039 22.0991 10.9434C25.8688 9.38282 30.0167 8.97536 34.018 9.77255C38.0193 10.5697 41.6943 12.5357 44.5781 15.4219L52.5469 23.3672" stroke="#222222" stroke-width="3" stroke-linecap="round" stroke-linejoin="round"/>
</svg>
