<svg width="60" height="60" viewBox="0 0 60 60" fill="none" xmlns="http://www.w3.org/2000/svg">
<path d="M30 24.375V33.75" stroke="#222222" stroke-width="2.5" stroke-linecap="round" stroke-linejoin="round"/>
<path d="M26.7657 9.37501L6.14066 45C5.81209 45.5691 5.63883 46.2146 5.63825 46.8717C5.63766 47.5289 5.80978 48.1746 6.13735 48.7443C6.46491 49.314 6.93643 49.7876 7.50467 50.1177C8.0729 50.4477 8.7179 50.6227 9.37504 50.625H50.625C51.2822 50.6227 51.9272 50.4477 52.4954 50.1177C53.0636 49.7876 53.5352 49.314 53.8627 48.7443C54.1903 48.1746 54.3624 47.5289 54.3618 46.8717C54.3612 46.2146 54.188 45.5691 53.8594 45L33.2344 9.37501C32.9083 8.80517 32.4374 8.3316 31.8695 8.00224C31.3015 7.67288 30.6566 7.49942 30 7.49942C29.3435 7.49942 28.6986 7.67288 28.1306 8.00224C27.5626 8.3316 27.0918 8.80517 26.7657 9.37501V9.37501Z" stroke="#222222" stroke-width="2.5" stroke-linecap="round" stroke-linejoin="round"/>
<path d="M30 43.375C31.1046 43.375 32 42.4796 32 41.375C32 40.2704 31.1046 39.375 30 39.375C28.8954 39.375 28 40.2704 28 41.375C28 42.4796 28.8954 43.375 30 43.375Z" fill="#222222"/>
</svg>
