<svg width="140" height="28" viewBox="0 0 140 28" fill="none" xmlns="http://www.w3.org/2000/svg">
<path fill-rule="evenodd" clip-rule="evenodd" d="M6.06394 1.5H21.049H21.0589C21.5314 1.50389 21.9902 1.65949 22.3676 1.94379C22.4581 2.01197 22.5207 2.07983 22.537 2.09754L22.538 2.09861C22.5642 2.12704 22.5859 2.15289 22.6004 2.17056C22.6298 2.20655 22.6585 2.24417 22.6827 2.27665C22.7325 2.3435 22.7928 2.4281 22.8587 2.52233C22.9919 2.71286 23.1687 2.97247 23.3718 3.27449C23.779 3.88009 24.3043 4.67456 24.8247 5.46928C25.3452 6.26413 25.8633 7.063 26.256 7.67769C26.452 7.98438 26.6192 8.24908 26.7406 8.44583C26.8008 8.54331 26.8536 8.63042 26.8942 8.70019C26.914 8.73423 26.9359 8.77253 26.9557 8.80996C26.9655 8.82836 26.9792 8.85471 26.9935 8.88508C26.9978 8.89434 27.0085 8.91706 27.021 8.94748C27.057 9.03385 27.0832 9.12536 27.0982 9.22059C27.1098 9.2932 27.1145 9.36569 27.1128 9.4373V9.80658C27.1128 10.5154 26.9665 11.1108 26.6509 11.6614C26.3623 12.1649 25.9585 12.5762 25.5946 12.9401C25.4441 13.0906 25.2853 13.2309 25.1192 13.3606V24.5027C25.1192 25.0748 24.9406 25.6638 24.5671 26.1332C24.188 26.6095 23.6075 26.9514 22.9263 26.9514H4.18665C3.50541 26.9514 2.92496 26.6095 2.54588 26.1332C2.17235 25.6638 1.99372 25.0748 1.99372 24.5027V13.3606C1.82764 13.231 1.66879 13.0906 1.51825 12.9401C1.15438 12.5762 0.750575 12.1649 0.461991 11.6614C0.146352 11.1108 9.73428e-05 10.5154 9.73428e-05 9.80658V9.42202C-0.00121882 9.31877 0.0108024 9.21485 0.0367278 9.11295C0.0711291 8.97728 0.128716 8.85085 0.205024 8.73814L4.02595 2.8829C4.17526 2.51141 4.42347 2.18625 4.74535 1.94379C5.12279 1.65949 5.58157 1.50393 6.05409 1.50004L6.06394 1.5ZM4.38601 14.3966V24.5027C4.38601 24.5228 4.38761 24.5418 4.3903 24.5591H22.7227C22.7253 24.5418 22.7269 24.5228 22.7269 24.5027V14.3966C22.4647 14.4374 22.1982 14.4583 21.9295 14.4583C20.5548 14.4583 19.2364 13.9122 18.2643 12.9401C18.1567 12.8325 18.0456 12.7208 17.9351 12.6037C17.8081 12.7493 17.6972 12.8633 17.6204 12.9401L17.5829 12.978C17.419 13.1443 17.0529 13.5156 16.4881 13.8341C15.8637 14.1862 15.0332 14.4583 13.9552 14.4583C12.8835 14.4583 12.0175 14.3467 11.281 14.0864C10.5188 13.817 9.96584 13.4134 9.49257 12.9401C9.38732 12.8349 9.27873 12.7256 9.17056 12.6114C9.06239 12.7256 8.9538 12.8349 8.84855 12.9401C7.8765 13.9122 6.5581 14.4583 5.1834 14.4583C4.91473 14.4583 4.64821 14.4374 4.38601 14.3966ZM8.18712 17.2227C8.71384 16.8277 9.46034 16.9327 9.85773 17.4566L9.86236 17.4625C9.86871 17.4706 9.88109 17.486 9.89935 17.5077C9.93596 17.5513 9.99568 17.6198 10.0773 17.705C10.2416 17.8764 10.4887 18.1092 10.8086 18.3419C11.4532 18.8107 12.341 19.2429 13.4236 19.2429C14.5061 19.2429 15.394 18.8107 16.0385 18.3419C16.3585 18.1092 16.6056 17.8764 16.7699 17.705C16.8515 17.6198 16.9112 17.5513 16.9478 17.5077C16.959 17.4944 16.968 17.4834 16.9747 17.4751L16.9848 17.4625L16.9894 17.4566C17.3868 16.9327 18.1333 16.8277 18.6601 17.2227C19.1885 17.6191 19.2957 18.3688 18.8993 18.8973L17.9424 18.1796C18.8993 18.8973 18.8993 18.8973 18.8993 18.8973L18.8981 18.8989L18.8967 18.9007L18.8935 18.905L18.8851 18.916C18.8786 18.9244 18.8704 18.9349 18.8605 18.9474C18.8406 18.9725 18.8138 19.0056 18.7803 19.0457C18.7132 19.1256 18.6184 19.2336 18.4971 19.3603C18.2553 19.6125 17.9023 19.9445 17.4456 20.2767C16.5368 20.9376 15.1653 21.6351 13.4236 21.6351C11.6819 21.6351 10.3103 20.9376 9.40157 20.2767C8.94488 19.9445 8.59184 19.6125 8.3501 19.3603C8.22875 19.2336 8.13401 19.1256 8.06692 19.0457C8.03333 19.0056 8.00655 18.9725 7.98669 18.9474L7.97481 18.9323L7.96209 18.916L7.95368 18.905L7.95046 18.9007L7.94909 18.8989C7.94909 18.8989 7.94789 18.8973 8.90481 18.1796L7.94789 18.8973C7.55152 18.3688 7.65863 17.6191 8.18712 17.2227Z" fill="#BA143B"/>
<path d="M56.077 16.9208H53.8679V25.2711H50.1346V6.40556H53.8679V13.2979H56.077V16.9208ZM44.3689 20.9634C45.282 20.9634 46.1803 20.8898 47.064 20.7425C47.9623 20.5952 48.6913 20.389 49.251 20.1239V23.5038C48.6913 23.7837 47.955 23.9972 47.0419 24.1445C46.1288 24.3065 45.201 24.3875 44.2584 24.3875H36.7918V6.73692H40.6135V20.9634H44.3689Z" fill="#BA143B"/>
<path d="M75.6476 25.2711H71.9142V6.40556H75.6476V25.2711ZM63.8953 6.62647C65.7362 6.62647 67.1794 7.37756 68.2251 8.87973C69.2854 10.3672 69.8156 12.6131 69.8156 15.6174C69.8156 18.6218 69.2854 20.875 68.2251 22.3772C67.1794 23.8647 65.7362 24.6084 63.8953 24.6084C62.0544 24.6084 60.6037 23.8647 59.5434 22.3772C58.483 20.875 57.9528 18.6218 57.9528 15.6174C57.9528 12.6131 58.483 10.3672 59.5434 8.87973C60.6037 7.37756 62.0544 6.62647 63.8953 6.62647ZM63.8953 10.0505C62.3931 10.0505 61.642 11.9062 61.642 15.6174C61.642 19.3287 62.3931 21.1843 63.8953 21.1843C65.3827 21.1843 66.1264 19.3287 66.1264 15.6174C66.1264 13.644 65.9202 12.2228 65.5079 11.3539C65.1103 10.485 64.5727 10.0505 63.8953 10.0505Z" fill="#BA143B"/>
<path d="M88.0607 13.5851C86.9414 15.0872 85.5939 16.2728 84.0181 17.1417C82.457 17.9959 80.7928 18.4303 79.0255 18.445V14.9105C80.2774 14.9105 81.4629 14.5497 82.5822 13.8281C83.7162 13.0917 84.6734 12.0755 85.454 10.7795C86.2345 9.46882 86.7352 7.98874 86.9561 6.33929L90.7558 6.93574C90.579 8.23174 90.2329 9.47618 89.7175 10.6691L97.7585 15.507L95.7925 18.5334L88.0607 13.5851ZM78.65 21.118H97.7365V24.6084H78.65V21.118Z" fill="#BA143B"/>
<path d="M119.502 21.118V24.6084H100.415V21.118H108.059V18.4671C106.674 18.2904 105.459 17.9296 104.414 17.3847C103.368 16.8398 102.558 16.1476 101.984 15.3082C101.424 14.4687 101.144 13.5335 101.144 12.5026C101.144 11.3244 101.512 10.2788 102.249 9.36573C102.985 8.43792 104.023 7.71628 105.364 7.20083C106.704 6.68538 108.235 6.42765 109.958 6.42765C111.682 6.42765 113.213 6.68538 114.553 7.20083C115.893 7.71628 116.932 8.43792 117.668 9.36573C118.404 10.2788 118.773 11.3244 118.773 12.5026C118.773 13.5335 118.485 14.4687 117.911 15.3082C117.351 16.1476 116.549 16.8398 115.503 17.3847C114.458 17.9296 113.243 18.2904 111.858 18.4671V21.118H119.502ZM105.098 12.5026C105.098 13.0328 105.305 13.5041 105.717 13.9164C106.129 14.3288 106.704 14.6528 107.44 14.8884C108.176 15.1093 109.016 15.2198 109.958 15.2198C110.901 15.2198 111.74 15.1093 112.477 14.8884C113.213 14.6528 113.787 14.3288 114.2 13.9164C114.612 13.5041 114.818 13.0328 114.818 12.5026C114.818 11.6926 114.369 11.0373 113.471 10.5365C112.573 10.0358 111.402 9.78545 109.958 9.78545C108.515 9.78545 107.344 10.0358 106.446 10.5365C105.548 11.0373 105.098 11.6926 105.098 12.5026Z" fill="#BA143B"/>
<path d="M140 6.40556V25.2711H136.267V15.9488H130.435V12.348H136.267V6.40556H140ZM129.728 20.9634C130.626 20.9634 131.517 20.8898 132.401 20.7425C133.299 20.5805 134.035 20.3669 134.61 20.1019V23.4817C134.05 23.7616 133.306 23.9825 132.379 24.1445C131.466 24.3065 130.545 24.3875 129.617 24.3875H122.416V6.73692H126.26V20.9634H129.728Z" fill="#BA143B"/>
</svg>
