<svg width="20" height="20" viewBox="0 0 20 20" fill="none" xmlns="http://www.w3.org/2000/svg">
<rect x="2.67725" y="8.83154" width="15.1712" height="9.81668" fill="white"/>
<path fill-rule="evenodd" clip-rule="evenodd" d="M4.47307 0.799805H15.5268H15.5341C15.8826 0.802674 16.221 0.917449 16.4995 1.12717C16.5662 1.17746 16.6124 1.22752 16.6244 1.24058L16.6251 1.24137C16.6445 1.26234 16.6605 1.28141 16.6712 1.29444C16.6929 1.32099 16.714 1.34874 16.7319 1.3727C16.7687 1.42201 16.8131 1.48442 16.8617 1.55393C16.96 1.69447 17.0904 1.88598 17.2402 2.10876C17.5406 2.55548 17.9281 3.14152 18.312 3.72775C18.6959 4.31406 19.0781 4.90335 19.3678 5.35678C19.5123 5.583 19.6357 5.77826 19.7252 5.9234C19.7696 5.9953 19.8086 6.05956 19.8385 6.11103C19.8531 6.13614 19.8692 6.16439 19.8839 6.19199C19.8911 6.20557 19.9012 6.22501 19.9117 6.24741C19.915 6.25424 19.9228 6.271 19.932 6.29344C19.9586 6.35715 19.9779 6.42465 19.989 6.4949C19.9975 6.54846 20.001 6.60193 19.9997 6.65476V6.92715C19.9997 7.45 19.8919 7.88918 19.659 8.29538C19.4461 8.66676 19.1483 8.97019 18.8799 9.2386C18.7688 9.34963 18.6517 9.45312 18.5292 9.54876V17.7678C18.5292 18.1898 18.3974 18.6243 18.1219 18.9705C17.8423 19.3219 17.4141 19.574 16.9116 19.574H3.08829C2.58576 19.574 2.1576 19.3219 1.87797 18.9705C1.60243 18.6243 1.47067 18.1898 1.47067 17.7678V9.5488C1.34816 9.45316 1.23099 9.34965 1.11994 9.2386C0.851528 8.97019 0.553662 8.66676 0.340788 8.29538C0.107957 7.88918 7.18049e-05 7.45 7.18049e-05 6.92715V6.64348C-0.00089906 6.56732 0.00796842 6.49067 0.0270923 6.4155C0.0524684 6.31542 0.0949473 6.22216 0.151236 6.13902L2.96974 1.8199C3.07988 1.54587 3.26297 1.30602 3.50041 1.12717C3.77883 0.917451 4.11725 0.802704 4.4658 0.799835L4.47307 0.799805ZM3.23534 10.313V17.7678C3.23534 17.7826 3.23652 17.7966 3.2385 17.8093H16.7614C16.7634 17.7966 16.7645 17.7826 16.7645 17.7678V10.313C16.5711 10.3431 16.3745 10.3585 16.1763 10.3585C15.1622 10.3585 14.1897 9.95564 13.4727 9.2386C13.3933 9.15923 13.3114 9.0768 13.2298 8.99045C13.1361 9.09783 13.0544 9.18192 12.9977 9.2386L12.97 9.26654C12.8491 9.3892 12.579 9.66309 12.1624 9.89803C11.7019 10.1578 11.0892 10.3585 10.294 10.3585C9.50351 10.3585 8.86474 10.2762 8.32142 10.0842C7.75923 9.88544 7.3513 9.58771 7.00219 9.2386C6.92456 9.16097 6.84446 9.0804 6.76467 8.99611C6.68487 9.0804 6.60477 9.16097 6.52714 9.2386C5.8101 9.95564 4.83758 10.3585 3.82354 10.3585C3.62535 10.3585 3.42876 10.3431 3.23534 10.313ZM6.03923 12.3977C6.42777 12.1063 6.97842 12.1838 7.27156 12.5702L7.27497 12.5746C7.27966 12.5805 7.28879 12.5919 7.30226 12.6079C7.32926 12.6401 7.37332 12.6906 7.43353 12.7534C7.55469 12.8799 7.73697 13.0516 7.973 13.2233C8.44846 13.5691 9.10337 13.8878 9.90191 13.8878C10.7004 13.8878 11.3554 13.5691 11.8308 13.2233C12.0669 13.0516 12.2491 12.8799 12.3703 12.7534C12.4305 12.6906 12.4746 12.6401 12.5016 12.6079C12.5098 12.5981 12.5164 12.59 12.5214 12.5839L12.5288 12.5746L12.5323 12.5702C12.8254 12.1838 13.3761 12.1063 13.7646 12.3977C14.1544 12.69 14.2334 13.2431 13.9411 13.6329L13.2352 13.1035C13.9411 13.6329 13.9411 13.6329 13.9411 13.6329L13.9402 13.6341L13.9392 13.6354L13.9368 13.6386L13.9306 13.6467C13.9258 13.6529 13.9198 13.6607 13.9124 13.6699C13.8978 13.6884 13.878 13.7128 13.8533 13.7424C13.8038 13.8013 13.7339 13.881 13.6444 13.9744C13.4661 14.1605 13.2056 14.4054 12.8688 14.6504C12.1984 15.138 11.1867 15.6525 9.90191 15.6525C8.61715 15.6525 7.60542 15.138 6.93507 14.6504C6.59819 14.4054 6.33777 14.1605 6.15946 13.9744C6.06994 13.881 6.00006 13.8013 5.95056 13.7424C5.92579 13.7128 5.90603 13.6884 5.89139 13.6699L5.88262 13.6588L5.87323 13.6467L5.86703 13.6386L5.86466 13.6354L5.86365 13.6341C5.86365 13.6341 5.86276 13.6329 6.56863 13.1035L5.86276 13.6329C5.57038 13.2431 5.64939 12.69 6.03923 12.3977Z" fill="#BBBBBB"/>
</svg>
