<svg width="80" height="80" viewBox="0 0 80 80" fill="none" xmlns="http://www.w3.org/2000/svg">
<path d="M0 32C0 20.799 0 15.1984 2.17987 10.9202C4.09734 7.15695 7.15695 4.09734 10.9202 2.17987C15.1984 0 20.799 0 32 0H48C59.201 0 64.8016 0 69.0798 2.17987C72.8431 4.09734 75.9027 7.15695 77.8201 10.9202C80 15.1984 80 20.799 80 32V48C80 59.201 80 64.8016 77.8201 69.0798C75.9027 72.8431 72.8431 75.9027 69.0798 77.8201C64.8016 80 59.201 80 48 80H32C20.799 80 15.1984 80 10.9202 77.8201C7.15695 75.9027 4.09734 72.8431 2.17987 69.0798C0 64.8016 0 59.201 0 48V32Z" fill="white"/>
<path fill-rule="evenodd" clip-rule="evenodd" d="M27.2881 18H52.7117H52.7284C53.53 18.0066 54.3084 18.2706 54.9488 18.7529C55.1023 18.8686 55.2085 18.9837 55.2361 19.0138L55.2378 19.0156C55.2823 19.0638 55.3191 19.1077 55.3437 19.1377C55.3937 19.1987 55.4423 19.2626 55.4834 19.3177C55.5679 19.4311 55.6702 19.5746 55.782 19.7345C56.008 20.0577 56.3079 20.4982 56.6525 21.0106C57.3433 22.038 58.2346 23.3859 59.1175 24.7343C60.0006 26.0828 60.8795 27.4382 61.5459 28.481C61.8783 29.0014 62.162 29.4505 62.368 29.7843C62.4701 29.9496 62.5597 30.0974 62.6286 30.2158C62.6622 30.2736 62.6992 30.3385 62.733 30.402C62.7496 30.4333 62.7728 30.478 62.797 30.5295C62.8044 30.5452 62.8225 30.5837 62.8436 30.6354C62.9048 30.7819 62.9493 30.9371 62.9747 31.0987C62.9944 31.2219 63.0024 31.3449 62.9994 31.4664V32.0929C62.9994 33.2954 62.7513 34.3056 62.2158 35.2398C61.7261 36.094 61.041 36.7919 60.4237 37.4092C60.1683 37.6646 59.8989 37.9026 59.6172 38.1226V57.0263C59.6172 57.997 59.3141 58.9963 58.6804 59.7926C58.0372 60.6007 57.0524 61.1807 55.8967 61.1807H24.1031C22.9473 61.1807 21.9625 60.6007 21.3193 59.7926C20.6856 58.9963 20.3825 57.997 20.3825 57.0263V38.1227C20.1008 37.9027 19.8313 37.6646 19.5759 37.4092C18.9585 36.7919 18.2734 36.094 17.7838 35.2398C17.2483 34.3056 17.0002 33.2954 17.0002 32.0929V31.4405C16.9979 31.2653 17.0183 31.089 17.0623 30.9161C17.1207 30.6859 17.2184 30.4714 17.3478 30.2802L23.8304 20.3462C24.0837 19.716 24.5048 19.1643 25.0509 18.7529C25.6913 18.2706 26.4697 18.0067 27.2713 18.0001L27.2881 18ZM24.4413 39.8803V57.0263C24.4413 57.0604 24.444 57.0926 24.4486 57.1219H55.5512C55.5557 57.0926 55.5584 57.0604 55.5584 57.0263V39.8803C55.1135 39.9495 54.6613 39.9849 54.2054 39.9849C51.8731 39.9849 49.6363 39.0584 47.9872 37.4092C47.8046 37.2267 47.6161 37.0371 47.4285 36.8385C47.2131 37.0854 47.025 37.2789 46.8947 37.4092L46.8311 37.4735C46.5529 37.7556 45.9318 38.3856 44.9736 38.9259C43.9143 39.5233 42.5052 39.9849 40.6762 39.9849C38.8581 39.9849 37.3889 39.7957 36.1393 39.354C34.8462 38.897 33.908 38.2122 33.105 37.4092C32.9265 37.2307 32.7423 37.0454 32.5587 36.8515C32.3752 37.0454 32.191 37.2307 32.0124 37.4092C30.3632 39.0584 28.1264 39.9849 25.7941 39.9849C25.3383 39.9849 24.8861 39.9495 24.4413 39.8803ZM30.8902 44.6751C31.7839 44.0048 33.0504 44.1831 33.7246 45.0719L33.7324 45.082C33.7432 45.0956 33.7642 45.1217 33.7952 45.1586C33.8573 45.2326 33.9586 45.3488 34.0971 45.4934C34.3758 45.7841 34.795 46.1791 35.3379 46.574C36.4315 47.3693 37.9378 48.1024 39.7744 48.1024C41.611 48.1024 43.1173 47.3693 44.2109 46.574C44.7538 46.1791 45.173 45.7841 45.4517 45.4934C45.5902 45.3488 45.6915 45.2326 45.7536 45.1586C45.7726 45.136 45.7878 45.1174 45.7992 45.1033L45.8164 45.082L45.8242 45.072C46.4984 44.1831 47.7649 44.0048 48.6586 44.6751C49.5552 45.3475 49.7369 46.6195 49.0644 47.5162L47.4409 46.2986C49.0644 47.5162 49.0644 47.5162 49.0644 47.5162L49.0624 47.5189L49.0601 47.522L49.0546 47.5292L49.0404 47.5478C49.0294 47.5621 49.0154 47.58 48.9986 47.6012C48.9649 47.6438 48.9195 47.7 48.8625 47.7679C48.7487 47.9035 48.5879 48.0868 48.382 48.3016C47.9719 48.7296 47.3729 49.2929 46.5981 49.8564C45.0563 50.9777 42.7293 52.1612 39.7744 52.1612C36.8194 52.1612 34.4925 50.9777 32.9507 49.8564C32.1758 49.2929 31.5769 48.7296 31.1667 48.3016C30.9609 48.0868 30.8001 47.9035 30.6863 47.7679C30.6293 47.7 30.5839 47.6438 30.5502 47.6012L30.53 47.5756L30.5084 47.5478L30.4942 47.5292L30.4887 47.522L30.4864 47.5189C30.4864 47.5189 30.4844 47.5162 32.1079 46.2986L30.4844 47.5162C29.8119 46.6195 29.9936 45.3475 30.8902 44.6751Z" fill="#BA143B"/>
</svg>
