<?xml version="1.0" encoding="UTF-8"?>
<svg width="80px" height="43px" viewBox="0 0 80 43" version="1.1" xmlns="http://www.w3.org/2000/svg" xmlns:xlink="http://www.w3.org/1999/xlink">
    <title>중국공상은행_logo</title>
    <defs>
        <polygon id="path-1" points="0 0 34.2856571 0 34.2856571 34.3998853 0 34.3998853"></polygon>
    </defs>
    <g id="Erns_html-(220816-개선)" stroke="none" stroke-width="1" fill="none" fill-rule="evenodd">
        <g id="은행-로고_이미지" transform="translate(-147.000000, -851.000000)">
            <g id="Group-26" transform="translate(147.000000, 851.000000)">
                <g id="Group-8" transform="translate(22.857143, 4.300000)">
                    <g id="Group-3">
                        <mask id="mask-2" fill="white">
                            <use xlink:href="#path-1"></use>
                        </mask>
                        <g id="Clip-2"></g>
                        <path d="M17.1428,31.5332187 C9.25308571,31.5332187 2.85708571,25.1158987 2.85708571,17.1998853 C2.85708571,9.283872 9.25308571,2.866552 17.1428,2.866552 C25.0328,2.866552 31.4285143,9.283872 31.4285143,17.1998853 C31.4285143,25.1158987 25.0328,31.5332187 17.1428,31.5332187 M17.1428,-0.000114666667 C7.67508571,-0.000114666667 -5.71428572e-05,7.700612 -5.71428572e-05,17.1998853 C-5.71428572e-05,26.6994453 7.67508571,34.3998853 17.1428,34.3998853 C26.6105143,34.3998853 34.2856571,26.6994453 34.2856571,17.1998853 C34.2856571,7.700612 26.6105143,-0.000114666667 17.1428,-0.000114666667" id="Fill-1" fill="#C7000A" mask="url(#mask-2)"></path>
                    </g>
                    <polygon id="Fill-4" fill="#C7000A" points="16.5748571 11.01402 16.5748571 8.17 8.07085714 8.17 8.07085714 15.84894 8.07085714 16.0860133 12.8897143 16.0860133 12.8897143 18.3137 8.07085714 18.3137 8.07085714 26.23 16.5748571 26.23 16.5748571 23.38598 10.9054286 23.38598 10.9054286 21.1580067 15.7242857 21.1580067 15.7242857 13.2419933 10.9054286 13.2419933 10.9054286 11.01402"></polygon>
                    <polygon id="Fill-6" fill="#C7000A" points="17.7107429 11.01402 17.7107429 8.17 26.2150286 8.17 26.2150286 15.84894 26.2150286 16.0860133 21.3958857 16.0860133 21.3958857 18.3137 26.2150286 18.3137 26.2150286 26.23 17.7107429 26.23 17.7107429 23.38598 23.3801714 23.38598 23.3801714 21.1580067 18.5613143 21.1580067 18.5613143 13.2419933 23.3801714 13.2419933 23.3801714 11.01402"></polygon>
                </g>
            </g>
        </g>
    </g>
</svg>