<?xml version="1.0" encoding="UTF-8"?>
<svg width="80px" height="43px" viewBox="0 0 80 43" version="1.1" xmlns="http://www.w3.org/2000/svg" xmlns:xlink="http://www.w3.org/1999/xlink">
    <title>하나은행_logo</title>
    <g id="Erns_html-(220816-개선)" stroke="none" stroke-width="1" fill="none" fill-rule="evenodd">
        <g id="은행-로고_이미지" transform="translate(-272.000000, -207.000000)">
            <g id="a_Logo" transform="translate(272.000000, 207.000000)">
                <rect id="Rectangle" fill-opacity="0" fill="#000000" x="0" y="0" width="80" height="43"></rect>
                <g id="Group" transform="translate(23.571429, 6.450000)">
                    <path d="M22.1421103,18.2862394 C22.0650733,17.8172139 21.9356948,17.3621122 21.7487297,16.9369414 C21.1528674,15.650794 20.322725,14.5706539 19.087182,13.8457365 C17.1579779,12.715602 14.8249031,12.724373 12.9182091,13.8833418 C12.0549572,14.4085013 11.3438125,15.1615953 10.8876002,16.0673036 C10.7322149,16.374944 10.6062238,16.6949733 10.5013223,17.0219097 C9.99976202,18.6263323 10.018994,20.7821174 10.9225674,22.2454375 C11.2205532,22.7241111 11.6459506,23.1325076 12.171223,23.3341293 C12.6927801,23.538492 13.3132288,23.5148105 13.785067,23.2096917 C14.3906546,22.8169733 14.4980694,22.0682647 14.3861744,21.4001391 C14.2420441,20.5471661 14.1329903,19.7091037 14.4438702,18.8735629 C14.5470234,18.6070362 14.686892,18.3510347 14.8913407,18.1546755 C15.0152556,18.0337462 15.1621177,17.9371564 15.3194699,17.8609589 C15.6479427,17.7014376 16.0237305,17.6268847 16.3818161,17.686527 C17.0146126,17.7882698 17.5336564,18.2817443 17.8132845,18.8595294 C18.0945516,19.4346832 18.1715887,20.0869115 18.2029498,20.7294918 C18.3330933,23.5218272 17.6689357,26.4166729 16.9586651,29.0992621 C16.885234,29.3764235 16.8092897,29.6525982 16.7297394,29.9269091 C16.6704045,30.1391656 16.5620063,30.4092006 16.6965206,30.6161946 C16.7559648,30.7046713 16.8467702,30.7659582 16.9446782,30.805537 C17.3580557,30.9720751 17.6943961,30.7196916 17.9704182,30.4389121 C19.6044775,28.7907446 20.6513071,26.6656577 21.3678062,24.4809285 C21.6351957,23.6639163 21.8622637,22.8336381 22.0178676,21.9875722 C22.229419,20.8303575 22.3483073,19.5082493 22.1421103,18.2862394" id="Fill-1" fill="#009A8F"></path>
                    <path d="M33.8307269,5.37406987 C33.8307269,4.95503865 33.4609491,4.6789736 33.0626512,4.69289746 C32.6588897,4.70605385 32.2840854,4.91304782 31.9161653,5.05502726 C24.7335816,7.79561421 16.6354046,8.31638822 9.06665228,7.22046042 C7.77155588,7.03287214 6.4609428,6.77160804 5.15808805,6.56823209 C4.34455509,6.4401765 3.53910828,6.2543424 2.71595934,6.19294589 C2.01606967,6.1403203 1.14484088,6.11411715 0.579465517,6.60331581 C-0.169378192,7.24940449 -0.116053265,8.47590952 0.307705075,9.28601461 C0.816258792,10.2581626 1.70584534,10.9876848 2.63367723,11.5409113 C3.53462811,12.0791175 4.60680883,12.65164 5.67811537,12.5842135 C8.57033707,12.3982698 11.4573137,12.1194638 14.3321611,11.7442872 C19.2339021,11.1051056 24.3727642,10.502762 28.9785955,8.59519418 C30.4830578,7.97103282 31.968616,7.19327054 33.2599972,6.18592914 C33.4923103,6.01062016 33.8307269,5.71613616 33.8307269,5.37406987" id="Fill-3" fill="#009A8F"></path>
                    <path d="M13.2345964,2.90537081 C13.2345964,4.47021449 14.4989872,5.74057417 16.0612546,5.74057417 C17.6192604,5.74057417 18.8826678,4.47021449 18.8826678,2.90537081 C18.8826678,2.67305078 18.8304356,2.43711274 18.7307792,2.22507549 C18.4877574,1.71131822 18.2170897,1.46057924 18.2450634,0.843324991 C18.2816697,0.01140221 17.2173566,0 16.6441136,0 C16.0185291,0 15.3562292,0.0868322143 14.7924929,0.370791097 C14.3432741,0.597958203 13.9545922,0.946821974 13.6820668,1.37111575 C13.4040779,1.80768883 13.2458514,2.32067864 13.2345964,2.84057556 L13.2345964,2.90537081" id="Fill-6" fill="#EC1651"></path>
                </g>
            </g>
        </g>
    </g>
</svg>