<?xml version="1.0" encoding="UTF-8"?>
<svg width="80px" height="43px" viewBox="0 0 80 43" version="1.1" xmlns="http://www.w3.org/2000/svg" xmlns:xlink="http://www.w3.org/1999/xlink">
    <title>우체국_logo</title>
    <defs>
        <polygon id="path-1" points="0 0 31.8551205 0 31.8551205 10.7763557 0 10.7763557"></polygon>
        <polygon id="path-3" points="0 0 30.8601468 0 30.8601468 11.3163766 0 11.3163766"></polygon>
    </defs>
    <g id="Erns_html-(220816-개선)" stroke="none" stroke-width="1" fill="none" fill-rule="evenodd">
        <g id="은행-로고_이미지" transform="translate(-147.000000, -391.000000)">
            <g id="Group-11" transform="translate(147.000000, 391.000000)">
                <g id="Group-15" transform="translate(17.857143, 10.580823)">
                    <path d="M0.0650706938,10.9828422 C-0.0180404496,11.024071 -0.0220486465,11.0986917 0.0559933066,11.1482117 L7.17997401,15.6817883 L9.22120727,6.42984372 L0.0650706938,10.9828422 Z" id="Fill-1" fill="#ED3024"></path>
                    <path d="M40.6088566,6.42984372 L38.8784926,6.42984372 C38.7886845,6.42984372 38.6496121,6.46379269 38.5694303,6.50500832 L29.8957532,10.9858176 C29.8157979,11.0271468 29.8124003,11.1011759 29.8869196,11.1507937 L29.8869196,11.1512478 L36.6166412,15.5916362 C36.6919532,15.6409133 36.8266087,15.6817883 36.9169831,15.6817883 L38.6466676,15.6817883 C38.7362492,15.6817883 38.7484803,15.6413675 38.6745273,15.5920904 L31.8060731,11.0610957 L40.6267502,6.50500832 C40.7067055,6.46379269 40.6985514,6.42984372 40.6088566,6.42984372" id="Fill-3" fill="#F48120"></path>
                    <path d="M36.8116405,6.42984372 L24.7431011,6.42984372 L22.7818062,15.6817883 L34.8485316,15.6817883 C34.9383204,15.6817883 34.9501108,15.6413675 34.875627,15.5916362 L28.0116615,11.0610957 L36.8297796,6.50500832 C36.909932,6.46379269 36.9014292,6.42984372 36.8116405,6.42984372" id="Fill-5" fill="#ED3024"></path>
                    <path d="M44.4018808,6.42984372 L42.58547,6.42984372 C42.4905767,6.42984372 42.3449071,6.46379269 42.2610727,6.50500832 L33.1530958,10.9858176 C33.0697371,11.0271468 33.065813,11.1011759 33.1439394,11.1507937 C33.1444151,11.1507937 33.1444151,11.1507937 33.1444151,11.1512478 L40.2101637,15.5916362 C40.2887658,15.6409133 40.4309869,15.6817883 40.5250478,15.6817883 L42.3419342,15.6817883 C42.4359952,15.6817883 42.448719,15.6413675 42.3704736,15.5920904 L35.1588176,11.0610957 L44.420907,6.50500832 C44.5048603,6.46379269 44.4965363,6.42984372 44.4018808,6.42984372" id="Fill-7" fill="#FCB813"></path>
                    <g id="Group-11" transform="translate(4.436911, 0.000000)">
                        <mask id="mask-2" fill="white">
                            <use xlink:href="#path-1"></use>
                        </mask>
                        <g id="Clip-10"></g>
                        <path d="M31.780946,-1.14575165e-05 L3.03226044,-1.14575165e-05 C1.42775093,-1.14575165e-05 0.304777809,1.0087083 0.0398066219,2.25505695 C-0.105296647,2.93895612 0.154742176,3.5475794 0.682161014,3.96486215 L11.0117932,10.7763557 L11.0195932,10.7723456 L11.0210844,10.7763557 L31.7994137,0.0760664525 C31.8801668,0.0344756673 31.8723668,-1.14575165e-05 31.780946,-1.14575165e-05" id="Fill-9" fill="#ED3024" mask="url(#mask-2)"></path>
                    </g>
                    <g id="Group-14" transform="translate(1.096489, 10.351964)">
                        <mask id="mask-4" fill="white">
                            <use xlink:href="#path-3"></use>
                        </mask>
                        <g id="Clip-13"></g>
                        <path d="M30.8105983,11.220747 L30.8102548,11.220747 L14.637993,0 L14.6351302,0.00409033341 L14.6287175,0 L1.42208038,7.15423375 C0.719207416,7.58961365 0.201041863,8.22975083 0.0557264851,8.9494089 C-0.210742297,10.2555486 0.480564982,11.3163886 2.08361461,11.3163886 L30.7828865,11.3163886 C30.8741523,11.3163886 30.8860615,11.2733198 30.8105983,11.220747" id="Fill-12" fill="#ED3024" mask="url(#mask-4)"></path>
                    </g>
                </g>
            </g>
        </g>
    </g>
</svg>