<?xml version="1.0" encoding="UTF-8"?>
<svg width="80px" height="43px" viewBox="0 0 80 43" version="1.1" xmlns="http://www.w3.org/2000/svg" xmlns:xlink="http://www.w3.org/1999/xlink">
    <title>새마을금고_logo</title>
    <defs>
        <path d="M2.62204545,0.277512879 C2.92340909,0.931275758 3.09,1.65800833 3.09,2.42555833 L3.09,2.42555833 C3.09,3.47062121 2.77818182,4.44089015 2.245,5.25245 L2.245,5.25245 C2.72568182,5.08895227 3.24136364,4.99933636 3.77636364,4.99933636 L3.77636364,4.99933636 C6.39886364,4.99933636 8.52477273,7.13255985 8.52477273,9.76380152 L8.52477273,9.76380152 C8.52477273,12.3945871 6.39886364,14.5273545 3.77636364,14.5273545 L3.77636364,14.5273545 C2.23590909,14.5273545 0.867272727,13.7915008 0,12.6511212 L0,12.6511212 L0,19.3011689 C1.48,20.1321114 3.18568182,20.6068705 5.00272727,20.6068705 L5.00272727,20.6068705 C10.6725,20.6068705 15.2709091,15.9924492 15.2709091,10.3008129 L15.2709091,10.3008129 C15.2709091,4.61259697 10.6725,0 5.00272727,0 L5.00272727,0 C4.18272727,0 3.3875,0.0953166667 2.62204545,0.277512879" id="path-1"></path>
        <linearGradient x1="55.1405229%" y1="23.8051611%" x2="37.817161%" y2="139.774018%" id="linearGradient-3">
            <stop stop-color="#44C6F4" offset="0%"></stop>
            <stop stop-color="#0066B1" offset="100%"></stop>
        </linearGradient>
        <path d="M0,9.31389773 C0,15.0055341 4.59909091,19.6199553 10.2690909,19.6199553 L10.2690909,19.6199553 C12.0854545,19.6199553 13.7915909,19.1451962 15.2720455,18.3142538 L15.2720455,18.3142538 L15.2720455,11.6642061 C14.4040909,12.8045856 13.0361364,13.5404394 11.4945455,13.5404394 L11.4945455,13.5404394 C8.87204545,13.5404394 6.74613636,11.407672 6.74613636,8.77688636 L6.74613636,8.77688636 C6.74613636,7.8688697 7.00931818,7.02880606 7.44840909,6.30686212 L7.44840909,6.30686212 C5.75272727,3.5518 5.85363636,0.588318182 5.89340909,0 L5.89340909,0 C2.41272727,1.6502553 0,5.19635455 0,9.31389773" id="path-4"></path>
        <linearGradient x1="50.1618087%" y1="93.442643%" x2="49.6308917%" y2="-37.2556926%" id="linearGradient-6">
            <stop stop-color="#44C6F4" offset="0%"></stop>
            <stop stop-color="#0066B1" offset="100%"></stop>
        </linearGradient>
        <path d="M10.5768182,0 C4.73522727,0 0,4.75306364 0,10.6132144 L0,10.6132144 C0,12.4490864 0.465,14.1775561 1.28522727,15.682328 L1.28522727,15.682328 C2.15090909,14.741475 3.39272727,14.1515606 4.77090909,14.1515606 L4.77090909,14.1515606 C5.30659091,14.1515606 5.82227273,14.2411765 6.30386364,14.4046742 L6.30386364,14.4046742 C5.76886364,13.5931144 5.45772727,12.6228455 5.45772727,11.5777826 L5.45772727,11.5777826 C5.45772727,8.74108561 7.74909091,6.4414 10.5775,6.4414 L10.5775,6.4414 C12.3222727,6.4414 13.8525,7.32250909 14.7763636,8.65967879 L14.7763636,8.65967879 C15.2638636,8.52012424 17.9436364,7.84447045 20.9922727,8.81747576 L20.9922727,8.81747576 C20.1390909,3.81449091 15.8079545,0 10.5768182,0 Z" id="path-7"></path>
        <linearGradient x1="15.3502719%" y1="50.5564026%" x2="109.053338%" y2="46.2562388%" id="linearGradient-9">
            <stop stop-color="#44C6F4" offset="0%"></stop>
            <stop stop-color="#0066B1" offset="100%"></stop>
        </linearGradient>
    </defs>
    <g id="Erns_html-(220816-개선)" stroke="none" stroke-width="1" fill="none" fill-rule="evenodd">
        <g id="은행-로고_이미지" transform="translate(-22.000000, -483.000000)">
            <g id="Group-13" transform="translate(22.000000, 483.000000)">
                <g id="Group-10" transform="translate(22.857143, 6.678030)">
                    <g id="Group-3" transform="translate(19.330682, 9.152224)">
                        <mask id="mask-2" fill="white">
                            <use xlink:href="#path-1"></use>
                        </mask>
                        <g id="Clip-2"></g>
                        <path d="M2.62204545,0.277512879 C2.92340909,0.931275758 3.09,1.65800833 3.09,2.42555833 L3.09,2.42555833 C3.09,3.47062121 2.77818182,4.44089015 2.245,5.25245 L2.245,5.25245 C2.72568182,5.08895227 3.24136364,4.99933636 3.77636364,4.99933636 L3.77636364,4.99933636 C6.39886364,4.99933636 8.52477273,7.13255985 8.52477273,9.76380152 L8.52477273,9.76380152 C8.52477273,12.3945871 6.39886364,14.5273545 3.77636364,14.5273545 L3.77636364,14.5273545 C2.23590909,14.5273545 0.867272727,13.7915008 0,12.6511212 L0,12.6511212 L0,19.3011689 C1.48,20.1321114 3.18568182,20.6068705 5.00272727,20.6068705 L5.00272727,20.6068705 C10.6725,20.6068705 15.2709091,15.9924492 15.2709091,10.3008129 L15.2709091,10.3008129 C15.2709091,4.61259697 10.6725,0 5.00272727,0 L5.00272727,0 C4.18272727,0 3.3875,0.0953166667 2.62204545,0.277512879" id="Fill-1" fill="url(#linearGradient-3)" mask="url(#mask-2)"></path>
                    </g>
                    <g id="Group-6" transform="translate(0.000000, 10.139139)">
                        <mask id="mask-5" fill="white">
                            <use xlink:href="#path-4"></use>
                        </mask>
                        <g id="Clip-5"></g>
                        <path d="M0,9.31389773 C0,15.0055341 4.59909091,19.6199553 10.2690909,19.6199553 L10.2690909,19.6199553 C12.0854545,19.6199553 13.7915909,19.1451962 15.2720455,18.3142538 L15.2720455,18.3142538 L15.2720455,11.6642061 C14.4040909,12.8045856 13.0361364,13.5404394 11.4945455,13.5404394 L11.4945455,13.5404394 C8.87204545,13.5404394 6.74613636,11.407672 6.74613636,8.77688636 L6.74613636,8.77688636 C6.74613636,7.8688697 7.00931818,7.02880606 7.44840909,6.30686212 L7.44840909,6.30686212 C5.75272727,3.5518 5.85363636,0.588318182 5.89340909,0 L5.89340909,0 C2.41272727,1.6502553 0,5.19635455 0,9.31389773" id="Fill-4" fill="url(#linearGradient-6)" mask="url(#mask-5)"></path>
                    </g>
                    <g id="Group-9" transform="translate(6.723636, 0.000000)">
                        <mask id="mask-8" fill="white">
                            <use xlink:href="#path-7"></use>
                        </mask>
                        <g id="Clip-8"></g>
                        <path d="M10.5768182,0 C4.73522727,0 0,4.75306364 0,10.6132144 L0,10.6132144 C0,12.4490864 0.465,14.1775561 1.28522727,15.682328 L1.28522727,15.682328 C2.15090909,14.741475 3.39272727,14.1515606 4.77090909,14.1515606 L4.77090909,14.1515606 C5.30659091,14.1515606 5.82227273,14.2411765 6.30386364,14.4046742 L6.30386364,14.4046742 C5.76886364,13.5931144 5.45772727,12.6228455 5.45772727,11.5777826 L5.45772727,11.5777826 C5.45772727,8.74108561 7.74909091,6.4414 10.5775,6.4414 L10.5775,6.4414 C12.3222727,6.4414 13.8525,7.32250909 14.7763636,8.65967879 L14.7763636,8.65967879 C15.2638636,8.52012424 17.9436364,7.84447045 20.9922727,8.81747576 L20.9922727,8.81747576 C20.1390909,3.81449091 15.8079545,0 10.5768182,0 Z" id="Fill-7" fill="url(#linearGradient-9)" mask="url(#mask-8)"></path>
                    </g>
                </g>
            </g>
        </g>
    </g>
</svg>