<?xml version="1.0" encoding="UTF-8"?>
<svg width="80px" height="43px" viewBox="0 0 80 43" version="1.1" xmlns="http://www.w3.org/2000/svg" xmlns:xlink="http://www.w3.org/1999/xlink">
    <title>카카오뱅크_logo</title>
    <defs>
        <polygon id="path-1" points="0 0 22.3068293 0 22.3068293 30.049711 0 30.049711"></polygon>
    </defs>
    <g id="Erns_html-(220816-개선)" stroke="none" stroke-width="1" fill="none" fill-rule="evenodd">
        <g id="은행-로고_이미지" transform="translate(-272.000000, -391.000000)">
            <g id="Group-12" transform="translate(272.000000, 391.000000)">
                <g id="Group-3" transform="translate(28.571429, 6.450122)">
                    <mask id="mask-2" fill="white">
                        <use xlink:href="#path-1"></use>
                    </mask>
                    <g id="Clip-2"></g>
                    <path d="M9.35012195,21.8639793 L11.9185366,21.8639793 L11.9185366,8.18573171 L9.35012195,8.18573171 L9.35012195,21.8639793 Z M18.6308537,15.0247943 C20.8447561,13.56005 22.3069512,11.0455988 22.3069512,8.18524228 C22.3069512,3.66473618 18.6536585,0 14.1476829,0 L0.472682927,0 C0.211463415,0 0,0.212045935 0,0.473646748 L0,29.5742289 C0,29.837665 0.211463415,30.049711 0.472682927,30.049711 L14.1476829,30.049711 C18.6536585,30.049711 22.3069512,26.3854642 22.3069512,21.8639793 C22.3069512,19.0041122 20.8447561,16.487948 18.6308537,15.0247943 L18.6308537,15.0247943 Z" id="Fill-1" fill="#231F20" mask="url(#mask-2)"></path>
                </g>
            </g>
        </g>
    </g>
</svg>