<?xml version="1.0" encoding="UTF-8"?>
<svg width="80px" height="43px" viewBox="0 0 80 43" version="1.1" xmlns="http://www.w3.org/2000/svg" xmlns:xlink="http://www.w3.org/1999/xlink">
    <title>부산은행_logo</title>
    <defs>
        <polygon id="path-1" points="0 0 16.7659627 0 16.7659627 17.0857945 0 17.0857945"></polygon>
        <polygon id="path-3" points="0 0 16.5184783 0 16.5184783 17.0857135 0 17.0857135"></polygon>
        <polygon id="path-5" points="0 0 7.52437249 0 7.52437249 7.28392114 0 7.28392114"></polygon>
        <polygon id="path-7" points="0 0 3.78049689 0 3.78049689 12.3116104 0 12.3116104"></polygon>
        <polygon id="path-9" points="0 0 17.8479503 0 17.8479503 17.0857135 0 17.0857135"></polygon>
    </defs>
    <g id="Erns_html-(220816-개선)" stroke="none" stroke-width="1" fill="none" fill-rule="evenodd">
        <g id="은행-로고_이미지" transform="translate(-272.000000, -299.000000)">
            <g id="Group-9" transform="translate(272.000000, 299.000000)">
                <g id="Group-16" transform="translate(10.714286, 12.993721)">
                    <g id="Group-3" transform="translate(40.443404, 0.000000)">
                        <mask id="mask-2" fill="white">
                            <use xlink:href="#path-1"></use>
                        </mask>
                        <g id="Clip-2"></g>
                        <path d="M15.0654658,3.04922348 L16.5875155,3.04922348 C16.6868323,3.04922348 16.7659627,2.97469014 16.7659627,2.88152348 L16.7659627,0.170778551 C16.7659627,0.0768017391 16.6868323,-0.000162028986 16.5875155,-0.000162028986 L14.4493789,-0.000162028986 C11.977764,-0.000162028986 10.6656522,0.746791594 9.91795031,2.33467565 L5.26863354,13.0893496 C4.98602484,13.7309843 4.57906832,14.0355988 3.77807453,14.0355988 L3.77807453,0.170778551 C3.77807453,0.0768017391 3.69732919,-0.000162028986 3.59720497,-0.000162028986 L0.181677019,-0.000162028986 C0.0823602484,-0.000162028986 0,0.0768017391 0,0.170778551 L0,16.7860409 C0,16.9513104 0.143726708,17.0857945 0.319751553,17.0857945 L4.15031056,17.0857945 C6.62192547,17.0857945 7.75236025,16.3380307 8.50086957,14.7550075 L13.0896273,4.13400754 C13.4578261,3.38057275 13.9867081,3.04922348 15.0654658,3.04922348" id="Fill-1" fill="#D71921" mask="url(#mask-2)"></path>
                    </g>
                    <g id="Group-6">
                        <mask id="mask-4" fill="white">
                            <use xlink:href="#path-3"></use>
                        </mask>
                        <g id="Clip-5"></g>
                        <path d="M9.77301242,14.109241 L3.99487578,14.109241 L3.99487578,10.1030743 L9.77301242,10.1030743 C11.3297826,10.1030743 12.381087,11.0007149 12.381087,12.1057526 C12.381087,13.2132207 11.3297826,14.109241 9.77301242,14.109241 M13.7537578,8.54435551 C15.1231988,8.00722942 16.2609006,6.79525261 16.2609006,4.79500478 C16.2609006,1.81043087 13.5478571,-0.000243043478 10.2792857,-0.000243043478 L0.178850932,-0.000243043478 C0.0803416149,-0.000243043478 -0.000403726708,0.0767207246 -0.000403726708,0.170697536 L-0.000403726708,2.88225261 C-0.000403726708,2.97460913 0.0803416149,3.04914246 0.178850932,3.04914246 L9.5792236,3.04914246 C11.0980435,3.04914246 12.1227019,3.92571928 12.1227019,5.00321203 C12.1227019,6.08313522 11.0980435,6.95809174 9.5792236,6.95809174 L3.99487578,6.95809174 L3.99487578,4.94407145 C3.99487578,4.85090478 3.91413043,4.77475116 3.81562112,4.77475116 L0.178850932,4.77475116 C0.0803416149,4.77475116 -0.000403726708,4.85090478 -0.000403726708,4.94407145 L-0.000403726708,16.915583 C-0.000403726708,17.0095599 0.0803416149,17.0857135 0.178850932,17.0857135 L10.1339441,17.0857135 C13.8546894,17.0857135 16.5184783,15.4467903 16.5184783,12.1057526 C16.5184783,10.4652091 15.4930124,9.10659609 13.7537578,8.54435551" id="Fill-4" fill="#D71921" mask="url(#mask-4)"></path>
                    </g>
                    <g id="Group-9" transform="translate(51.553255, 9.802035)">
                        <mask id="mask-6" fill="white">
                            <use xlink:href="#path-5"></use>
                        </mask>
                        <g id="Clip-8"></g>
                        <path d="M7.49056454,7.08964839 L1.63491237,0.0138425889 C1.6171484,-0.00803132413 1.59292479,-0.00236030963 1.5824279,0.0195136034 L0.00466392321,3.66111505 C-0.00260315753,3.68460926 -0.00260315753,3.70972375 0.0135459108,3.72835708 L2.57478815,6.97217737 C2.75404281,7.19577737 2.95994343,7.28408317 3.26758318,7.28408317 L7.39367013,7.28408317 C7.51317324,7.28408317 7.56323535,7.1747136 7.49056454,7.08964839" id="Fill-7" fill="#D71921" mask="url(#mask-6)"></path>
                    </g>
                    <g id="Group-12" transform="translate(19.333907, 4.774346)">
                        <mask id="mask-8" fill="white">
                            <use xlink:href="#path-7"></use>
                        </mask>
                        <g id="Clip-11"></g>
                        <path d="M3.60043478,0 L0.179254658,0 C0.0799378882,0 0,0.0769637681 0,0.170130435 L0,12.1408319 C0,12.2356188 0.0799378882,12.3117725 0.179254658,12.3117725 L3.60043478,12.3117725 C3.69975155,12.3117725 3.78049689,12.2356188 3.78049689,12.1408319 L3.78049689,0.170130435 C3.78049689,0.0769637681 3.69975155,0 3.60043478,0" id="Fill-10" fill="#D71921" mask="url(#mask-8)"></path>
                    </g>
                    <g id="Group-15" transform="translate(19.333745, 0.000000)">
                        <mask id="mask-10" fill="white">
                            <use xlink:href="#path-9"></use>
                        </mask>
                        <g id="Clip-14"></g>
                        <path d="M17.6695031,-0.000243043478 L14.2507453,-0.000243043478 C14.152236,-0.000243043478 14.0722981,0.0767207246 14.0722981,0.170697536 L14.0722981,14.0355178 C13.2704969,14.0355178 12.8659627,13.7309033 12.5841615,13.0892686 L7.93242236,2.33459464 C7.1847205,0.74671058 5.87341615,-0.000243043478 3.40099379,-0.000243043478 L0.179254658,-0.000243043478 C0.0799378882,-0.000243043478 0,0.0767207246 0,0.170697536 L0,2.88225261 C0,2.97460913 0.0799378882,3.04914246 0.179254658,3.04914246 L2.78490683,3.04914246 C3.8636646,3.04914246 4.39173913,3.38049174 4.7615528,4.13473667 L9.35031056,14.7549265 C10.0988199,16.3379497 11.2276398,17.0857135 13.7000621,17.0857135 L17.532236,17.0857135 C17.7074534,17.0857135 17.8479503,16.9512294 17.8479503,16.7859599 L17.8479503,0.170697536 C17.8479503,0.0767207246 17.7680124,-0.000243043478 17.6695031,-0.000243043478" id="Fill-13" fill="#D71921" mask="url(#mask-10)"></path>
                    </g>
                </g>
            </g>
        </g>
    </g>
</svg>