<svg width="24" height="24" viewBox="0 0 24 24" fill="none" xmlns="http://www.w3.org/2000/svg">
<g clip-path="url(#clip0_766_162)">
<path fill-rule="evenodd" clip-rule="evenodd" d="M6 4C6 3.44772 6.44772 3 7 3H18C18.5523 3 19 3.44772 19 4V13.7782L21.6805 16.2672C21.8795 16.452 21.9948 16.7099 21.9998 16.9815C22.0049 17.2531 21.8992 17.515 21.7071 17.7071L17.2071 22.2071C16.8166 22.5976 16.1834 22.5976 15.7929 22.2071L13.5 19.9142L9.70711 23.7071C9.31658 24.0976 8.68342 24.0976 8.29289 23.7071L3.29289 18.7071C2.90237 18.3166 2.90237 17.6834 3.29289 17.2929L6 14.5858V4ZM8 12.5858L11.2628 9.32297L8 6.29321V12.5858ZM9.54654 5H15.5858L12.678 7.90779L9.54654 5ZM12.7294 10.6848L5.41421 18L9 21.5858L16.448 14.1378L12.7294 10.6848ZM17 11.9211L14.1446 9.26962L17 6.41421V11.9211ZM17.9146 15.4996L14.9142 18.5L16.5 20.0858L19.5591 17.0267L17.9146 15.4996Z" fill="#222222"/>
</g>
<defs>
<clipPath id="clip0_766_162">
<rect width="24" height="24" fill="white"/>
</clipPath>
</defs>
</svg>
