<svg width="32" height="32" viewBox="0 0 32 32" fill="none" xmlns="http://www.w3.org/2000/svg">
<g clip-path="url(#clip0_170_4097)">
<path d="M10 21H4C3.73478 21 3.48043 20.8946 3.29289 20.7071C3.10536 20.5196 3 20.2652 3 20V12C3 11.7348 3.10536 11.4804 3.29289 11.2929C3.48043 11.1054 3.73478 11 4 11H10L19 4V28L10 21Z" stroke="#222222" stroke-width="2" stroke-linecap="round" stroke-linejoin="round"/>
<path d="M10 11V21" stroke="#222222" stroke-width="2" stroke-linecap="round" stroke-linejoin="round"/>
<path d="M24 13.3562C24.6433 14.0867 24.9982 15.0266 24.9982 16C24.9982 16.9733 24.6433 17.9133 24 18.6437" stroke="#222222" stroke-width="2" stroke-linecap="round" stroke-linejoin="round"/>
<path d="M27.7087 10C29.1846 11.6501 30.0005 13.7862 30.0005 16C30.0005 18.2138 29.1846 20.3499 27.7087 22" stroke="#222222" stroke-width="2" stroke-linecap="round" stroke-linejoin="round"/>
</g>
<defs>
<clipPath id="clip0_170_4097">
<rect width="32" height="32" fill="white"/>
</clipPath>
</defs>
</svg>
