<svg width="16" height="16" viewBox="0 0 16 16" fill="none" xmlns="http://www.w3.org/2000/svg">
<g clip-path="url(#clip0_81_2042)">
<path d="M8.90057 2.51375L14.3668 12.0056C14.7499 12.6744 14.2549 13.5 13.4662 13.5H2.53369C1.74494 13.5 1.24994 12.6744 1.63307 12.0056L7.09932 2.51375C7.49307 1.82875 8.50682 1.82875 8.90057 2.51375Z" fill="#FDB813" stroke="#FDB813" stroke-width="1.5" stroke-linecap="round" stroke-linejoin="round"/>
<path d="M8 9V6.5" stroke="white" stroke-width="1.5" stroke-linecap="round" stroke-linejoin="round"/>
<mask id="path-3-inside-1_81_2042" fill="white">
<path d="M8 12C8.41421 12 8.75 11.6642 8.75 11.25C8.75 10.8358 8.41421 10.5 8 10.5C7.58579 10.5 7.25 10.8358 7.25 11.25C7.25 11.6642 7.58579 12 8 12Z"/>
</mask>
<path d="M8 12C8.41421 12 8.75 11.6642 8.75 11.25C8.75 10.8358 8.41421 10.5 8 10.5C7.58579 10.5 7.25 10.8358 7.25 11.25C7.25 11.6642 7.58579 12 8 12Z" fill="white"/>
<path d="M7.25 11.25C7.25 10.8358 7.58579 10.5 8 10.5V13.5C9.24264 13.5 10.25 12.4926 10.25 11.25H7.25ZM8 10.5C8.41421 10.5 8.75 10.8358 8.75 11.25H5.75C5.75 12.4926 6.75736 13.5 8 13.5V10.5ZM8.75 11.25C8.75 11.6642 8.41421 12 8 12V9C6.75736 9 5.75 10.0074 5.75 11.25H8.75ZM8 12C7.58579 12 7.25 11.6642 7.25 11.25H10.25C10.25 10.0074 9.24264 9 8 9V12Z" fill="white" mask="url(#path-3-inside-1_81_2042)"/>
</g>
<defs>
<clipPath id="clip0_81_2042">
<rect width="16" height="16" fill="white"/>
</clipPath>
</defs>
</svg>
