<?xml version="1.0" encoding="utf-8"?>
<!-- Generator: Adobe Illustrator 28.0.0, SVG Export Plug-In . SVG Version: 6.00 Build 0)  -->
<svg version="1.1" id="레이어_1" xmlns="http://www.w3.org/2000/svg" xmlns:xlink="http://www.w3.org/1999/xlink" x="0px"
	 y="0px" viewBox="0 0 40 50" style="enable-background:new 0 0 40 50;" xml:space="preserve">
<style type="text/css">
	.st0{fill:#F5C3CA;}
	.st1{fill:#FFFFFF;}
	.st2{fill:#FFFFFF;filter:url(#Adobe_OpacityMaskFilter);}
	.st3{mask:url(#mask0_816_26713_00000146481248177401536210000000238078779289670802_);}
	.st4{fill:#FFDADF;}
</style>
<rect x="17" y="36" class="st0" width="6" height="5"/>
<path class="st1" d="M8,45c0-3.3,2.7-6,6-6h12c3.3,0,6,2.7,6,6v8H8V45z"/>
<path class="st1" d="M20,0c2.2,0,4,1.8,4,4c0,1.9-1.3,3.4-3,3.9V10h5c4.8,0,8.9,3.4,9.8,8c0.1,0,0.1,0,0.2,0h1c1.7,0,3,1.3,3,3v4
	c0,1.7-1.3,3-3,3h-1c-0.1,0-0.1,0-0.2,0c-0.9,4.6-5,8-9.8,8H14c-4.8,0-8.9-3.4-9.8-8c-0.1,0-0.1,0-0.2,0H3c-1.7,0-3-1.3-3-3v-4
	c0-1.7,1.3-3,3-3h1c0.1,0,0.1,0,0.2,0c0.9-4.6,5-8,9.8-8h5V7.9c-1.7-0.4-3-2-3-3.9C16,1.8,17.8,0,20,0z M15,16c-3.3,0-6,2.7-6,6v2
	c0,3.3,2.7,6,6,6h10c3.3,0,6-2.7,6-6v-2c0-3.3-2.7-6-6-6H15z M16,21c0.6,0,1,0.4,1,1v2c0,0.6-0.4,1-1,1c-0.6,0-1-0.4-1-1v-2
	C15,21.4,15.4,21,16,21z M24,21c0.6,0,1,0.4,1,1v2c0,0.6-0.4,1-1,1s-1-0.4-1-1v-2C23,21.4,23.4,21,24,21z M20,2c-1.1,0-2,0.9-2,2
	s0.9,2,2,2s2-0.9,2-2S21.1,2,20,2z"/>
<defs>
	<filter id="Adobe_OpacityMaskFilter" filterUnits="userSpaceOnUse" x="23" y="10" width="18" height="26">
		<feColorMatrix  type="matrix" values="1 0 0 0 0  0 1 0 0 0  0 0 1 0 0  0 0 0 1 0"/>
	</filter>
</defs>
<mask maskUnits="userSpaceOnUse" x="23" y="10" width="18" height="26" id="mask0_816_26713_00000146481248177401536210000000238078779289670802_">
	<path class="st2" d="M26,10c4.8,0,8.9,3.4,9.8,8c0.1,0,0.1,0,0.2,0h1c1.7,0,3,1.3,3,3v4c0,1.7-1.3,3-3,3h-1c-0.1,0-0.1,0-0.2,0
		c-0.9,4.6-5,8-9.8,8H14c-4.8,0-8.9-3.4-9.8-8c-0.1,0-0.1,0-0.2,0H3c-1.7,0-3-1.3-3-3v-4c0-1.7,1.3-3,3-3h1c0.1,0,0.1,0,0.2,0
		c0.9-4.6,5-8,9.8-8H26z M15,16c-3.3,0-6,2.7-6,6v2c0,3.3,2.7,6,6,6h10c3.3,0,6-2.7,6-6v-2c0-3.3-2.7-6-6-6H15z"/>
</mask>
<g class="st3">
	<path class="st4" d="M41,36H23c8.6-3.1,11.3-8.6,11.3-13c0-6.8-7-12.4-11.3-13h18V36z"/>
</g>
</svg>
