<svg width="250" height="148" viewBox="0 0 250 148" fill="none" xmlns="http://www.w3.org/2000/svg">
<g clip-path="url(#clip0_1099_9373)">
<path d="M16.8126 147.244C16.8126 147.244 -0.412442 132.878 0.00755772 107.843C0.274558 91.8473 3.83356 58.0808 41.1416 50.1882C76.1316 42.7832 66.8276 -4.3087 118.42 0.319307C138.777 2.14528 147.81 20.2679 163.543 15.4407C230.03 -4.9624 244.626 37.4655 249.63 78.651C251.477 93.8464 246.491 141.13 232.694 147.604L16.8116 147.245L16.8126 147.244Z" fill="#FFEFF2"/>
<path d="M220.955 43.6751L199.899 31.8283L179.398 39.4385L151.158 22.4531L144.171 9.31292L144.652 9.05664L151.568 22.0637L179.454 38.8358L199.946 31.2286L200.056 31.2907L221.221 43.1996L220.955 43.6751Z" fill="white"/>
<path d="M172.132 39.1372C172.132 35.6464 174.959 32.8174 178.445 32.8174C181.931 32.8174 184.758 35.6474 184.758 39.1372C184.758 42.627 181.932 45.457 178.445 45.457C174.958 45.457 172.132 42.627 172.132 39.1372Z" fill="#FB7369"/>
<path d="M175.787 61.9622C175.787 61.9622 176.658 58.9619 176.713 57.5274C176.767 56.0928 176.205 53.9285 177.131 52.9474C178.057 51.9664 179.037 48.8029 179.582 49.1303C180.127 49.4576 179.146 52.8383 179.582 52.8924C180.018 52.9464 182.546 51.638 183.007 51.1655C183.467 50.693 185.103 46.6396 185.539 47.003C185.975 47.3664 186.225 50.8512 185.537 52.9464C185.116 54.2308 182.124 57.2361 181.543 57.9268C180.962 58.6176 180.308 61.817 180.308 61.817L175.787 61.9622Z" fill="#FC9490"/>
<path d="M201.073 46.5792C208.755 45.9428 214.468 39.1923 213.832 31.5014C213.197 23.8106 206.453 18.0918 198.771 18.7281C191.088 19.3645 185.376 26.115 186.011 33.8059C186.647 41.4967 193.39 47.2155 201.073 46.5792Z" fill="white"/>
<path d="M215.641 43.4378C215.641 40.4265 218.08 37.9849 221.088 37.9849C224.096 37.9849 226.535 40.4265 226.535 43.4378C226.535 46.449 224.096 48.8907 221.088 48.8907C218.08 48.8907 215.641 46.449 215.641 43.4378Z" fill="white"/>
<path d="M144.294 147.603H94.2588L132.846 66.1436L142.538 94.9217L147.072 121.988L144.294 147.603Z" fill="#FF5F7D"/>
<path d="M105.223 69.1688L113.238 67.0866L121.023 64.3246C121.023 64.3246 129.627 65.5419 132.847 66.1426C136.352 66.7963 141 66.3868 144.758 69.9957C148.516 73.6046 150.786 71.8858 167.171 76.0212C169.255 76.5468 173.544 59.8438 173.544 59.8438L178.446 60.8338C178.446 60.8338 177.052 82.237 175.788 84.6906C174.524 87.1443 143.968 87.3074 143.968 88.1253C143.968 88.9432 134.818 147.203 134.818 147.203H90.6436L105.225 69.1678L105.223 69.1688Z" fill="white"/>
<path d="M126.829 70.7137C122.969 71.8509 117.118 71.5656 112.631 69.17C114.116 64.4279 114.564 60.7519 114.626 58.3934C114.631 58.2672 114.632 58.1461 114.633 58.029C114.647 56.8086 114.552 55.9898 114.458 55.6194L124.621 54.6733C124.621 54.6733 127.518 55.6864 127.599 56.5654C127.643 57.0359 127.688 57.4844 127.737 57.9138C127.866 59.0821 128.008 60.0992 128.15 60.9701C128.608 63.8072 129.06 65.1216 129.06 65.1216C129.06 65.1216 130.725 69.5644 126.828 70.7127L126.829 70.7137Z" fill="#FC9490"/>
<path d="M128.151 60.9707C120.589 63.1771 115.729 59.38 114.626 58.3929C114.469 58.2518 114.388 58.1667 114.388 58.1667C114.466 58.1187 114.547 58.0736 114.634 58.0286C117.392 56.6 123.983 56.9184 127.739 57.9134C127.868 59.0817 128.01 60.0988 128.152 60.9697L128.151 60.9707Z" fill="#F48484"/>
<path d="M111.382 55.2428C114.814 61.9911 123.948 59.0349 127.793 57.4101C128.876 56.9546 129.537 56.6032 129.537 56.6032C130.699 55.8925 130.816 53.6941 130.374 50.9912C129.501 45.6404 126.446 38.3105 125.005 36.6317C122.835 34.1049 119.437 31.6823 110.84 36.6977C102.242 41.7152 106.981 46.5984 111.381 55.2438L111.382 55.2428Z" fill="#FC9490"/>
<path d="M123.423 30.4808C119.937 28.4866 117.014 28.3024 114.926 28.5177C108.746 29.1554 104.321 32.8374 104.297 32.8584C97.7105 38.4284 97.4445 44.8113 104.123 52.6568C111.185 60.9527 114.909 58.6833 114.909 58.6833C114.909 58.6833 113.895 58.403 113.094 55.4027C113.048 55.2326 113.012 55.0884 112.984 54.9653C112.843 54.3436 112.448 53.796 111.872 53.5237C110.684 52.9621 109.476 50.5565 110.054 49.6165C110.752 48.4823 112.393 49.124 113.055 49.7957C113.593 50.2482 114.318 50.2482 114.824 49.6715C116.74 47.4842 114.331 44.9534 116.044 42.4638C117.757 39.9731 129.724 39.6077 129.724 32.8464C129.724 32.8464 126.661 32.3348 123.424 30.4838L123.423 30.4808Z" fill="#FF385C"/>
<path d="M118.954 43.8926C120.519 42.7694 122.545 43.2359 123.479 44.9368C124.413 46.6366 123.902 48.9261 122.336 50.0493C120.771 51.1725 118.745 50.706 117.811 49.0052C116.877 47.3053 117.388 45.0159 118.954 43.8926Z" fill="white"/>
<path d="M125.363 41.764C126.049 40.3275 127.669 39.913 128.981 40.837C130.293 41.761 130.8 43.6751 130.114 45.1106C129.428 46.5472 127.808 46.9616 126.496 46.0376C125.184 45.1136 124.677 43.1996 125.363 41.764Z" fill="white"/>
<path d="M123.063 45.457C123.026 45.457 122.988 45.446 122.954 45.424C122.863 45.3639 122.838 45.2408 122.899 45.1507C122.938 45.0916 123.876 43.7001 125.407 43.571C125.515 43.562 125.611 43.6421 125.62 43.7512C125.629 43.8603 125.549 43.9554 125.44 43.9644C124.097 44.0776 123.236 45.3559 123.228 45.3689C123.19 45.426 123.127 45.457 123.063 45.457Z" fill="#FF385C"/>
<path d="M129.189 65.5401C129.189 65.5401 142.66 92.9737 144.294 112.961C145.928 132.949 144.294 147.604 144.294 147.604C144.294 147.604 154.752 118.881 149.523 93.3632C149.523 93.3632 148.461 89.8464 150.277 89.5551C152.093 89.2637 174.389 89.4099 176.641 86.8651C178.892 84.3204 183.008 63.7852 183.008 63.7852C183.008 63.7852 181.123 58.9279 173.544 59.8459C173.544 59.8459 167.636 75.0143 166.837 75.0864C166.038 75.1595 149.043 70.7968 147.155 69.4153C145.267 68.0338 140.811 65.468 129.19 65.5401H129.189Z" fill="#FFC4CF"/>
<path d="M116.171 101.318C116.131 104.275 116.016 107.365 115.806 110.562C115.07 121.793 113.157 134.358 109.163 147.205H68.1494C68.1494 147.205 73.2314 134.837 79.3704 121.395C80.4454 119.041 81.5534 116.653 82.6714 114.294C87.2084 104.723 91.9234 95.6102 95.3714 91.0083C104.522 78.7941 113.238 67.0874 113.238 67.0874C113.238 67.0874 116.444 81.0986 116.171 101.318Z" fill="#FFC4CF"/>
<path d="M104.914 119.861C104.914 119.861 96.4911 123.205 79.3701 121.395C80.4451 119.041 81.5531 116.653 82.6711 114.294L104.914 119.861Z" fill="#FF5F7D"/>
<path d="M157.126 81.232L112.978 124.147C112.113 124.988 110.717 124.968 109.877 124.101L107.203 121.345C106.363 120.479 106.383 119.082 107.249 118.241L151.397 75.3257C152.262 74.4848 153.658 74.5048 154.498 75.3717L157.172 78.1277C158.012 78.9936 157.992 80.3911 157.126 81.232Z" fill="#FB7369"/>
<path d="M157.126 81.2316L152.238 85.9827C148.383 82.9695 142.135 84.3279 142.135 84.3279L151.397 75.3242C152.262 74.4833 153.658 74.5033 154.498 75.3703L157.172 78.1262C158.012 78.9922 157.992 80.3897 157.126 81.2306V81.2316Z" fill="#F2564B"/>
<path d="M132.35 105.316L112.977 124.148C112.112 124.989 110.716 124.969 109.876 124.102L107.202 121.346C106.362 120.48 106.382 119.083 107.248 118.242L126.621 99.4097L132.35 105.316Z" fill="#F2564B"/>
<path d="M204.159 31.7533C203.988 31.5651 203.811 31.3809 203.634 31.1967C190.123 17.2687 167.892 16.9403 153.979 30.4649C144.62 39.5608 141.408 52.6089 144.42 64.4146C145.883 70.1628 148.824 75.6147 153.248 80.1757C166.758 94.1037 188.993 94.4311 202.906 80.9065C216.637 67.559 217.135 45.7124 204.16 31.7543L204.159 31.7533ZM199.505 77.4007C195.095 81.6883 189.714 84.3572 184.096 85.4233C174.45 87.2523 164.099 84.3502 156.749 76.772C151.39 71.249 148.561 64.2054 148.239 57.0757C147.857 48.7247 150.916 40.2545 157.379 33.9707C164.948 26.6118 175.377 24.015 184.964 26.1292C186.616 26.4936 188.244 26.9952 189.831 27.6389C193.598 29.1715 197.118 31.492 200.133 34.5984C211.766 46.5924 211.484 65.7541 199.505 77.3997V77.4007Z" fill="#FB7369"/>
<g opacity="0.5">
<path d="M199.505 77.4009C195.094 81.6885 189.715 84.3574 184.097 85.4246C174.451 87.2535 164.101 84.3514 156.75 76.7732C145.117 64.7802 145.399 45.6185 157.38 33.9719C164.949 26.614 175.378 24.0172 184.965 26.1295C190.552 27.3588 195.852 30.1868 200.134 34.6006C211.767 46.5936 211.485 65.7563 199.506 77.4009H199.505Z" fill="#FFC3CE"/>
<path d="M199.504 77.4008C195.093 81.6885 189.714 84.3573 184.096 85.4245C178.513 84.1932 173.213 81.3661 168.931 76.9523C157.298 64.9594 157.578 45.7957 169.558 34.1511C173.967 29.8654 179.346 27.1945 184.964 26.1294C190.551 27.3587 195.851 30.1868 200.133 34.6006C211.766 46.5935 211.484 65.7562 199.505 77.4008H199.504Z" fill="#FFE9ED"/>
<path d="M192.93 35.5197C204.369 47.3125 204.217 66.0347 192.591 77.3359C190.831 79.0468 188.909 80.4883 186.875 81.6646C190.337 80.3692 193.593 78.354 196.415 75.6111C207.339 64.9926 207.595 47.5197 196.988 36.5839C193.166 32.6436 188.455 30.0918 183.479 28.9336C186.923 30.4492 190.142 32.6456 192.93 35.5197Z" fill="#F3F8FF"/>
</g>
<path d="M152.089 25.3409C153.786 24.9399 154.837 23.2378 154.437 21.539C154.036 19.8402 152.336 18.7881 150.639 19.1891C148.942 19.59 147.891 21.2922 148.292 22.9909C148.692 24.6897 150.392 25.7418 152.089 25.3409Z" fill="#FF9BAD"/>
<path d="M116.171 101.318C116.131 104.275 116.016 107.365 115.806 110.562C110.287 110.263 90.5489 109.175 90.6429 108.894C90.7519 108.566 92.4689 101.041 92.4689 101.041C92.4689 101.041 109.062 105.076 116.14 101.041L116.172 101.318H116.171Z" fill="#FF5F7D"/>
<path d="M108.444 110.202C108.444 110.202 114.327 106.706 117.05 106.872C119.774 107.039 124.131 107.912 124.785 110.202C125.439 112.493 123.805 111.374 120.155 112.087C118.003 112.508 116.685 115.601 113.891 115.873C112.801 115.979 108.444 115.11 108.444 115.11V110.203V110.202Z" fill="#FC9490"/>
<path d="M113.238 67.0874C113.238 67.0874 98.1813 68.8694 94.2593 72.5774C87.6273 78.8481 70.1833 102.561 71.9073 112.96C73.0513 119.861 104.914 119.861 104.914 119.861C104.914 119.861 108.848 117.309 110.296 115.001C113.238 110.312 112.221 106.873 112.221 106.873L92.5133 100.169C92.5133 100.169 102.125 90.8391 109.533 90.3536C114.952 89.9982 113.238 67.0864 113.238 67.0864V67.0874Z" fill="#FFC4CF"/>
<path d="M138.862 9.18491C138.862 6.1166 141.347 3.62891 144.412 3.62891C147.477 3.62891 149.962 6.1166 149.962 9.18491C149.962 12.2532 147.477 14.7409 144.412 14.7409C141.347 14.7409 138.862 12.2532 138.862 9.18491Z" fill="#FF385C"/>
<path d="M205.56 137.527C202.79 137.527 200.537 135.271 200.537 132.498C200.537 129.725 202.79 127.47 205.56 127.47C208.33 127.47 210.583 129.725 210.583 132.498C210.583 135.271 208.33 137.527 205.56 137.527ZM205.56 128.124C203.151 128.124 201.191 130.087 201.191 132.498C201.191 134.91 203.151 136.872 205.56 136.872C207.969 136.872 209.929 134.91 209.929 132.498C209.929 130.087 207.969 128.124 205.56 128.124Z" fill="white"/>
<path d="M3.63412 147.205H248.788C248.796 147.205 248.802 147.211 248.802 147.219V147.987C248.802 147.995 248.796 148.001 248.788 148.001H3.63412C3.62612 148.001 3.62012 147.995 3.62012 147.987V147.219C3.62012 147.212 3.62612 147.205 3.63412 147.205Z" fill="#FF385C"/>
<path d="M194.314 103.525C194.314 102.455 195.181 101.587 196.25 101.587C197.319 101.587 198.186 102.455 198.186 103.525C198.186 104.595 197.319 105.463 196.25 105.463C195.181 105.463 194.314 104.595 194.314 103.525Z" fill="white"/>
<path d="M205.561 103.307C205.561 102.115 206.525 101.15 207.715 101.15C208.905 101.15 209.869 102.115 209.869 103.307C209.869 104.498 208.905 105.463 207.715 105.463C206.525 105.463 205.561 104.498 205.561 103.307Z" fill="white"/>
<path d="M209.236 113.135C209.236 112.119 210.059 111.295 211.075 111.295C212.091 111.295 212.913 112.119 212.913 113.135C212.913 114.151 212.09 114.975 211.075 114.975C210.06 114.975 209.236 114.151 209.236 113.135Z" fill="white"/>
<path d="M218.896 115.821C218.896 114.805 219.719 113.981 220.735 113.981C221.751 113.981 222.573 114.805 222.573 115.821C222.573 116.838 221.75 117.661 220.735 117.661C219.72 117.661 218.896 116.838 218.896 115.821Z" fill="white"/>
<path d="M220.69 115.979L210.948 113.271L207.597 103.473L196.253 103.689L196.247 103.362L207.829 103.142L211.202 113.001L220.778 115.664L220.69 115.979Z" fill="white"/>
<path d="M86.8695 35.7115C88.2675 35.5744 89.5115 36.5985 89.6475 37.998C89.7845 39.3975 88.7615 40.6419 87.3635 40.779C85.9655 40.9162 84.7225 39.8921 84.5855 38.4925C84.4485 37.093 85.4715 35.8477 86.8695 35.7115Z" fill="white"/>
<path d="M88.5898 50.4004C90.1448 50.2482 91.5288 51.3874 91.6808 52.9441C91.8328 54.5008 90.6958 55.8863 89.1398 56.0384C87.5848 56.1906 86.2008 55.0514 86.0488 53.4947C85.8968 51.938 87.0348 50.5525 88.5898 50.4004Z" fill="white"/>
<path d="M76.2256 56.4668C77.5526 56.3366 78.7336 57.3087 78.8636 58.6371C78.9936 59.9655 78.0226 61.1478 76.6946 61.278C75.3676 61.4081 74.1866 60.4361 74.0566 59.1066C73.9266 57.7782 74.8976 56.5959 76.2256 56.4658V56.4668Z" fill="white"/>
<path d="M73.9512 69.4511C75.2782 69.321 76.4592 70.293 76.5892 71.6225C76.7192 72.9509 75.7482 74.1332 74.4202 74.2633C73.0932 74.3935 71.9122 73.4214 71.7822 72.093C71.6522 70.7646 72.6232 69.5823 73.9512 69.4521V69.4511Z" fill="white"/>
<path d="M73.9746 71.8195L76.2686 58.7244L88.6346 53.0883L86.9036 38.2693L87.3306 38.2202L89.0976 53.3496L76.6526 59.0217L74.3976 71.8936L73.9746 71.8195Z" fill="white"/>
<path d="M178.442 135.09C184.138 135.09 188.755 130.468 188.755 124.766C188.755 119.064 184.138 114.442 178.442 114.442C172.746 114.442 168.129 119.064 168.129 124.766C168.129 130.468 172.746 135.09 178.442 135.09Z" fill="#FF9BAD"/>
<path d="M57.4593 119.991L26.3213 98.0502L47.1523 74.4917L47.6413 74.9252L27.2953 97.936L57.8353 119.455L57.4593 119.991Z" fill="white"/>
<path d="M64.9379 80.9716C66.9236 71.5551 60.9079 62.3101 51.5016 60.3223C42.0953 58.3345 32.8603 64.3567 30.8746 73.7732C28.889 83.1897 34.9046 92.4347 44.3109 94.4225C53.7173 96.4103 62.9523 90.3881 64.9379 80.9716Z" fill="#FF9BAD"/>
<path d="M44.629 114.459C53.7126 105.365 53.7126 90.622 44.629 81.5285C35.5454 72.4351 20.818 72.4351 11.7344 81.5286C2.65082 90.622 2.65082 105.365 11.7344 114.459C20.818 123.552 35.5454 123.552 44.629 114.459Z" fill="white"/>
<path d="M54.374 119.722C54.374 117.912 55.839 116.446 57.647 116.446C59.455 116.446 60.92 117.912 60.92 119.722C60.92 121.532 59.455 122.999 57.647 122.999C55.839 122.999 54.374 121.532 54.374 119.722Z" fill="#FF385C"/>
<path d="M231.329 77.704L220.941 87.4009L221.239 87.7201L231.626 78.0232L231.329 77.704Z" fill="white"/>
<path d="M228.092 77.851C228.092 75.9819 229.606 74.4663 231.473 74.4663C233.34 74.4663 234.854 75.9819 234.854 77.851C234.854 79.72 233.34 81.2356 231.473 81.2356C229.606 81.2356 228.092 79.72 228.092 77.851Z" fill="white"/>
<path d="M215.742 87.5495C215.742 84.5953 218.135 82.1997 221.086 82.1997C224.037 82.1997 226.43 84.5953 226.43 87.5495C226.43 90.5037 224.037 92.8993 221.086 92.8993C218.135 92.8993 215.742 90.5037 215.742 87.5495Z" fill="#FF5F7D"/>
</g>
<defs>
<clipPath id="clip0_1099_9373">
<rect width="250" height="148" fill="white"/>
</clipPath>
</defs>
</svg>
