<svg width="18" height="18" viewBox="0 0 18 18" fill="none" xmlns="http://www.w3.org/2000/svg">
<g clip-path="url(#clip0_848_18927)">
<path d="M14.625 3.9375H12.6759L11.7176 2.50031C11.6662 2.42336 11.5967 2.36025 11.5151 2.31659C11.4336 2.27293 11.3425 2.25006 11.25 2.25H6.75C6.65749 2.25006 6.56642 2.27293 6.48486 2.31659C6.4033 2.36025 6.33377 2.42336 6.28242 2.50031L5.32336 3.9375H3.375C2.92745 3.9375 2.49822 4.11529 2.18176 4.43176C1.86529 4.74822 1.6875 5.17745 1.6875 5.625V13.5C1.6875 13.9476 1.86529 14.3768 2.18176 14.6932C2.49822 15.0097 2.92745 15.1875 3.375 15.1875H14.625C15.0726 15.1875 15.5018 15.0097 15.8182 14.6932C16.1347 14.3768 16.3125 13.9476 16.3125 13.5V5.625C16.3125 5.17745 16.1347 4.74822 15.8182 4.43176C15.5018 4.11529 15.0726 3.9375 14.625 3.9375ZM11.5312 9.28125C11.5312 9.78188 11.3828 10.2713 11.1047 10.6875C10.8265 11.1038 10.4312 11.4282 9.96867 11.6198C9.50614 11.8114 8.99719 11.8615 8.50618 11.7639C8.01516 11.6662 7.56414 11.4251 7.21014 11.0711C6.85613 10.7171 6.61506 10.2661 6.51739 9.77507C6.41972 9.28406 6.46985 8.77511 6.66143 8.31258C6.85301 7.85006 7.17745 7.45473 7.59371 7.17659C8.00997 6.89846 8.49937 6.75 9 6.75C9.67133 6.75 10.3152 7.01668 10.7899 7.49139C11.2646 7.96609 11.5312 8.60992 11.5312 9.28125Z" fill="#666666"/>
</g>
<defs>
<clipPath id="clip0_848_18927">
<rect width="18" height="18" fill="white"/>
</clipPath>
</defs>
</svg>
