<svg width="18" height="18" viewBox="0 0 18 18" fill="none" xmlns="http://www.w3.org/2000/svg">
<path d="M9.5625 2.25C8.11623 2.25 6.70243 2.67887 5.4999 3.48238C4.29736 4.28589 3.3601 5.42794 2.80663 6.76413C2.25317 8.10031 2.10836 9.57061 2.39051 10.9891C2.67267 12.4076 3.36911 13.7105 4.39178 14.7332C5.41446 15.7559 6.71742 16.4523 8.13591 16.7345C9.55439 17.0166 11.0247 16.8718 12.3609 16.3184C13.6971 15.7649 14.8391 14.8276 15.6426 13.6251C16.4461 12.4226 16.875 11.0088 16.875 9.5625C16.8713 7.62425 16.0997 5.76644 14.7291 4.39589C13.3586 3.02533 11.5008 2.25372 9.5625 2.25V2.25ZM12.2133 11.4117C12.3189 11.5184 12.3782 11.6624 12.3782 11.8125C12.3782 11.9626 12.3189 12.1066 12.2133 12.2133C12.1058 12.3172 11.9621 12.3754 11.8125 12.3754C11.6629 12.3754 11.5192 12.3172 11.4117 12.2133L9.5625 10.357L7.71328 12.2133C7.60577 12.3172 7.46206 12.3754 7.3125 12.3754C7.16294 12.3754 7.01924 12.3172 6.91172 12.2133C6.8061 12.1066 6.74684 11.9626 6.74684 11.8125C6.74684 11.6624 6.8061 11.5184 6.91172 11.4117L8.76797 9.5625L6.91172 7.71328C6.82202 7.60399 6.77618 7.46524 6.78312 7.32402C6.79006 7.18281 6.84927 7.04922 6.94925 6.94924C7.04922 6.84927 7.18281 6.79005 7.32403 6.78312C7.46525 6.77618 7.60399 6.82202 7.71328 6.91172L9.5625 8.76797L11.4117 6.91172C11.521 6.82202 11.6598 6.77618 11.801 6.78312C11.9422 6.79005 12.0758 6.84927 12.1758 6.94924C12.2757 7.04922 12.335 7.18281 12.3419 7.32402C12.3488 7.46524 12.303 7.60399 12.2133 7.71328L10.357 9.5625L12.2133 11.4117Z" fill="#FE3040"/>
</svg>
