<svg width="42" height="43" viewBox="0 0 42 43" fill="none" xmlns="http://www.w3.org/2000/svg">
<rect y="28.9167" width="42" height="9" rx="4.5" fill="#F0F0F0"/>
<path d="M4.33331 28.8334V18.8334H14L17.5 23.8334H24L28 18.8334H37.6666V28.8334C37.6666 29.7174 37.3155 30.5653 36.6903 31.1904C36.0652 31.8155 35.2174 32.1667 34.3333 32.1667H7.66665C6.78259 32.1667 5.93474 31.8155 5.30962 31.1904C4.6845 30.5653 4.33331 29.7174 4.33331 28.8334Z" fill="white"/>
<path d="M37.6666 18.8334H27.6666L24.3333 23.8334H17.6666L14.3333 18.8334H4.33331" stroke="#AAAAAA" stroke-width="1.5" stroke-linecap="round" stroke-linejoin="round"/>
<path d="M10.0833 7.35L4.33331 18.8333V28.8333C4.33331 29.7174 4.6845 30.5652 5.30962 31.1904C5.93474 31.8155 6.78259 32.1667 7.66665 32.1667H34.3333C35.2174 32.1667 36.0652 31.8155 36.6903 31.1904C37.3155 30.5652 37.6666 29.7174 37.6666 28.8333V18.8333L31.9166 7.35C31.6407 6.79465 31.2153 6.32728 30.6882 6.00047C30.1612 5.67365 29.5535 5.50033 28.9333 5.5H13.0666C12.4465 5.50033 11.8388 5.67365 11.3117 6.00047C10.7847 6.32728 10.3593 6.79465 10.0833 7.35Z" stroke="#AAAAAA" stroke-width="1.5" stroke-linecap="round" stroke-linejoin="round"/>
</svg>
