<svg width="24" height="25" viewBox="0 0 24 25" fill="none" xmlns="http://www.w3.org/2000/svg">
<g clip-path="url(#clip0_379_3011)">
<path d="M12 21.5C16.9706 21.5 21 17.4706 21 12.5C21 7.52944 16.9706 3.5 12 3.5C7.02944 3.5 3 7.52944 3 12.5C3 17.4706 7.02944 21.5 12 21.5Z" stroke="white" stroke-width="2" stroke-linecap="round" stroke-linejoin="round"/>
<path d="M8.25 12.5001C8.25 16.012 9.49969 19.1489 11.4637 21.2648C11.532 21.339 11.6149 21.3983 11.7072 21.4388C11.7995 21.4793 11.8992 21.5002 12 21.5002C12.1008 21.5002 12.2005 21.4793 12.2928 21.4388C12.3851 21.3983 12.468 21.339 12.5363 21.2648C14.5003 19.1489 15.75 16.012 15.75 12.5001C15.75 8.98824 14.5003 5.85137 12.5363 3.73543C12.468 3.66122 12.3851 3.60197 12.2928 3.56145C12.2005 3.52092 12.1008 3.5 12 3.5C11.8992 3.5 11.7995 3.52092 11.7072 3.56145C11.6149 3.60197 11.532 3.66122 11.4637 3.73543C9.49969 5.85137 8.25 8.98824 8.25 12.5001Z" stroke="white" stroke-width="2" stroke-linecap="round" stroke-linejoin="round"/>
<path d="M3 12.5H21" stroke="white" stroke-width="2" stroke-linecap="round" stroke-linejoin="round"/>
</g>
<defs>
<clipPath id="clip0_379_3011">
<rect width="24" height="24" fill="white" transform="translate(0 0.5)"/>
</clipPath>
</defs>
</svg>
