<svg width="24" height="24" viewBox="0 0 24 24" fill="none" xmlns="http://www.w3.org/2000/svg">
<g clip-path="url(#clip0_845_12943)">
<path d="M18.75 2.99999H15.3506C14.9292 2.52817 14.4129 2.15066 13.8355 1.8922C13.2581 1.63373 12.6326 1.50012 12 1.50012C11.3674 1.50012 10.7419 1.63373 10.1645 1.8922C9.58709 2.15066 9.07079 2.52817 8.64937 2.99999H5.25C4.85218 2.99999 4.47064 3.15802 4.18934 3.43933C3.90804 3.72063 3.75 4.10216 3.75 4.49999V20.25C3.75 20.6478 3.90804 21.0293 4.18934 21.3106C4.47064 21.592 4.85218 21.75 5.25 21.75H18.75C19.1478 21.75 19.5294 21.592 19.8107 21.3106C20.092 21.0293 20.25 20.6478 20.25 20.25V4.49999C20.25 4.10216 20.092 3.72063 19.8107 3.43933C19.5294 3.15802 19.1478 2.99999 18.75 2.99999ZM12 2.99999C12.7956 2.99999 13.5587 3.31606 14.1213 3.87867C14.6839 4.44127 15 5.20434 15 5.99999H9C9 5.20434 9.31607 4.44127 9.87868 3.87867C10.4413 3.31606 11.2044 2.99999 12 2.99999Z" fill="#FF385C"/>
</g>
<defs>
<clipPath id="clip0_845_12943">
<rect width="24" height="24" fill="white"/>
</clipPath>
</defs>
</svg>
