<svg width="18" height="18" viewBox="0 0 18 18" fill="none" xmlns="http://www.w3.org/2000/svg">
<g clip-path="url(#clip0_126_3591)">
<path d="M11.5587 10.2192C11.6366 10.1674 11.7262 10.1358 11.8194 10.1273C11.9125 10.1189 12.0064 10.1338 12.0923 10.1707L15.4083 11.6564C15.52 11.7042 15.6133 11.7868 15.6741 11.892C15.735 11.9972 15.7601 12.1193 15.7458 12.24C15.6365 13.0564 15.2345 13.8053 14.6145 14.3474C13.9945 14.8896 13.1986 15.1881 12.375 15.1875C9.83887 15.1875 7.40661 14.18 5.61329 12.3867C3.81998 10.5934 2.8125 8.16113 2.8125 5.625C2.81187 4.80136 3.1104 4.00553 3.65257 3.3855C4.19474 2.76547 4.94364 2.36346 5.76 2.25422C5.88068 2.23988 6.00276 2.26501 6.10796 2.32585C6.21316 2.38669 6.29583 2.47997 6.34359 2.59172L7.8293 5.91047C7.8658 5.99571 7.88067 6.08865 7.87257 6.18102C7.86447 6.27339 7.83367 6.36233 7.78289 6.43992L6.28031 8.22656C6.22701 8.30699 6.1955 8.39987 6.18884 8.49612C6.18219 8.59237 6.20062 8.68871 6.24234 8.7757C6.82383 9.96609 8.0543 11.1818 9.2482 11.7577C9.33566 11.7992 9.43243 11.8172 9.52898 11.8099C9.62553 11.8027 9.71851 11.7703 9.79875 11.7162L11.5587 10.2192Z" stroke="#666666" stroke-width="1.5" stroke-linecap="round" stroke-linejoin="round"/>
</g>
<defs>
<clipPath id="clip0_126_3591">
<rect width="18" height="18" fill="white"/>
</clipPath>
</defs>
</svg>
