<svg width="120" height="121" viewBox="0 0 120 121" fill="none" xmlns="http://www.w3.org/2000/svg">
<path d="M51.5773 97.7406C44.865 99.3168 36.9327 97.3838 33.0009 90.9684C22.7093 81.4027 13.8462 66.0018 10.7011 59.4971C6.1007 50.935 5.57695 39.5112 9.41301 30.6836C12.4644 23.655 18.7111 19.4699 26.0788 19.2461C34.3339 18.9966 41.0577 23.7773 48.6561 26.4186C53.8011 28.208 59.8826 28.358 63.2838 23.4053C64.5595 21.5472 65.5684 19.432 67.2494 17.9728C71.2776 14.4803 76.4769 14.8803 81.1087 17.0189C93.4864 22.7341 99.5932 36.6928 98.7242 50.3234C98.1998 58.6192 94.5 63.5 86.8809 71.4119L69.5 86.5C63.5 91.5 57.6042 96.3266 51.5773 97.7406Z" fill="#FFFBCE"/>
<path d="M86.6666 110.5V103.833C86.6666 100.297 85.2618 96.9057 82.7613 94.4052C80.2609 91.9048 76.8695 90.5 73.3333 90.5H59.9999H46.6666C43.1304 90.5 39.739 91.9048 37.2385 94.4052C34.738 96.9057 33.3333 100.297 33.3333 103.833V110.5" fill="white"/>
<path d="M86.6666 110.5V103.833C86.6666 100.297 85.2618 96.9057 82.7613 94.4052C80.2609 91.9048 76.8695 90.5 73.3333 90.5H59.9999H46.6666C43.1304 90.5 39.739 91.9048 37.2385 94.4052C34.738 96.9057 33.3333 100.297 33.3333 103.833V110.5H86.6666Z" stroke="#222222" stroke-width="2" stroke-linecap="round" stroke-linejoin="round"/>
<path d="M62.5 96.4H58.5L56.5 108.4L60.5 112.4L64.5 108.4L62.5 96.4Z" fill="white"/>
<path d="M58.5 96.4H62.5M58.5 96.4L56.5 108.4L60.5 112.4L64.5 108.4L62.5 96.4M58.5 96.4L56 91.4M62.5 96.4L64.5 91.4" stroke="#222222" stroke-width="2" stroke-linecap="round"/>
<path d="M60.0001 77.1667C67.3639 77.1667 73.3334 71.1971 73.3334 63.8333C73.3334 56.4695 67.3639 50.5 60.0001 50.5C52.6363 50.5 46.6667 56.4695 46.6667 63.8333C46.6667 71.1971 52.6363 77.1667 60.0001 77.1667Z" fill="white" stroke="#222222" stroke-width="2" stroke-linecap="round" stroke-linejoin="round"/>
</svg>
