<svg width="18" height="18" viewBox="0 0 18 18" fill="none" xmlns="http://www.w3.org/2000/svg">
<g clip-path="url(#clip0_338_2323)">
<path d="M9 17C13.4183 17 17 13.4183 17 9C17 4.58172 13.4183 1 9 1C4.58172 1 1 4.58172 1 9C1 13.4183 4.58172 17 9 17Z" stroke="#666666" stroke-width="1.5" stroke-linecap="round" stroke-linejoin="round"/>
<path d="M8.77002 12.4276C7.91482 12.3833 7.24191 12.1482 6.75128 11.7223C6.26405 11.293 6.01363 10.6848 6 9.89779H7.67632C7.69336 10.2078 7.79727 10.4549 7.98808 10.6388C8.18228 10.8194 8.44293 10.9285 8.77002 10.9659V9.2845L8.24872 9.16184C6.87905 8.84497 6.19421 8.16354 6.19421 7.11755C6.1908 6.69847 6.29813 6.32368 6.51618 5.99319C6.73424 5.65928 7.03748 5.39182 7.42589 5.1908C7.81772 4.98978 8.26576 4.87223 8.77002 4.83816V4H9.36286V4.83816C9.87053 4.86882 10.3135 4.98467 10.6917 5.18569C11.0733 5.3833 11.368 5.64906 11.5758 5.98296C11.7836 6.31687 11.891 6.69847 11.8978 7.12777H10.2215C10.2044 6.89608 10.1227 6.70869 9.97615 6.56559C9.82964 6.41908 9.62521 6.32709 9.36286 6.28961V7.88416L9.74106 7.97615C10.4702 8.13969 11.0273 8.40375 11.4123 8.76831C11.8007 9.13288 11.9966 9.60477 12 10.184C11.9966 10.6235 11.891 11.0068 11.6831 11.3339C11.4753 11.6576 11.1738 11.9131 10.7785 12.1005C10.3833 12.2879 9.91141 12.3969 9.36286 12.4276V13.2606H8.77002V12.4276ZM7.99319 7.01533C7.99319 7.1891 8.05963 7.3356 8.1925 7.45486C8.32879 7.5707 8.52129 7.6661 8.77002 7.74106V6.28961C8.51448 6.33049 8.32027 6.41567 8.18739 6.54514C8.05792 6.67121 7.99319 6.82794 7.99319 7.01533ZM9.36286 10.9608C9.63203 10.9199 9.84157 10.8313 9.99148 10.6951C10.1448 10.5554 10.2249 10.385 10.2317 10.184C10.2283 10.0034 10.1567 9.8552 10.017 9.73935C9.87734 9.6201 9.65928 9.51789 9.36286 9.43271V10.9608Z" fill="#666666"/>
</g>
<defs>
<clipPath id="clip0_338_2323">
<rect width="18" height="18" fill="white"/>
</clipPath>
</defs>
</svg>
