<svg width="18" height="18" viewBox="0 0 18 18" fill="none" xmlns="http://www.w3.org/2000/svg">
<g clip-path="url(#clip0_124_3287)">
<path d="M11.25 5.625L5.39224 11.5798C5.1864 11.7918 5.07226 12.0763 5.07448 12.3718C5.07671 12.6674 5.19512 12.9501 5.40413 13.159C5.61314 13.368 5.89596 13.4862 6.19148 13.4883C6.48699 13.4904 6.77146 13.3762 6.98341 13.1702L13.9661 6.09117C14.3882 5.66916 14.6252 5.0968 14.6252 4.5C14.6252 3.90319 14.3882 3.33083 13.9661 2.90883C13.5441 2.48682 12.9718 2.24974 12.375 2.24974C11.7782 2.24974 11.2058 2.48682 10.7838 2.90883L3.80107 9.98859C3.17665 10.6233 2.82831 11.479 2.83194 12.3693C2.83556 13.2596 3.19086 14.1125 3.82042 14.742C4.44999 15.3716 5.30283 15.7269 6.19317 15.7305C7.0835 15.7342 7.93921 15.3858 8.57388 14.7614L14.3437 9" stroke="#999999" stroke-width="1.5" stroke-linecap="round" stroke-linejoin="round"/>
</g>
<defs>
<clipPath id="clip0_124_3287">
<rect width="18" height="18" fill="white"/>
</clipPath>
</defs>
</svg>
