<svg width="36" height="36" viewBox="0 0 36 36" fill="none" xmlns="http://www.w3.org/2000/svg">
<g clip-path="url(#clip0_228_1491)">
<path fill-rule="evenodd" clip-rule="evenodd" d="M3.375 18C3.37445 20.525 4.02762 23.0071 5.27095 25.2047C6.51427 27.4023 8.30538 29.2406 10.47 30.5407C12.6345 31.8407 15.0988 32.5582 17.6229 32.6233C20.1471 32.6884 22.645 32.0989 24.8738 30.9122L29.662 32.5083C30.4549 32.7727 31.3738 32.5558 31.9648 31.9648C32.5558 31.3738 32.7727 30.4549 32.5083 29.662L30.9122 24.8737C31.9554 22.9123 32.5381 20.7391 32.616 18.5189C32.6939 16.2986 32.265 14.0899 31.3618 12.0602C30.4586 10.0305 29.1049 8.23322 27.4034 6.80482C25.7019 5.37641 23.6974 4.3544 21.542 3.81637C19.3865 3.27834 17.1368 3.23842 14.9637 3.69964C12.7905 4.16087 10.751 5.11111 8.99988 6.47825C7.24879 7.84539 5.83217 9.59349 4.85754 11.5899C3.88292 13.5862 3.37591 15.7784 3.375 18ZM15 18C15 19.1046 14.3284 20 13.5 20C12.6716 20 12 19.1046 12 18C12 16.8954 12.6716 16 13.5 16C14.3284 16 15 16.8954 15 18ZM21.5 20C22.3284 20 23 19.1046 23 18C23 16.8954 22.3284 16 21.5 16C20.6716 16 20 16.8954 20 18C20 19.1046 20.6716 20 21.5 20Z" fill="white"/>
</g>
<defs>
<clipPath id="clip0_228_1491">
<rect width="36" height="36" fill="white" transform="matrix(-1 0 0 1 36 0)"/>
</clipPath>
</defs>
</svg>
