<svg width="18" height="18" viewBox="0 0 18 18" fill="none" xmlns="http://www.w3.org/2000/svg">
<g clip-path="url(#clip0_164_2877)">
<path d="M15.8204 5.6532L12.9095 2.74226C12.593 2.42582 12.1638 2.24805 11.7162 2.24805C11.2687 2.24805 10.8395 2.42582 10.523 2.74226L2.17976 11.0855C1.86332 11.402 1.68555 11.8312 1.68555 12.2787C1.68555 12.7263 1.86332 13.1555 2.17976 13.472L4.29336 15.5855C4.3458 15.6379 4.40809 15.6794 4.47662 15.7077C4.54516 15.7359 4.61861 15.7503 4.69273 15.7501H15.1876C15.3368 15.7501 15.4798 15.6908 15.5853 15.5853C15.6908 15.4798 15.7501 15.3368 15.7501 15.1876C15.7501 15.0384 15.6908 14.8953 15.5853 14.7898C15.4798 14.6843 15.3368 14.6251 15.1876 14.6251H9.23211L15.8204 8.03961C16.1368 7.72314 16.3146 7.29394 16.3146 6.84641C16.3146 6.39887 16.1368 5.96967 15.8204 5.6532ZM15.0237 7.24226L11.2501 11.0173L7.54531 7.31258L11.3204 3.53961C11.3726 3.48731 11.4347 3.44582 11.503 3.41751C11.5712 3.3892 11.6444 3.37463 11.7184 3.37463C11.7923 3.37463 11.8655 3.3892 11.9338 3.41751C12.002 3.44582 12.0641 3.48731 12.1163 3.53961L15.0259 6.44914C15.1313 6.55462 15.1905 6.69764 15.1905 6.84676C15.1905 6.99588 15.1313 7.1389 15.0259 7.24437L15.0237 7.24226Z" fill="#666666"/>
</g>
<defs>
<clipPath id="clip0_164_2877">
<rect width="18" height="18" fill="white"/>
</clipPath>
</defs>
</svg>
