<svg width="18" height="18" viewBox="0 0 18 18" fill="none" xmlns="http://www.w3.org/2000/svg">
<path d="M9.3125 2C7.86623 2 6.45243 2.42887 5.2499 3.23238C4.04736 4.03589 3.1101 5.17794 2.55663 6.51413C2.00317 7.85031 1.85836 9.32061 2.14051 10.7391C2.42267 12.1576 3.11911 13.4605 4.14178 14.4832C5.16446 15.5059 6.46742 16.2023 7.88591 16.4845C9.30439 16.7666 10.7747 16.6218 12.1109 16.0684C13.4471 15.5149 14.5891 14.5776 15.3926 13.3751C16.1961 12.1726 16.625 10.7588 16.625 9.3125C16.6213 7.37425 15.8497 5.51644 14.4791 4.14589C13.1086 2.77533 11.2508 2.00372 9.3125 2ZM11.9633 11.1617C12.0689 11.2684 12.1282 11.4124 12.1282 11.5625C12.1282 11.7126 12.0689 11.8566 11.9633 11.9633C11.8558 12.0672 11.7121 12.1254 11.5625 12.1254C11.4129 12.1254 11.2692 12.0672 11.1617 11.9633L9.3125 10.107L7.46328 11.9633C7.35577 12.0672 7.21206 12.1254 7.0625 12.1254C6.91294 12.1254 6.76924 12.0672 6.66172 11.9633C6.5561 11.8566 6.49684 11.7126 6.49684 11.5625C6.49684 11.4124 6.5561 11.2684 6.66172 11.1617L8.51797 9.3125L6.66172 7.46328C6.57202 7.35399 6.52618 7.21524 6.53312 7.07403C6.54006 6.93281 6.59927 6.79922 6.69925 6.69924C6.79922 6.59927 6.93281 6.54005 7.07403 6.53312C7.21525 6.52618 7.35399 6.57202 7.46328 6.66172L9.3125 8.51797L11.1617 6.66172C11.271 6.57202 11.4098 6.52618 11.551 6.53312C11.6922 6.54005 11.8258 6.59927 11.9258 6.69924C12.0257 6.79922 12.085 6.93281 12.0919 7.07403C12.0988 7.21524 12.053 7.35399 11.9633 7.46328L10.107 9.3125L11.9633 11.1617Z" fill="#F43333"/>
</svg>
