<svg width="14" height="14" viewBox="0 0 14 14" fill="none" xmlns="http://www.w3.org/2000/svg">
<path d="M7 1L0 2.4V12.2L7 13.6V1ZM8.4 2.4V3.8H9.8V5.2H8.4V6.6H9.8V8H8.4V9.4H9.8V10.8H8.4V12.2H13.3C13.4857 12.2 13.6637 12.1263 13.795 11.995C13.9263 11.8637 14 11.6857 14 11.5V3.1C14 2.91435 13.9263 2.7363 13.795 2.60503C13.6637 2.47375 13.4857 2.4 13.3 2.4H8.4ZM11.2 3.8H12.6V5.2H11.2V3.8ZM1.526 4.71H2.8L3.451 6.257C3.50434 6.40113 3.54876 6.54841 3.584 6.698C3.62276 6.54401 3.66949 6.39214 3.724 6.243L4.424 4.71H5.558L4.2 7.3L5.6 9.911H4.389L3.612 8.203C3.56839 8.0902 3.53786 7.97276 3.521 7.853H3.5C3.5 7.937 3.444 8.056 3.395 8.217L2.618 9.89H1.4L2.842 7.3L1.526 4.71ZM11.2 6.6H12.6V8H11.2V6.6ZM11.2 9.4H12.6V10.8H11.2V9.4Z" fill="#217145"/>
</svg>
