<svg width="32" height="32" viewBox="0 0 32 32" fill="none" xmlns="http://www.w3.org/2000/svg">
<path d="M7.81633 31.5951C7.46043 31.4159 7.28886 31.001 7.41946 30.6221L8.44881 27.6083L10.464 28.968L8.83546 31.3339C8.61013 31.6617 8.17483 31.7743 7.81633 31.5951Z" fill="#82AEC0"/>
<path d="M24.0299 31.5951C24.3859 31.4159 24.5574 31.001 24.4268 30.6221L23.3847 27.5724L21.262 28.7938L23.0108 31.3339C23.2362 31.6617 23.6715 31.7743 24.0299 31.5951Z" fill="#82AEC0"/>
<path d="M8.44875 27.6083L7.92383 29.1446C8.24903 28.9577 8.67408 28.9756 9.01208 29.1421C9.35008 29.3085 9.60868 29.6004 9.80585 29.923L10.4025 29.0576C10.4025 29.0217 8.44875 27.6083 8.44875 27.6083Z" fill="#2F7889"/>
<path d="M23.3923 27.5699L23.9608 29.2599C23.6356 29.0729 23.2464 29.0781 22.9058 29.2445C22.5678 29.4109 22.3092 29.7028 22.112 30.0255L21.3311 28.8911L23.3923 27.5699Z" fill="#2F7889"/>
<path d="M5.16614 18.8588C5.16214 27.1395 14.1238 32.3193 21.2971 28.1824C24.6294 26.2606 26.6819 22.7056 26.6801 18.8588C26.684 10.5781 17.7224 5.39832 10.5491 9.53522C7.21676 11.457 5.16429 15.012 5.16614 18.8588Z" fill="#FFEFA1"/>
<path d="M3.28418 17.9088C3.28418 27.6383 13.8167 33.7193 22.2427 28.8545C26.1532 26.5968 28.5622 22.4243 28.5622 17.9088C28.5622 8.17933 18.0297 2.0984 9.60368 6.96315C5.69315 9.22088 3.28418 13.3934 3.28418 17.9088Z" fill="#CC2929"/>
<path d="M4.04211 18.5439C4.04211 27.6899 13.943 33.4062 21.8637 28.8332C25.5397 26.7108 27.8042 22.7886 27.8042 18.5439C27.8042 9.3978 17.9033 3.68153 9.98264 8.25455C6.30664 10.3769 4.04211 14.2992 4.04211 18.5439Z" fill="#FF4638"/>
<path d="M5.67322 18.5439C5.67319 26.4343 14.2148 31.3658 21.0482 27.4206C24.2195 25.5896 26.1731 22.2058 26.1731 18.5439C26.1731 10.6534 17.6315 5.7219 10.7982 9.66713C7.62684 11.4981 5.67322 14.8819 5.67322 18.5439Z" fill="#FAFAFA"/>
<path d="M14.8606 18.5439C14.8606 19.421 15.8101 19.9692 16.5698 19.5306C16.9223 19.3271 17.1395 18.9509 17.1395 18.5439C17.1395 17.6667 16.1899 17.1185 15.4303 17.5571C15.0778 17.7606 14.8606 18.1368 14.8606 18.5439Z" fill="#563428"/>
<path d="M15.9232 10.8288C15.7158 10.8288 15.5468 10.6598 15.5468 10.4524V9.32577C15.5468 9.11837 15.7158 8.94937 15.9232 8.94937C16.1306 8.94937 16.2996 9.11837 16.2996 9.32577V10.4524C16.2996 10.6598 16.1306 10.8288 15.9232 10.8288Z" fill="#B2947C"/>
<path d="M15.9232 28.1358C15.7158 28.1358 15.5468 27.9668 15.5468 27.7594V26.6327C15.5468 26.4253 15.7158 26.2563 15.9232 26.2563C16.1306 26.2563 16.2996 26.4253 16.2996 26.6327V27.7594C16.2996 27.9668 16.1306 28.1358 15.9232 28.1358Z" fill="#B2947C"/>
<path d="M25.1387 18.9177H24.012C23.8046 18.9177 23.6356 18.7487 23.6356 18.5413C23.6356 18.3339 23.8046 18.1649 24.012 18.1649H25.1387C25.3461 18.1649 25.5151 18.3339 25.5151 18.5413C25.5151 18.7512 25.3461 18.9177 25.1387 18.9177Z" fill="#B2947C"/>
<path d="M7.83435 18.9177H6.7077C6.5003 18.9177 6.3313 18.7487 6.3313 18.5413C6.3313 18.3339 6.5003 18.1649 6.7077 18.1649H7.83435C8.04177 18.1649 8.21077 18.3339 8.21077 18.5413C8.21077 18.7512 8.04177 18.9177 7.83435 18.9177Z" fill="#B2947C"/>
<path d="M15.9232 10.8288C15.7158 10.8288 15.5468 10.6598 15.5468 10.4524V9.32577C15.5468 9.11837 15.7158 8.94937 15.9232 8.94937C16.1306 8.94937 16.2996 9.11837 16.2996 9.32577V10.4524C16.2996 10.6598 16.1306 10.8288 15.9232 10.8288Z" fill="#B2947C"/>
<path d="M15.9232 28.1358C15.7158 28.1358 15.5468 27.9668 15.5468 27.7594V26.6327C15.5468 26.4253 15.7158 26.2563 15.9232 26.2563C16.1306 26.2563 16.2996 26.4253 16.2996 26.6327V27.7594C16.2996 27.9668 16.1306 28.1358 15.9232 28.1358Z" fill="#B2947C"/>
<path d="M11.5523 11.725L10.989 10.7495C10.884 10.5702 10.9454 10.3398 11.1272 10.2348C11.3065 10.1298 11.5369 10.1913 11.6419 10.3731L12.2052 11.3486C12.3102 11.5279 12.2488 11.7583 12.067 11.8633C11.8877 11.9657 11.6573 11.9043 11.5523 11.725Z" fill="#B2947C"/>
<path d="M20.207 26.7121L19.6437 25.7365C19.5387 25.5573 19.6027 25.3268 19.7819 25.2218C19.9612 25.1169 20.1916 25.1809 20.2966 25.3601L20.8599 26.3357C20.9649 26.5149 20.9009 26.7454 20.7217 26.8504C20.5399 26.9528 20.3094 26.8913 20.207 26.7121Z" fill="#B2947C"/>
<path d="M11.5523 11.725L10.989 10.7495C10.884 10.5702 10.9454 10.3398 11.1272 10.2348C11.3065 10.1298 11.5369 10.1913 11.6419 10.3731L12.2052 11.3486C12.3102 11.5279 12.2488 11.7583 12.067 11.8633C11.8877 11.9657 11.6573 11.9043 11.5523 11.725Z" fill="#B2947C"/>
<path d="M20.207 26.7121L19.6437 25.7365C19.5387 25.5573 19.6027 25.3268 19.7819 25.2218C19.9612 25.1169 20.1916 25.1809 20.2966 25.3601L20.8599 26.3357C20.9649 26.5149 20.9009 26.7454 20.7217 26.8504C20.5399 26.9528 20.3094 26.8913 20.207 26.7121Z" fill="#B2947C"/>
<path d="M8.73061 14.8233L7.75503 14.26C7.57581 14.155 7.51436 13.9271 7.61678 13.7453C7.72176 13.5661 7.94966 13.5047 8.13146 13.6071L9.10703 14.1704C9.28626 14.2754 9.34771 14.5033 9.24528 14.6851C9.14031 14.8669 8.90986 14.9283 8.73061 14.8233Z" fill="#B2947C"/>
<path d="M23.7177 23.4755L22.7421 22.9122C22.5629 22.8072 22.5014 22.5793 22.6038 22.3975C22.7088 22.2183 22.9367 22.1568 23.1185 22.2593L24.0941 22.8226C24.2733 22.9276 24.3348 23.1555 24.2324 23.3373C24.1274 23.5191 23.8969 23.5805 23.7177 23.4755Z" fill="#B2947C"/>
<path d="M19.7795 11.8633C19.6002 11.7583 19.5388 11.5304 19.6412 11.3486L20.2045 10.3731C20.3095 10.1938 20.5374 10.1324 20.7192 10.2348C20.8984 10.3398 20.9599 10.5677 20.8575 10.7495L20.2941 11.725C20.1892 11.9043 19.9613 11.9657 19.7795 11.8633Z" fill="#B2947C"/>
<path d="M11.1272 26.8503C10.948 26.7454 10.8865 26.5175 10.989 26.3357L11.5523 25.3601C11.6573 25.1808 11.8852 25.1194 12.067 25.2218C12.2462 25.3268 12.3077 25.5547 12.2052 25.7365L11.6419 26.7121C11.5369 26.8913 11.3065 26.9528 11.1272 26.8503Z" fill="#B2947C"/>
<path d="M22.6037 14.6851C22.4987 14.5058 22.5602 14.2754 22.742 14.1704L23.7176 13.6071C23.8968 13.5021 24.1272 13.5661 24.2322 13.7453C24.3372 13.9246 24.2732 14.155 24.094 14.26L23.1184 14.8233C22.9366 14.9283 22.7061 14.8669 22.6037 14.6851Z" fill="#B2947C"/>
<path d="M7.61671 23.3398C7.51171 23.1606 7.57573 22.9301 7.75496 22.8251L8.73053 22.2618C8.90978 22.1568 9.14023 22.2208 9.24521 22.4001C9.35021 22.5793 9.28618 22.8098 9.10696 22.9148L8.13138 23.4781C7.94958 23.5805 7.71911 23.5191 7.61671 23.3398Z" fill="#B2947C"/>
<path d="M11.7725 16.1855L15.9231 18.5438" stroke="#563428" stroke-width="1.25" stroke-miterlimit="10" stroke-linecap="round"/>
<path d="M21.856 15.1409L16.1127 18.5439" stroke="#563428" stroke-width="0.875" stroke-miterlimit="10" stroke-linecap="round"/>
<path d="M23.167 8.2478L22.1069 7.55387L25.7148 1.16267L26.8158 1.7849L23.167 8.2478Z" fill="#82AEC0"/>
<path d="M28.0781 8.94428C28.3931 9.03645 28.7311 8.86233 28.8284 8.54993C29.658 5.89975 28.5826 3.01655 25.981 1.67735C23.3616 0.327954 20.5168 1.2139 18.8601 3.47488C18.6731 3.72838 18.7167 4.0843 18.9523 4.2917C19.4874 4.7654 20.6755 5.6565 23.044 6.85485C25.5457 8.11975 27.2613 8.70358 28.0781 8.94428Z" fill="#CC2929"/>
<path d="M26.7159 2.56588C26.7159 2.56588 27.3842 1.7132 26.4138 1.17293C25.6584 0.753 25.1796 1.67225 25.1796 1.67225C25.0131 1.97695 26.6007 2.77585 26.7159 2.56588Z" fill="#82AEC0"/>
<path d="M8.73559 8.25547L5.08167 1.7849L6.18527 1.16267L9.73421 7.45145L8.73559 8.25547Z" fill="#82AEC0"/>
<path d="M3.92174 8.94428C3.60679 9.03645 3.26879 8.86233 3.17149 8.54993C2.34187 5.89975 3.41732 3.01655 6.01887 1.67735C8.63832 0.327954 11.4831 1.2139 13.1398 3.47488C13.3267 3.72838 13.2832 4.0843 13.0476 4.2917C12.5125 4.7654 11.3244 5.6565 8.95584 6.85485C6.45417 8.11975 4.73857 8.70358 3.92174 8.94428Z" fill="#CC2929"/>
<path d="M5.28401 2.56588C5.28401 2.56588 4.61571 1.7132 5.58616 1.17293C6.34153 0.753 6.82036 1.67225 6.82036 1.67225C6.98678 1.97695 5.39923 2.77585 5.28401 2.56588Z" fill="#82AEC0"/>
<path d="M15.9231 5.87415V2.36102" stroke="#82AEC0" stroke-width="0.9265" stroke-miterlimit="10"/>
<path d="M15.9385 3.61061C14.9348 3.61061 13.9285 3.22651 13.9285 3.22651V2.46604C13.9285 2.46604 14.8631 2.04866 15.9872 2.04866C17.1113 2.04866 17.946 2.46604 17.946 2.46604V3.22651C17.9486 3.22909 16.9448 3.61061 15.9385 3.61061Z" fill="#82AEC0"/>
<path d="M14.182 2.43531C14.0719 2.47626 14.0617 2.62734 14.1641 2.68624C14.3126 2.77074 14.4893 2.85779 14.5508 2.84756C15.3957 2.71696 16.6223 2.78099 17.4698 2.90901C17.5287 2.91924 17.6977 2.77586 17.818 2.66831C17.8846 2.60686 17.8693 2.50186 17.7873 2.46346C17.521 2.34311 16.9193 2.12804 15.9872 2.12804C15.1269 2.12804 14.5047 2.30986 14.182 2.43531Z" fill="#94D1E0"/>
<path d="M23.9531 1.95136C24.0325 2.22276 23.7406 2.44554 23.505 2.60174C22.9135 2.99606 22.4321 3.55426 22.1223 4.19441C21.9738 4.50168 21.8074 4.87808 21.4668 4.92673C21.3311 4.94466 21.1979 4.90369 21.0699 4.85761C20.8728 4.78591 20.6807 4.70396 20.4938 4.60923C20.271 4.49656 20.0431 4.35316 19.9407 4.12529C19.8076 3.82569 19.933 3.47234 20.1123 3.19579C20.5399 2.54284 21.2364 2.13826 21.9533 1.87199C22.3861 1.71066 23.738 1.21646 23.9531 1.95136Z" fill="#FF4638"/>
<path d="M6.30305 4.1099C6.46948 4.45557 6.6564 4.79102 6.8638 5.11365C7.1173 5.50797 7.41178 5.9484 7.30423 6.40417C7.17875 6.92652 6.60008 7.17747 6.0905 7.3516C5.82933 7.4412 5.57073 7.53082 5.30953 7.62045C5.17128 7.6691 5.02533 7.71775 4.87935 7.71007C4.6489 7.69982 4.4415 7.55387 4.31093 7.36695C4.17778 7.18002 4.1112 6.9547 4.05998 6.73192C3.86793 5.87412 3.90635 4.96512 4.17008 4.12527C4.32373 3.64387 4.5644 3.13687 5.10983 3.09847C5.773 3.05237 6.05468 3.59267 6.30305 4.1099Z" fill="#FF4638"/>
</svg>
