<svg width="18" height="18" viewBox="0 0 18 18" fill="none" xmlns="http://www.w3.org/2000/svg">
<g clip-path="url(#clip0_323_4013)">
<path d="M7.3125 7.3125C8.24448 7.3125 9 6.55698 9 5.625C9 4.69302 8.24448 3.9375 7.3125 3.9375C6.38052 3.9375 5.625 4.69302 5.625 5.625C5.625 6.55698 6.38052 7.3125 7.3125 7.3125Z" stroke="#222222" stroke-width="1.5" stroke-linecap="round" stroke-linejoin="round"/>
<path d="M11.8125 14.0625C12.7445 14.0625 13.5 13.307 13.5 12.375C13.5 11.443 12.7445 10.6875 11.8125 10.6875C10.8805 10.6875 10.125 11.443 10.125 12.375C10.125 13.307 10.8805 14.0625 11.8125 14.0625Z" stroke="#222222" stroke-width="1.5" stroke-linecap="round" stroke-linejoin="round"/>
<path d="M9 5.625H15.1875" stroke="#222222" stroke-width="1.5" stroke-linecap="round" stroke-linejoin="round"/>
<path d="M2.8125 5.625H5.625" stroke="#222222" stroke-width="1.5" stroke-linecap="round" stroke-linejoin="round"/>
<path d="M13.5 12.375H15.1875" stroke="#222222" stroke-width="1.5" stroke-linecap="round" stroke-linejoin="round"/>
<path d="M2.8125 12.375H10.125" stroke="#222222" stroke-width="1.5" stroke-linecap="round" stroke-linejoin="round"/>
</g>
<defs>
<clipPath id="clip0_323_4013">
<rect width="18" height="18" fill="white"/>
</clipPath>
</defs>
</svg>
