<svg width="24" height="24" viewBox="0 0 24 24" fill="none" xmlns="http://www.w3.org/2000/svg">
<g clip-path="url(#clip0_102_3478)">
<path d="M6 20L16 10L20 13.5V20H6Z" fill="#222222"/>
<path d="M19.5 3.75H4.5C4.08579 3.75 3.75 4.08579 3.75 4.5V19.5C3.75 19.9142 4.08579 20.25 4.5 20.25H19.5C19.9142 20.25 20.25 19.9142 20.25 19.5V4.5C20.25 4.08579 19.9142 3.75 19.5 3.75Z" stroke="#222222" stroke-width="2" stroke-linecap="round" stroke-linejoin="round"/>
<path d="M9 10.5C9.82843 10.5 10.5 9.82843 10.5 9C10.5 8.17157 9.82843 7.5 9 7.5C8.17157 7.5 7.5 8.17157 7.5 9C7.5 9.82843 8.17157 10.5 9 10.5Z" fill="#222222"/>
<path d="M5.3147 20.25L15.5944 9.96938C15.664 9.89965 15.7468 9.84433 15.8378 9.80659C15.9289 9.76885 16.0264 9.74942 16.125 9.74942C16.2236 9.74942 16.3212 9.76885 16.4122 9.80659C16.5033 9.84433 16.586 9.89965 16.6556 9.96938L20.25 13.5647" stroke="#222222" stroke-width="2" stroke-linecap="round" stroke-linejoin="round"/>
</g>
<defs>
<clipPath id="clip0_102_3478">
<rect width="24" height="24" fill="white"/>
</clipPath>
</defs>
</svg>
