<svg width="22" height="22" viewBox="0 0 22 22" fill="none" xmlns="http://www.w3.org/2000/svg">
<path fill-rule="evenodd" clip-rule="evenodd" d="M5.91255 11.0684C5.91255 8.481 7.9291 5.91255 11.0684 5.91255C13.6038 5.91255 14.8569 7.78913 15.3909 8.78709C15.139 8.78709 14.058 8.78709 13.8061 8.78709C13.5541 8.78709 13.3498 8.99137 13.3498 9.24336C13.3498 9.49535 13.5541 9.69963 13.8061 9.69963H16.5437C16.7957 9.69963 17 9.49535 17 9.24336V6.50572C17 6.25373 16.7957 6.04945 16.5437 6.04945C16.2918 6.04945 16.0875 6.25373 16.0875 6.50572C16.0875 6.75771 16.0875 7.90834 16.0875 8.16033C15.4446 7.02702 13.9575 5 11.0684 5C7.36092 5 5 8.0437 5 11.0684C5 14.0932 7.36092 17.1369 11.0684 17.1369C12.8423 17.1369 14.3191 16.435 15.3707 15.3651C15.9337 14.7922 16.3734 14.1154 16.6731 13.387C16.769 13.1539 16.6579 12.8873 16.4249 12.7914C16.1918 12.6955 15.9252 12.8067 15.8293 13.0397C15.5731 13.6624 15.1978 14.2391 14.7198 14.7254C13.833 15.6278 12.5879 16.2243 11.0684 16.2243C7.9291 16.2243 5.91255 13.6559 5.91255 11.0684Z" fill="black"/>
<rect x="0.5" y="0.5" width="21" height="21" rx="10.5" stroke="black" stroke-opacity="0.15"/>
</svg>
