<svg width="24" height="25" viewBox="0 0 24 25" fill="none" xmlns="http://www.w3.org/2000/svg">
<g clip-path="url(#clip0_164_2789)">
<path d="M21.1744 10.1394C20.8209 9.77 20.4553 9.38937 20.3175 9.05469C20.19 8.74813 20.1825 8.24 20.175 7.74781C20.1609 6.83281 20.1459 5.79594 19.425 5.075C18.7041 4.35406 17.6672 4.33906 16.7522 4.325C16.26 4.3175 15.7519 4.31 15.4453 4.1825C15.1116 4.04469 14.73 3.67906 14.3606 3.32562C13.7137 2.70406 12.9787 2 12 2C11.0213 2 10.2872 2.70406 9.63937 3.32562C9.27 3.67906 8.88937 4.04469 8.55469 4.1825C8.25 4.31 7.74 4.3175 7.24781 4.325C6.33281 4.33906 5.29594 4.35406 4.575 5.075C3.85406 5.79594 3.84375 6.83281 3.825 7.74781C3.8175 8.24 3.81 8.74813 3.6825 9.05469C3.54469 9.38844 3.17906 9.77 2.82562 10.1394C2.20406 10.7862 1.5 11.5213 1.5 12.5C1.5 13.4787 2.20406 14.2128 2.82562 14.8606C3.17906 15.23 3.54469 15.6106 3.6825 15.9453C3.81 16.2519 3.8175 16.76 3.825 17.2522C3.83906 18.1672 3.85406 19.2041 4.575 19.925C5.29594 20.6459 6.33281 20.6609 7.24781 20.675C7.74 20.6825 8.24813 20.69 8.55469 20.8175C8.88844 20.9553 9.27 21.3209 9.63937 21.6744C10.2862 22.2959 11.0213 23 12 23C12.9787 23 13.7128 22.2959 14.3606 21.6744C14.73 21.3209 15.1106 20.9553 15.4453 20.8175C15.7519 20.69 16.26 20.6825 16.7522 20.675C17.6672 20.6609 18.7041 20.6459 19.425 19.925C20.1459 19.2041 20.1609 18.1672 20.175 17.2522C20.1825 16.76 20.19 16.2519 20.3175 15.9453C20.4553 15.6116 20.8209 15.23 21.1744 14.8606C21.7959 14.2137 22.5 13.4787 22.5 12.5C22.5 11.5213 21.7959 10.7872 21.1744 10.1394ZM16.2806 10.7806L11.0306 16.0306C10.961 16.1004 10.8783 16.1557 10.7872 16.1934C10.6962 16.2312 10.5986 16.2506 10.5 16.2506C10.4014 16.2506 10.3038 16.2312 10.2128 16.1934C10.1217 16.1557 10.039 16.1004 9.96937 16.0306L7.71937 13.7806C7.57864 13.6399 7.49958 13.449 7.49958 13.25C7.49958 13.051 7.57864 12.8601 7.71937 12.7194C7.86011 12.5786 8.05098 12.4996 8.25 12.4996C8.44902 12.4996 8.63989 12.5786 8.78063 12.7194L10.5 14.4397L15.2194 9.71937C15.2891 9.64969 15.3718 9.59442 15.4628 9.5567C15.5539 9.51899 15.6515 9.49958 15.75 9.49958C15.8485 9.49958 15.9461 9.51899 16.0372 9.5567C16.1282 9.59442 16.2109 9.64969 16.2806 9.71937C16.3503 9.78906 16.4056 9.87178 16.4433 9.96283C16.481 10.0539 16.5004 10.1515 16.5004 10.25C16.5004 10.3485 16.481 10.4461 16.4433 10.5372C16.4056 10.6282 16.3503 10.7109 16.2806 10.7806Z" fill="#1A1F71"/>
</g>
<defs>
<clipPath id="clip0_164_2789">
<rect width="24" height="24" fill="white" transform="translate(0 0.5)"/>
</clipPath>
</defs>
</svg>
