<svg width="18" height="18" viewBox="0 0 18 18" fill="none" xmlns="http://www.w3.org/2000/svg">
<path d="M9.3125 2C7.86623 2 6.45243 2.42887 5.2499 3.23238C4.04736 4.03589 3.1101 5.17794 2.55663 6.51413C2.00317 7.85031 1.85836 9.32061 2.14051 10.7391C2.42267 12.1576 3.11911 13.4605 4.14178 14.4832C5.16446 15.5059 6.46742 16.2023 7.88591 16.4845C9.30439 16.7666 10.7747 16.6218 12.1109 16.0684C13.4471 15.5149 14.5891 14.5776 15.3926 13.3751C16.1961 12.1726 16.625 10.7588 16.625 9.3125C16.6213 7.37425 15.8497 5.51644 14.4791 4.14589C13.1086 2.77533 11.2508 2.00372 9.3125 2ZM12.793 8.03281L8.67266 11.9703C8.56614 12.0705 8.42515 12.1259 8.27891 12.125C8.20743 12.126 8.13645 12.1129 8.07008 12.0863C8.00371 12.0598 7.94325 12.0204 7.89219 11.9703L5.83203 10.0016C5.77489 9.95171 5.72842 9.89082 5.69541 9.82255C5.66241 9.75427 5.64354 9.68003 5.63996 9.60429C5.63638 9.52854 5.64815 9.45285 5.67456 9.38177C5.70097 9.31068 5.74149 9.24568 5.79367 9.19065C5.84585 9.13563 5.90861 9.09172 5.97819 9.06157C6.04778 9.03142 6.12273 9.01565 6.19856 9.01521C6.2744 9.01477 6.34953 9.02967 6.41946 9.05901C6.48939 9.08835 6.55266 9.13152 6.60547 9.18594L8.27891 10.782L12.0195 7.21719C12.1289 7.12177 12.2709 7.07232 12.4159 7.07917C12.5609 7.08603 12.6976 7.14867 12.7975 7.25399C12.8974 7.35932 12.9527 7.49917 12.9518 7.64431C12.951 7.78946 12.8941 7.92866 12.793 8.03281Z" fill="#00B74F"/>
</svg>
