<svg width="24" height="24" viewBox="0 0 24 24" fill="none" xmlns="http://www.w3.org/2000/svg">
<g clip-path="url(#clip0_816_25539)">
<path d="M20.25 5.99999H13.8103L17.0306 2.78061C17.1714 2.63988 17.2504 2.44901 17.2504 2.24999C17.2504 2.05097 17.1714 1.8601 17.0306 1.71936C16.8899 1.57863 16.699 1.49957 16.5 1.49957C16.301 1.49957 16.1101 1.57863 15.9694 1.71936L12 5.68968L8.03063 1.71936C7.96094 1.64968 7.87822 1.59441 7.78717 1.55669C7.69613 1.51898 7.59855 1.49957 7.5 1.49957C7.40145 1.49957 7.30387 1.51898 7.21283 1.55669C7.12178 1.59441 7.03906 1.64968 6.96937 1.71936C6.82864 1.8601 6.74958 2.05097 6.74958 2.24999C6.74958 2.44901 6.82864 2.63988 6.96937 2.78061L10.1897 5.99999H3.75C3.35218 5.99999 2.97064 6.15803 2.68934 6.43933C2.40804 6.72063 2.25 7.10217 2.25 7.49999V18.75C2.25 19.1478 2.40804 19.5293 2.68934 19.8106C2.97064 20.092 3.35218 20.25 3.75 20.25H20.25C20.6478 20.25 21.0294 20.092 21.3107 19.8106C21.592 19.5293 21.75 19.1478 21.75 18.75V7.49999C21.75 7.10217 21.592 6.72063 21.3107 6.43933C21.0294 6.15803 20.6478 5.99999 20.25 5.99999ZM20.25 18.75H3.75V7.49999H20.25V18.75ZM18.75 9.37499V16.875C18.75 16.9744 18.7105 17.0698 18.6402 17.1402C18.5698 17.2105 18.4745 17.25 18.375 17.25H5.625C5.52554 17.25 5.43016 17.2105 5.35984 17.1402C5.28951 17.0698 5.25 16.9744 5.25 16.875V9.37499C5.25 9.27553 5.28951 9.18015 5.35984 9.10982C5.43016 9.0395 5.52554 8.99999 5.625 8.99999H18.375C18.4745 8.99999 18.5698 9.0395 18.6402 9.10982C18.7105 9.18015 18.75 9.27553 18.75 9.37499Z" fill="#FF385C"/>
</g>
<defs>
<clipPath id="clip0_816_25539">
<rect width="24" height="24" fill="white"/>
</clipPath>
</defs>
</svg>
