<svg width="120" height="121" viewBox="0 0 120 121" fill="none" xmlns="http://www.w3.org/2000/svg">
<path d="M17.0394 63.277C-2.93985 29.5632 54.1105 -6.76126 73.2813 26.6429C79.9131 38.2012 78.1745 53.0266 88.4731 62.7419C95.2545 69.1252 105.598 68.9495 103.948 81.2121C102.78 89.9388 91.6653 97.3764 83.3183 98.0767C61.9939 99.9002 29.2797 84.008 17.0394 63.277Z" fill="#FFEFEF"/>
<path d="M86.6666 110.5V103.833C86.6666 100.297 85.2618 96.9057 82.7613 94.4052C80.2609 91.9048 76.8695 90.5 73.3333 90.5H59.9999H46.6666C43.1304 90.5 39.739 91.9048 37.2385 94.4052C34.738 96.9057 33.3333 100.297 33.3333 103.833V110.5" fill="white"/>
<path d="M86.6666 110.5V103.833C86.6666 100.297 85.2618 96.9057 82.7613 94.4052C80.2609 91.9048 76.8695 90.5 73.3333 90.5H59.9999H46.6666C43.1304 90.5 39.739 91.9048 37.2385 94.4052C34.738 96.9057 33.3333 100.297 33.3333 103.833V110.5H86.6666Z" stroke="#222222" stroke-width="2" stroke-linecap="round" stroke-linejoin="round"/>
<path d="M60.0001 77.1667C67.3639 77.1667 73.3334 71.1971 73.3334 63.8333C73.3334 56.4695 67.3639 50.5 60.0001 50.5C52.6363 50.5 46.6667 56.4695 46.6667 63.8333C46.6667 71.1971 52.6363 77.1667 60.0001 77.1667Z" fill="white" stroke="#222222" stroke-width="2" stroke-linecap="round" stroke-linejoin="round"/>
</svg>
