<svg width="24" height="25" viewBox="0 0 24 25" fill="none" xmlns="http://www.w3.org/2000/svg">
<path fill-rule="evenodd" clip-rule="evenodd" d="M3.61091 16.0083C4.64236 14.9769 6.04131 14.3974 7.5 14.3974H16.5C17.9587 14.3974 19.3576 14.9769 20.3891 16.0083C21.4205 17.0398 22 18.4387 22 19.8974V22.1474C22 22.6997 21.5523 23.1474 21 23.1474H3C2.44772 23.1474 2 22.6997 2 22.1474V19.8974C2 18.4387 2.57946 17.0398 3.61091 16.0083ZM7.5 16.3974C6.57174 16.3974 5.6815 16.7661 5.02513 17.4225C4.36875 18.0789 4 18.9691 4 19.8974V21.1474H20V19.8974C20 18.9691 19.6313 18.0789 18.9749 17.4225C18.3185 16.7661 17.4283 16.3974 16.5 16.3974H7.5Z" fill="#222222"/>
<path fill-rule="evenodd" clip-rule="evenodd" d="M12 4.3974C10.3431 4.3974 9 5.74055 9 7.3974C9 9.05425 10.3431 10.3974 12 10.3974C13.6569 10.3974 15 9.05425 15 7.3974C15 5.74055 13.6569 4.3974 12 4.3974ZM7 7.3974C7 4.63598 9.23858 2.3974 12 2.3974C14.7614 2.3974 17 4.63598 17 7.3974C17 10.1588 14.7614 12.3974 12 12.3974C9.23858 12.3974 7 10.1588 7 7.3974Z" fill="#222222"/>
</svg>
