<svg width="56" height="57" viewBox="0 0 56 57" fill="none" xmlns="http://www.w3.org/2000/svg">
<path d="M55.6253 25.4799C55.4817 25.916 55.2532 26.3194 54.9528 26.6667C54.6524 27.014 54.2862 27.2983 53.8753 27.5033L48.6953 30.0933L45.3966 33.3943L36.6466 42.1442C36.4327 42.3579 36.1672 42.5125 35.8758 42.593C35.5845 42.6735 35.2773 42.6771 34.9841 42.6036L20.9841 39.1036C20.7712 39.0502 20.5701 38.9574 20.3913 38.8302L8.24626 30.1589L2.93501 27.5033C2.10493 27.0884 1.47363 26.3607 1.17992 25.4804C0.88621 24.6001 0.954135 23.6392 1.36876 22.8089L6.8047 11.9393C7.21965 11.1092 7.94728 10.4779 8.8276 10.1842C9.70791 9.89045 10.6688 9.95837 11.4991 10.373L16.3247 12.7792L27.9184 9.46737C28.233 9.37741 28.5664 9.37741 28.8809 9.46737L40.4747 12.7792L45.3003 10.373C46.1306 9.95837 47.0915 9.89045 47.9718 10.1842C48.8521 10.4779 49.5797 11.1092 49.9947 11.9393L55.4306 22.8089C55.638 23.2192 55.7619 23.6665 55.7953 24.1249C55.8288 24.5834 55.771 25.0439 55.6253 25.4799ZM41.5269 32.3005L35.4653 27.4464C31.1909 30.9464 25.7638 31.408 21.2663 28.5402C20.8239 28.2588 20.4503 27.8815 20.1733 27.4364C19.8962 26.9912 19.7227 26.4895 19.6656 25.9683C19.6085 25.4471 19.6692 24.9197 19.8433 24.4251C20.0173 23.9305 20.3003 23.4814 20.6713 23.1108C20.6765 23.1044 20.6824 23.0986 20.6888 23.0933L30.5019 13.5755L28.4019 12.9761L17.3725 16.1283L11.3853 28.1005L22.1478 35.7896L34.8659 38.968L41.5269 32.3005ZM45.5169 28.3105L39.5713 16.4061H32.6106L23.1519 25.5936C25.9213 27.3633 30.2634 27.8511 34.1594 23.9246C34.4637 23.6179 34.8706 23.4346 35.3019 23.4099C35.7332 23.3853 36.1584 23.5211 36.4956 23.7911L44.0228 29.8221L45.5169 28.3105Z" fill="url(#paint0_linear_153_391)"/>
<path d="M26.5994 46.5805C26.5048 46.9591 26.2863 47.2952 25.9787 47.5354C25.6712 47.7756 25.2921 47.9061 24.9019 47.9062C24.7544 47.9069 24.6075 47.8892 24.4644 47.8537L17.4644 46.1037C17.2695 46.0547 17.0845 45.9726 16.9175 45.8609L11.6675 42.3609C11.2814 42.1033 11.0135 41.7028 10.9226 41.2477C10.8317 40.7925 10.9254 40.3199 11.183 39.9338C11.4406 39.5477 11.841 39.2798 12.2961 39.1889C12.7513 39.098 13.2239 39.1917 13.61 39.4493L18.6063 42.7809L25.3131 44.4587C25.5372 44.513 25.7484 44.6111 25.9344 44.7473C26.1205 44.8834 26.2778 45.0551 26.3973 45.2522C26.5169 45.4494 26.5962 45.6683 26.6309 45.8962C26.6656 46.1242 26.6549 46.3567 26.5994 46.5805Z" fill="#B8B9CF"/>
<defs>
<linearGradient id="paint0_linear_153_391" x1="28.4023" y1="9.3999" x2="28.4023" y2="42.6562" gradientUnits="userSpaceOnUse">
<stop stop-color="#3139BF"/>
<stop offset="1" stop-color="#1A1F71"/>
</linearGradient>
</defs>
</svg>
