<svg width="56" height="57" viewBox="0 0 56 57" fill="none" xmlns="http://www.w3.org/2000/svg">
<path d="M46.8571 20.3999H9.14286C8.30932 20.3999 7.50992 20.731 6.92052 21.3204C6.33112 21.9098 6 22.7092 6 23.5428V46.6856C6 47.5192 6.33112 48.3186 6.92052 48.908C7.50992 49.4974 8.30932 49.8285 9.14286 49.8285H46.8571C47.6907 49.8285 48.4901 49.4974 49.0795 48.908C49.6689 48.3186 50 47.5192 50 46.6856V23.5428C50 22.7092 49.6689 21.9098 49.0795 21.3204C48.4901 20.731 47.6907 20.3999 46.8571 20.3999ZM23.5714 36.5428H20.4286C20.0118 36.5428 19.6121 36.3772 19.3174 36.0825C19.0227 35.7878 18.8571 35.3881 18.8571 34.9713C18.8571 34.5546 19.0227 34.1549 19.3174 33.8602C19.6121 33.5655 20.0118 33.3999 20.4286 33.3999H23.5714C23.9882 33.3999 24.3879 33.5655 24.6826 33.8602C24.9773 34.1549 25.1429 34.5546 25.1429 34.9713C25.1429 35.3881 24.9773 35.7878 24.6826 36.0825C24.3879 36.3772 23.9882 36.5428 23.5714 36.5428ZM36.1429 36.5428H29.8571C29.4404 36.5428 29.0407 36.3772 28.746 36.0825C28.4513 35.7878 28.2857 35.3881 28.2857 34.9713C28.2857 34.5546 28.4513 34.1549 28.746 33.8602C29.0407 33.5655 29.4404 33.3999 29.8571 33.3999H36.1429C36.5596 33.3999 36.9593 33.5655 37.254 33.8602C37.5487 34.1549 37.7143 34.5546 37.7143 34.9713C37.7143 35.3881 37.5487 35.7878 37.254 36.0825C36.9593 36.3772 36.5596 36.5428 36.1429 36.5428Z" fill="#B8B9CF"/>
<path d="M40.8571 11.3999H3.14286C2.30932 11.3999 1.50992 11.731 0.920521 12.3204C0.331121 12.9098 0 13.7092 0 14.5428V39.6856C0 40.5192 0.331121 41.3186 0.920521 41.908C1.50992 42.4974 2.30932 42.8285 3.14286 42.8285H40.8571C41.6907 42.8285 42.4901 42.4974 43.0795 41.908C43.6689 41.3186 44 40.5192 44 39.6856V14.5428C44 13.7092 43.6689 12.9098 43.0795 12.3204C42.4901 11.731 41.6907 11.3999 40.8571 11.3999ZM23.5714 36.5428H20.4286C20.0118 36.5428 19.6121 36.3772 19.3174 36.0825C19.0227 35.7878 18.8571 35.3881 18.8571 34.9713C18.8571 34.5546 19.0227 34.1549 19.3174 33.8602C19.6121 33.5655 20.0118 33.3999 20.4286 33.3999H23.5714C23.9882 33.3999 24.3879 33.5655 24.6826 33.8602C24.9773 34.1549 25.1429 34.5546 25.1429 34.9713C25.1429 35.3881 24.9773 35.7878 24.6826 36.0825C24.3879 36.3772 23.9882 36.5428 23.5714 36.5428ZM36.1429 36.5428H29.8571C29.4404 36.5428 29.0407 36.3772 28.746 36.0825C28.4513 35.7878 28.2857 35.3881 28.2857 34.9713C28.2857 34.5546 28.4513 34.1549 28.746 33.8602C29.0407 33.5655 29.4404 33.3999 29.8571 33.3999H36.1429C36.5596 33.3999 36.9593 33.5655 37.254 33.8602C37.5487 34.1549 37.7143 34.5546 37.7143 34.9713C37.7143 35.3881 37.5487 35.7878 37.254 36.0825C36.9593 36.3772 36.5596 36.5428 36.1429 36.5428ZM3.14286 19.257V14.5428H40.8571V19.257H3.14286Z" fill="url(#paint0_linear_153_396)"/>
<defs>
<linearGradient id="paint0_linear_153_396" x1="22" y1="11.3999" x2="22" y2="42.8285" gradientUnits="userSpaceOnUse">
<stop stop-color="#3139BF"/>
<stop offset="1" stop-color="#1A1F71"/>
</linearGradient>
</defs>
</svg>
