<svg width="56" height="57" viewBox="0 0 56 57" fill="none" xmlns="http://www.w3.org/2000/svg">
<path fill-rule="evenodd" clip-rule="evenodd" d="M15 48.5622H40.75C41.6451 48.5622 42.5036 48.2066 43.1365 47.5737C43.7694 46.9407 44.125 46.0823 44.125 45.1872V15.3999H46C47.6569 15.3999 49 16.743 49 18.3999V49.9789C49 51.6357 47.6569 52.9788 46 52.9788H18C16.3431 52.9788 15 51.6357 15 49.9788V48.5622Z" fill="#B8B9CF"/>
<path d="M40.75 6.37469H33.1014C32.1532 5.3131 30.9915 4.46372 29.6924 3.88217C28.3932 3.30062 26.9859 3 25.5625 3C24.1391 3 22.7318 3.30062 21.4326 3.88217C20.1335 4.46372 18.9718 5.3131 18.0236 6.37469H10.375C9.47989 6.37469 8.62145 6.73027 7.98851 7.36321C7.35558 7.99614 7 8.85459 7 9.74969V45.1872C7 46.0823 7.35558 46.9407 7.98851 47.5737C8.62145 48.2066 9.47989 48.5622 10.375 48.5622H40.75C41.6451 48.5622 42.5035 48.2066 43.1365 47.5737C43.7694 46.9407 44.125 46.0823 44.125 45.1872V9.74969C44.125 8.85459 43.7694 7.99614 43.1365 7.36321C42.5035 6.73027 41.6451 6.37469 40.75 6.37469ZM25.5625 6.37469C27.3527 6.37469 29.0696 7.08585 30.3355 8.35172C31.6013 9.61759 32.3125 11.3345 32.3125 13.1247H18.8125C18.8125 11.3345 19.5237 9.61759 20.7895 8.35172C22.0554 7.08585 23.7723 6.37469 25.5625 6.37469ZM32.3125 33.3747H18.8125C18.3649 33.3747 17.9357 33.1969 17.6193 32.8804C17.3028 32.564 17.125 32.1347 17.125 31.6872C17.125 31.2396 17.3028 30.8104 17.6193 30.494C17.9357 30.1775 18.3649 29.9997 18.8125 29.9997H32.3125C32.7601 29.9997 33.1893 30.1775 33.5057 30.494C33.8222 30.8104 34 31.2396 34 31.6872C34 32.1347 33.8222 32.564 33.5057 32.8804C33.1893 33.1969 32.7601 33.3747 32.3125 33.3747ZM32.3125 26.6247H18.8125C18.3649 26.6247 17.9357 26.4469 17.6193 26.1304C17.3028 25.814 17.125 25.3847 17.125 24.9372C17.125 24.4896 17.3028 24.0604 17.6193 23.744C17.9357 23.4275 18.3649 23.2497 18.8125 23.2497H32.3125C32.7601 23.2497 33.1893 23.4275 33.5057 23.744C33.8222 24.0604 34 24.4896 34 24.9372C34 25.3847 33.8222 25.814 33.5057 26.1304C33.1893 26.4469 32.7601 26.6247 32.3125 26.6247Z" fill="url(#paint0_linear_153_362)"/>
<defs>
<linearGradient id="paint0_linear_153_362" x1="25.5625" y1="3" x2="25.5625" y2="48.5622" gradientUnits="userSpaceOnUse">
<stop stop-color="#3139BF"/>
<stop offset="1" stop-color="#1A1F71"/>
</linearGradient>
</defs>
</svg>
