<svg width="56" height="57" viewBox="0 0 56 57" fill="none" xmlns="http://www.w3.org/2000/svg">
<path fill-rule="evenodd" clip-rule="evenodd" d="M43.1779 37.5252C45.5884 33.9176 46.875 29.6762 46.875 25.3374C46.8714 21.9199 46.0713 18.5852 44.5776 15.5815C49.691 19.4118 53 25.5194 53 32.3999C53 43.9979 43.598 53.3999 32 53.3999C25.1258 53.3999 19.023 50.0969 15.1921 44.9914C16.9148 45.8456 18.7515 46.4742 20.6577 46.8534C24.9132 47.6998 29.3241 47.2654 33.3326 45.605C37.3412 43.9446 40.7674 41.1328 43.1779 37.5252Z" fill="#B8B9CF"/>
<path fill-rule="evenodd" clip-rule="evenodd" d="M43.1779 37.5252C45.5884 33.9176 46.875 29.6762 46.875 25.3374C46.8689 19.5211 44.5556 13.9448 40.4429 9.83203C36.3301 5.71928 30.7538 3.40604 24.9375 3.3999C20.5987 3.3999 16.3573 4.68651 12.7497 7.09704C9.14208 9.50756 6.3303 12.9337 4.6699 16.9423C3.00951 20.9508 2.57507 25.3617 3.42153 29.6172C4.268 33.8727 6.35734 37.7815 9.42536 40.8496C12.4934 43.9176 16.4023 46.0069 20.6577 46.8534C24.9132 47.6998 29.3241 47.2654 33.3326 45.605C37.3412 43.9446 40.7674 41.1328 43.1779 37.5252Z" fill="url(#paint0_linear_153_401)"/>
<path d="M24.3867 35.4736C22.1062 35.3555 20.3118 34.7286 19.0034 33.5928C17.7041 32.448 17.0363 30.8262 17 28.7274H21.4702C21.5156 29.5542 21.7927 30.2129 22.3015 30.7036C22.8194 31.1851 23.5145 31.4759 24.3867 31.5758V27.092L22.9966 26.7649C19.3441 25.9199 17.5179 24.1028 17.5179 21.3135C17.5088 20.1959 17.795 19.1965 18.3765 18.3152C18.958 17.4248 19.7666 16.7115 20.8024 16.1755C21.8472 15.6394 23.042 15.326 24.3867 15.2351V13H25.9676V15.2351C27.3214 15.3169 28.5026 15.6258 29.5111 16.1618C30.5287 16.6888 31.3146 17.3975 31.8688 18.2879C32.4231 19.1783 32.7093 20.1959 32.7274 21.3407H28.2572C28.2118 20.7229 27.9938 20.2232 27.6031 19.8416C27.2124 19.4509 26.6672 19.2056 25.9676 19.1056V23.3578L26.9761 23.6031C28.9205 24.0392 30.406 24.7433 31.4327 25.7155C32.4685 26.6877 32.9909 27.9461 33 29.4906C32.9909 30.6627 32.7093 31.6848 32.155 32.5571C31.6008 33.4202 30.7967 34.1016 29.7428 34.6014C28.6888 35.1011 27.4304 35.3918 25.9676 35.4736V37.6951H24.3867V35.4736ZM22.3152 21.0409C22.3152 21.5043 22.4923 21.8949 22.8467 22.2129C23.2101 22.5219 23.7235 22.7763 24.3867 22.9761V19.1056C23.7053 19.2147 23.1874 19.4418 22.833 19.7871C22.4878 20.1232 22.3152 20.5412 22.3152 21.0409ZM25.9676 31.5622C26.6854 31.4532 27.2442 31.2169 27.644 30.8535C28.0528 30.481 28.2663 30.0267 28.2845 29.4906C28.2754 29.0091 28.0846 28.6139 27.7121 28.3049C27.3396 27.9869 26.7581 27.7144 25.9676 27.4872V31.5622Z" fill="white"/>
<defs>
<linearGradient id="paint0_linear_153_401" x1="24.9375" y1="3.3999" x2="24.9375" y2="47.2749" gradientUnits="userSpaceOnUse">
<stop stop-color="#3139BF"/>
<stop offset="1" stop-color="#1A1F71"/>
</linearGradient>
</defs>
</svg>
