<svg width="211" height="211" viewBox="0 0 211 211" fill="none" xmlns="http://www.w3.org/2000/svg">
<rect x="0.599976" width="210.4" height="210.4" rx="105.2" fill="white"/>
<path d="M114.831 84.9382H102.468C102.429 85.8367 102.409 86.5398 102.409 87.0476C102.409 87.5164 102.429 88.1804 102.468 89.0398H112.839L110.495 93.8445H103.23C104.441 97.907 107.077 99.9382 111.14 99.9382C112.722 99.9382 114.079 99.6843 115.212 99.1765C116.364 98.6687 117.487 98.0437 118.581 97.3015L122.331 105.153C120.808 106.344 119.099 107.253 117.204 107.878C115.31 108.483 113.288 108.786 111.14 108.786C108.112 108.786 105.359 108.21 102.878 107.057C100.417 105.885 98.3371 104.177 96.6379 101.93C94.9582 99.6843 93.757 96.989 93.0344 93.8445H86.9406L88.6984 89.0398H92.3898C92.3508 88.1804 92.3312 87.5164 92.3312 87.0476C92.3312 86.5398 92.3508 85.8367 92.3898 84.9382H86.9406L88.6984 80.2507H93.0344C93.757 77.0671 94.9582 74.3523 96.6379 72.1062C98.3371 69.8406 100.417 68.1218 102.878 66.95C105.359 65.7781 108.112 65.1921 111.14 65.1921C115.417 65.1921 119.187 66.4226 122.448 68.8835L118.757 76.7351C118.523 76.5789 118.327 76.4617 118.171 76.3835C116.999 75.6804 115.886 75.114 114.831 74.6843C113.777 74.2546 112.546 74.0398 111.14 74.0398C107.097 74.0398 104.46 76.1101 103.23 80.2507H116.941L114.831 84.9382Z" fill="#1A1F71"/>
<path d="M85.7394 138.645H95.8586V140.987H88.5324V145.241H95.3215V147.583H88.5324V151.837H95.9016V154.2H85.7394V138.645ZM111.177 138.645V148.807C111.177 149.91 110.912 150.888 110.382 151.74C109.859 152.592 109.118 153.255 108.158 153.727C107.206 154.2 106.107 154.436 104.861 154.436C103.607 154.436 102.501 154.2 101.541 153.727C100.589 153.255 99.8511 152.592 99.3283 151.74C98.8055 150.888 98.5441 149.91 98.5441 148.807V138.645H101.337V148.571C101.337 149.223 101.48 149.803 101.767 150.311C102.06 150.82 102.472 151.221 103.002 151.514C103.539 151.801 104.159 151.944 104.861 151.944C105.562 151.944 106.178 151.801 106.708 151.514C107.238 151.228 107.646 150.83 107.933 150.322C108.219 149.806 108.362 149.223 108.362 148.571V138.645H111.177ZM114.056 138.645H119.9C121.067 138.645 122.059 138.853 122.875 139.268C123.699 139.677 124.322 140.253 124.744 140.998C125.167 141.743 125.378 142.613 125.378 143.608C125.378 144.668 125.138 145.578 124.658 146.337C124.186 147.096 123.491 147.662 122.574 148.034L125.937 154.2H122.821L119.771 148.507H116.849V154.2H114.056V138.645ZM119.47 146.165C121.504 146.165 122.521 145.313 122.521 143.608C122.521 142.763 122.27 142.115 121.769 141.664C121.267 141.213 120.501 140.987 119.47 140.987H116.849V146.165H119.47Z" fill="#222222"/>
</svg>
