<svg width="600" height="375" viewBox="0 0 600 375" fill="none" xmlns="http://www.w3.org/2000/svg">
<g clip-path="url(#clip0_141_668)">
<g opacity="0.8" filter="url(#filter0_b_141_668)">
<path opacity="0.1" fill-rule="evenodd" clip-rule="evenodd" d="M598.988 352.019C598.992 355.035 598.4 358.023 597.246 360.81C596.091 363.597 594.398 366.128 592.261 368.258C590.125 370.388 587.589 372.074 584.799 373.22C582.009 374.367 579.02 374.95 576.003 374.937L22.8682 373.145C16.7913 373.123 10.9716 370.69 6.68702 366.38C2.40245 362.071 0.00336368 356.237 0.016595 350.16L1.04549 22.8361C1.05419 19.8273 1.65573 16.8496 2.81572 14.0733C3.97571 11.2971 5.67142 8.77657 7.80593 6.65593C9.94045 4.53528 12.4719 2.85605 15.2557 1.71418C18.0395 0.572314 21.021 -0.00978705 24.0299 0.00112724L577.182 1.66065C580.201 1.67147 583.189 2.27884 585.973 3.4479C588.757 4.61695 591.282 6.32463 593.404 8.4728C595.526 10.621 597.203 13.1673 598.337 15.9654C599.472 18.7636 600.043 21.7584 600.017 24.7778L598.988 352.019Z" fill="white"/>
</g>
<g style="mix-blend-mode:lighten" opacity="0.36">
<path fill-rule="evenodd" clip-rule="evenodd" d="M598.988 352.019C598.992 355.035 598.4 358.023 597.246 360.81C596.091 363.597 594.398 366.128 592.261 368.258C590.125 370.388 587.589 372.074 584.799 373.22C582.009 374.367 579.02 374.95 576.003 374.937L22.8682 373.145C16.7913 373.123 10.9716 370.69 6.68702 366.38C2.40245 362.071 0.00336368 356.237 0.016595 350.16L1.04549 22.8361C1.05419 19.8273 1.65573 16.8496 2.81572 14.0733C3.97571 11.2971 5.67142 8.77657 7.80593 6.65593C9.94045 4.53528 12.4719 2.85605 15.2557 1.71418C18.0395 0.572314 21.021 -0.00978705 24.0299 0.00112724L577.182 1.66065C580.201 1.67147 583.189 2.27884 585.973 3.4479C588.757 4.61695 591.282 6.32463 593.404 8.4728C595.526 10.621 597.203 13.1673 598.337 15.9654C599.472 18.7636 600.043 21.7584 600.017 24.7778L598.988 352.019Z" fill="url(#paint0_linear_141_668)"/>
</g>
<g style="mix-blend-mode:lighten">
<g style="mix-blend-mode:overlay">
<path d="M597.988 352.016V352.02C597.992 354.905 597.426 357.762 596.322 360.427C595.218 363.092 593.598 365.513 591.555 367.549C589.513 369.586 587.087 371.199 584.419 372.295C581.751 373.392 578.892 373.949 576.008 373.937H576.007L22.8714 372.145C17.0599 372.124 11.4939 369.797 7.39617 365.675C3.29842 361.554 1.00394 355.974 1.01659 350.162L2.04549 22.8393L2.04549 22.839C2.05381 19.9616 2.62908 17.1139 3.73842 14.4589C4.84776 11.8038 6.46942 9.39338 8.51073 7.36533C10.552 5.33729 12.973 3.73138 15.6352 2.63937C18.2974 1.54737 21.1488 0.990683 24.0262 1.00112L24.0269 1.00112L577.178 2.66064C580.066 2.67099 582.923 3.25186 585.586 4.3699C588.248 5.48795 590.663 7.12111 592.693 9.17555C594.722 11.23 596.325 13.6652 597.411 16.3413C598.496 19.0173 599.042 21.8814 599.017 24.7691V24.7746L597.988 352.016Z" stroke="url(#paint1_linear_141_668)" stroke-width="2"/>
</g>
</g>
<path d="M577.727 2.31898L166 1L381.556 372.39L576.543 373C582.48 373.013 588.181 370.632 592.393 366.379C596.605 362.126 598.985 356.348 599.01 350.314L600 25.1207C600.013 19.0978 597.676 13.3154 593.501 9.04117C589.325 4.7669 583.653 2.34952 577.727 2.31898Z" fill="white" fill-opacity="0.05" style="mix-blend-mode:screen"/>
<g filter="url(#filter1_d_141_668)">
<path fill-rule="evenodd" clip-rule="evenodd" d="M184.184 61.8102H165.766V56.9634H184.184C187.396 56.9634 190 59.5674 190 62.7795V64.7183C190 67.9304 187.396 70.5344 184.184 70.5344H170.613V79.2587H165.766V65.6876H170.128H170.613H184.184C184.719 65.6876 185.153 65.2536 185.153 64.7183V62.7795C185.153 62.2442 184.719 61.8102 184.184 61.8102Z" fill="white"/>
<path fill-rule="evenodd" clip-rule="evenodd" d="M144.44 61.8102H157.042H158.011H161.889C162.424 61.8102 162.858 61.3762 162.858 60.8408V57.9327C162.858 57.3974 162.424 56.9634 161.889 56.9634H158.011H144.44C141.228 56.9634 138.624 59.5674 138.624 62.7795V64.7183C138.624 67.9304 141.228 70.5344 144.44 70.5344H157.042C157.372 70.5344 158.011 71.0191 158.011 71.5038V71.9885V73.4425C158.011 73.9779 157.577 74.4119 157.042 74.4119H144.925H143.471H138.624V79.2587H143.471H157.042C160.254 79.2587 162.858 76.6547 162.858 73.4425V71.5038C162.858 68.6219 160.762 66.2295 158.011 65.768L157.042 65.6876H144.44C143.905 65.6876 143.471 65.2536 143.471 64.7183V62.7795C143.471 62.2442 143.905 61.8102 144.44 61.8102Z" fill="white"/>
<path fill-rule="evenodd" clip-rule="evenodd" d="M129.9 61.8102H111.482V56.9634H129.9C133.112 56.9634 135.716 59.5674 135.716 62.7795V64.7183C135.716 67.9304 133.112 70.5344 129.9 70.5344H116.329V79.2587H111.482V65.6876H115.844H116.329H129.9C130.435 65.6876 130.869 65.2536 130.869 64.7183V62.7795C130.869 62.2442 130.435 61.8102 129.9 61.8102Z" fill="white"/>
<path fill-rule="evenodd" clip-rule="evenodd" d="M89.1864 61.8102H102.757C103.293 61.8102 103.727 62.2442 103.727 62.7795V64.7183C103.727 65.2536 103.293 65.6876 102.757 65.6876H89.1864V61.8102ZM89.1864 56.9634H102.757C105.97 56.9634 108.574 59.5674 108.574 62.7795V64.7183C108.574 65.9844 108.169 67.1561 107.482 68.111C108.169 69.066 108.574 70.2376 108.574 71.5038V73.4425C108.574 76.6547 105.97 79.2587 102.757 79.2587H89.1864H84.3396V74.4119V70.5344V65.6876V61.8102V56.9634H89.1864ZM89.1864 70.5344V74.4119H102.757C103.293 74.4119 103.727 73.9779 103.727 73.4425V71.5038C103.727 70.9684 103.293 70.5344 102.757 70.5344H89.1864Z" fill="white"/>
<path fill-rule="evenodd" clip-rule="evenodd" d="M55.283 58.284H68.4906V65.5481H73.7736V53.001H50V65.5481H55.283V58.284Z" fill="white"/>
<path d="M50 70.8311H55.283V77.4348H68.4906V70.8311H73.7736V82.7178H50V70.8311Z" fill="white"/>
</g>
<g clip-path="url(#clip1_141_668)">
<path d="M463.336 105.322C463.332 108.241 464.484 111.043 466.542 113.113C468.6 115.184 471.394 116.354 474.314 116.368H477.712V95.3643H463.319L463.336 105.322Z" fill="#E9E9F4"/>
<path d="M474.466 53.0861C471.553 53.0861 468.76 54.2421 466.698 56.3003C464.637 58.3585 463.477 61.1506 463.472 64.0636V71.2856H477.882V53.0352H474.483L474.466 53.0861Z" fill="#E9E9F4"/>
<path d="M489.59 92.4416C489.616 89.3236 490.741 86.3146 492.768 83.9451C490.739 81.5469 489.631 78.5048 489.641 75.3637C489.649 74.525 489.734 73.6887 489.896 72.8657H479.326V94.0219H489.811C489.7 93.5011 489.626 92.973 489.59 92.4416Z" fill="#E9E9F4"/>
<path d="M463.459 72.7145L463.393 93.8706L477.803 93.9159L477.869 72.7598L463.459 72.7145Z" fill="#E9E9F4"/>
<path d="M515.776 71.3703H527.875V53.1369L504.391 53.0859V62.0242C506.995 62.2964 509.462 63.3271 511.486 64.9885C513.51 66.6499 515.002 68.8689 515.776 71.3703Z" fill="#E9E9F4"/>
<path d="M502.879 61.9223V53.0859H479.377V71.3193H490.372C491.206 68.6384 492.863 66.288 495.108 64.6013C497.353 62.9147 500.071 61.9774 502.879 61.9223Z" fill="#E9E9F4"/>
<path d="M533.908 94.0727V72.9165H516.184C516.349 73.7388 516.429 74.5758 516.422 75.4145C516.398 78.5298 515.279 81.5375 513.261 83.9109C515.26 86.2922 516.36 89.2987 516.371 92.4074C516.347 92.9082 516.296 93.4074 516.218 93.9028L533.908 94.0727Z" fill="#E9E9F4"/>
<path d="M529.371 116.538H532.769C535.684 116.533 538.479 115.377 540.545 113.321C542.61 111.264 543.78 108.475 543.798 105.56V95.5684H529.371V116.538Z" fill="#E9E9F4"/>
<path d="M489.947 95.4321H479.258V116.418H502.777V105.849C499.783 105.792 496.894 104.736 494.569 102.849C492.244 100.961 490.617 98.3506 489.947 95.4321Z" fill="#E9E9F4"/>
<path d="M535.488 72.9288L535.422 94.085L543.697 94.111L543.764 72.9548L535.488 72.9288Z" fill="#E9E9F4"/>
<path d="M532.769 53.1878H529.473V71.4212H543.781V64.1992C543.787 62.7526 543.508 61.3188 542.96 59.9801C542.412 58.6414 541.604 57.4241 540.585 56.398C539.565 55.3719 538.352 54.5572 537.017 54.0004C535.682 53.4437 534.25 53.156 532.803 53.1538L532.769 53.1878Z" fill="#E9E9F4"/>
<path d="M504.221 105.764V116.452H527.841V95.4492H516.031C515.397 98.1917 513.914 100.664 511.794 102.516C509.674 104.368 507.024 105.504 504.221 105.764Z" fill="#E9E9F4"/>
<path d="M514.944 92.5094C514.955 89.5149 513.824 86.6286 511.783 84.4378L511.307 83.928L511.783 83.4182C513.35 81.719 514.389 79.5998 514.771 77.3198C515.154 75.0398 514.863 72.6978 513.936 70.5802C513.008 68.4626 511.484 66.6611 509.549 65.3962C507.614 64.1312 505.352 63.4575 503.04 63.4575C500.728 63.4575 498.466 64.1312 496.531 65.3962C494.596 66.6611 493.072 68.4626 492.144 70.5802C491.217 72.6978 490.926 75.0398 491.309 77.3198C491.691 79.5998 492.73 81.719 494.297 83.4182L494.773 83.928L494.297 84.4208C492.989 85.8421 492.046 87.5607 491.551 89.428C491.056 91.2952 491.023 93.255 491.455 95.1379C491.887 97.0207 492.772 98.77 494.032 100.234C495.291 101.699 496.889 102.835 498.686 103.543C500.483 104.252 502.426 104.512 504.346 104.301C506.267 104.09 508.107 103.415 509.707 102.334C511.308 101.252 512.622 99.7972 513.534 98.0944C514.446 96.3916 514.93 94.4922 514.944 92.5604V92.5094Z" fill="#E9E9F4"/>
<path d="M74.2319 176.913V180.533L62.7107 206.277H56.8652L67.9955 181.501H56.4403V186.497H51.3425V176.862L74.2319 176.913Z" fill="#EDEDED"/>
<path d="M102.287 193.804C103.124 195.035 103.552 196.497 103.511 197.985C103.54 199.675 103.015 201.328 102.015 202.692C100.921 204.101 99.4473 205.168 97.7671 205.767C93.662 207.194 89.1955 207.194 85.0904 205.767C83.4306 205.139 81.9857 204.048 80.9271 202.624C79.9407 201.256 79.4276 199.603 79.4657 197.917C79.4387 196.429 79.8719 194.969 80.7062 193.736C81.5742 192.492 82.7676 191.51 84.1558 190.899C83.022 190.321 82.0763 189.433 81.4292 188.337C80.7822 187.242 80.4607 185.985 80.5023 184.713C80.4864 183.156 80.9752 181.636 81.8957 180.38C82.8842 179.092 84.2151 178.109 85.7361 177.542C89.4491 176.209 93.5104 176.209 97.2234 177.542C98.7888 178.147 100.15 179.184 101.149 180.533C102.071 181.787 102.555 183.31 102.525 184.866C102.543 186.141 102.201 187.395 101.54 188.486C100.854 189.562 99.8993 190.441 98.7697 191.034C100.169 191.627 101.383 192.583 102.287 193.804ZM96.2378 201.281C96.7822 200.882 97.2248 200.36 97.53 199.758C97.8351 199.155 97.9941 198.49 97.9941 197.815C97.9941 197.14 97.8351 196.474 97.53 195.872C97.2248 195.269 96.7822 194.747 96.2378 194.348C94.7811 193.525 93.1361 193.092 91.4628 193.092C89.7894 193.092 88.1445 193.525 86.6877 194.348C86.1478 194.732 85.7104 195.243 85.4141 195.835C85.1178 196.428 84.9716 197.084 84.9884 197.747C84.962 198.423 85.1034 199.094 85.3999 199.702C85.6964 200.31 86.1389 200.835 86.6877 201.23C88.0916 202.151 89.7516 202.604 91.4288 202.522C93.1221 202.622 94.8041 202.188 96.2378 201.281ZM87.4354 181.926C86.9731 182.285 86.599 182.745 86.3416 183.271C86.0843 183.797 85.9505 184.374 85.9505 184.959C85.9505 185.545 86.0843 186.122 86.3416 186.648C86.599 187.174 86.9731 187.634 87.4354 187.993C88.6312 188.798 90.057 189.192 91.4968 189.114C92.9486 189.201 94.3899 188.82 95.609 188.027C96.0836 187.674 96.469 187.215 96.7346 186.687C97.0001 186.159 97.1385 185.576 97.1385 184.985C97.1385 184.394 97.0001 183.811 96.7346 183.283C96.469 182.755 96.0836 182.296 95.609 181.943C94.3967 181.148 92.9617 180.761 91.5137 180.839C90.0733 180.759 88.645 181.14 87.4354 181.926Z" fill="#EDEDED"/>
<path d="M128.337 190.899C129.315 191.688 130.093 192.696 130.61 193.841C131.126 194.986 131.366 196.237 131.311 197.492C131.316 199.175 130.857 200.827 129.986 202.267C129.043 203.764 127.677 204.947 126.06 205.666C124.041 206.562 121.845 206.986 119.637 206.906C117.569 206.911 115.512 206.602 113.537 205.988C111.747 205.464 110.07 204.611 108.592 203.473L110.903 199.225C112.076 200.163 113.404 200.888 114.828 201.366C116.355 201.887 117.956 202.157 119.569 202.165C121.174 202.256 122.767 201.84 124.123 200.975C124.668 200.588 125.11 200.073 125.412 199.476C125.714 198.88 125.867 198.219 125.856 197.55C125.846 196.881 125.674 196.225 125.355 195.638C125.035 195.051 124.577 194.55 124.021 194.178C122.125 193.242 120.011 192.837 117.904 193.006H110.801L112.364 176.981H129.646V181.57H116.986L116.34 188.367H119.161C123.296 188.446 126.355 189.29 128.337 190.899Z" fill="#EDEDED"/>
<path d="M156.682 180.533C159.09 183.619 160.271 187.487 159.995 191.392C160.087 194.331 159.457 197.248 158.16 199.888C157.034 202.138 155.258 203.997 153.062 205.224C150.744 206.463 148.145 207.083 145.517 207.025C144.081 207.031 142.649 206.866 141.252 206.532C140.047 206.25 138.899 205.767 137.853 205.105L139.876 200.993C141.558 202.011 143.502 202.513 145.466 202.437C146.695 202.513 147.925 202.322 149.072 201.876C150.22 201.43 151.256 200.74 152.111 199.854C153.848 197.751 154.717 195.065 154.541 192.343C153.619 193.379 152.45 194.162 151.142 194.62C149.693 195.166 148.152 195.425 146.605 195.385C144.803 195.411 143.02 195.027 141.388 194.263C139.904 193.568 138.653 192.459 137.785 191.069C136.906 189.64 136.458 187.988 136.494 186.311C136.464 184.533 136.967 182.787 137.938 181.298C138.891 179.829 140.232 178.653 141.813 177.899C143.526 177.105 145.397 176.71 147.285 176.744C149.033 176.645 150.782 176.933 152.407 177.588C154.031 178.243 155.491 179.249 156.682 180.533ZM151.992 189.607C152.527 189.169 152.957 188.616 153.251 187.99C153.545 187.364 153.695 186.68 153.691 185.988C153.704 185.313 153.566 184.644 153.287 184.029C153.007 183.414 152.594 182.87 152.077 182.436C150.808 181.436 149.221 180.929 147.607 181.009C146.099 180.933 144.617 181.417 143.444 182.368C142.941 182.833 142.54 183.397 142.265 184.024C141.991 184.651 141.849 185.329 141.849 186.013C141.849 186.698 141.991 187.375 142.265 188.003C142.54 188.63 142.941 189.194 143.444 189.658C144.696 190.56 146.2 191.045 147.743 191.045C149.286 191.045 150.79 190.56 152.043 189.658L151.992 189.607Z" fill="#EDEDED"/>
<path d="M199.436 191.119C200.413 191.908 201.191 192.916 201.704 194.062C202.218 195.207 202.454 196.458 202.393 197.713C202.412 199.401 201.958 201.061 201.084 202.505C200.129 203.991 198.767 205.171 197.159 205.903C195.134 206.799 192.932 207.224 190.718 207.144C188.656 207.149 186.604 206.839 184.635 206.226C182.838 205.705 181.155 204.852 179.673 203.711L182.001 199.463C183.169 200.408 184.499 201.133 185.926 201.604C187.447 202.125 189.043 202.395 190.65 202.403C192.261 202.496 193.861 202.08 195.222 201.213C195.759 200.821 196.195 200.305 196.492 199.709C196.79 199.113 196.94 198.454 196.93 197.788C196.92 197.122 196.75 196.469 196.435 195.882C196.12 195.295 195.669 194.792 195.12 194.416C193.221 193.489 191.109 193.084 189.002 193.244H181.899L183.462 177.219H200.744V181.807H188.085L187.439 188.604H190.243C194.389 188.689 197.448 189.505 199.436 191.119Z" fill="#EDEDED"/>
<path d="M226.642 191.204C227.616 191.995 228.391 193.004 228.904 194.149C229.418 195.294 229.656 196.544 229.598 197.798C229.622 199.483 229.162 201.14 228.273 202.573C227.332 204.065 225.973 205.247 224.364 205.971C222.339 206.866 220.137 207.29 217.924 207.212C215.856 207.217 213.799 206.908 211.824 206.294C210.034 205.77 208.357 204.917 206.879 203.779L209.207 199.531C210.375 200.476 211.705 201.201 213.132 201.672C214.653 202.193 216.249 202.462 217.856 202.471C219.467 202.562 221.065 202.146 222.427 201.281C222.968 200.889 223.405 200.373 223.703 199.776C224.002 199.179 224.151 198.519 224.139 197.852C224.128 197.184 223.955 196.53 223.636 195.943C223.318 195.357 222.862 194.856 222.308 194.484C220.415 193.56 218.309 193.155 216.208 193.311H209.088L210.651 177.287H227.933V181.875H215.29L214.628 188.672H217.448C221.583 188.752 224.648 189.596 226.642 191.204Z" fill="#EDEDED"/>
<path d="M254.221 189.862C255.699 190.558 256.948 191.66 257.824 193.04C258.7 194.47 259.148 196.121 259.115 197.798C259.15 199.603 258.648 201.377 257.671 202.896C256.708 204.356 255.37 205.531 253.796 206.294C252.08 207.079 250.211 207.473 248.324 207.45C246.573 207.545 244.822 207.251 243.198 206.59C241.573 205.929 240.115 204.917 238.927 203.626C236.531 200.535 235.357 196.67 235.631 192.768C235.543 189.829 236.173 186.912 237.466 184.271C238.593 182.027 240.369 180.173 242.564 178.953C244.879 177.706 247.48 177.085 250.109 177.151C251.545 177.145 252.977 177.31 254.374 177.644C255.578 177.93 256.726 178.412 257.773 179.072L255.784 183.065C254.099 182.055 252.158 181.553 250.194 181.62C248.962 181.553 247.73 181.75 246.581 182.198C245.432 182.647 244.393 183.336 243.532 184.22C241.807 186.329 240.945 189.013 241.119 191.731C242.04 190.691 243.209 189.901 244.518 189.437C245.971 188.908 247.509 188.649 249.055 188.673C250.844 188.681 252.609 189.087 254.221 189.862ZM252.199 201.672C252.741 201.236 253.176 200.682 253.471 200.051C253.765 199.421 253.912 198.731 253.898 198.036C253.927 197.344 253.8 196.655 253.527 196.02C253.253 195.385 252.84 194.819 252.318 194.365C251.094 193.426 249.577 192.95 248.036 193.023C246.471 192.939 244.932 193.442 243.719 194.433C243.202 194.877 242.787 195.427 242.503 196.046C242.218 196.664 242.071 197.338 242.071 198.019C242.071 198.7 242.218 199.373 242.503 199.992C242.787 200.611 243.202 201.161 243.719 201.604C244.986 202.606 246.576 203.108 248.189 203.015C249.642 203.057 251.063 202.581 252.199 201.672Z" fill="#EDEDED"/>
<path d="M286.134 202.386V207.008H264.434V203.354L276.159 192.292C277.228 191.347 278.135 190.233 278.844 188.995C279.287 188.132 279.525 187.179 279.541 186.208C279.576 185.611 279.47 185.013 279.231 184.463C278.991 183.914 278.626 183.429 278.164 183.048C276.968 182.231 275.531 181.842 274.086 181.943C272.776 181.862 271.467 182.096 270.266 182.625C269.066 183.154 268.01 183.964 267.187 184.985L263.363 182.028C264.58 180.452 266.184 179.217 268.019 178.443C270.092 177.584 272.318 177.156 274.562 177.185C277.297 177.059 279.994 177.868 282.208 179.479C283.138 180.211 283.88 181.154 284.374 182.23C284.867 183.305 285.098 184.483 285.046 185.665C285.055 187.224 284.706 188.765 284.027 190.168C283.022 191.977 281.704 193.594 280.135 194.943L272.251 202.403L286.134 202.386Z" fill="#EDEDED"/>
<path d="M332.847 200.466H327.631V207.161H322.329V200.466H306.185V196.693L320.748 177.763H326.594L312.898 195.827H322.516V189.879H327.614V195.827H332.83L332.847 200.466Z" fill="#EDEDED"/>
<path d="M361.141 194.603C361.983 195.837 362.411 197.307 362.364 198.8C362.401 200.486 361.875 202.137 360.869 203.49C359.783 204.905 358.315 205.978 356.637 206.583C354.602 207.32 352.447 207.672 350.282 207.619C348.125 207.667 345.978 207.298 343.961 206.532C342.296 205.93 340.843 204.855 339.78 203.439C338.794 202.065 338.281 200.407 338.319 198.715C338.3 197.228 338.732 195.77 339.56 194.535C340.442 193.288 341.654 192.312 343.06 191.714C341.937 191.125 341.002 190.233 340.359 189.14C339.717 188.047 339.393 186.796 339.424 185.529C339.389 183.971 339.873 182.447 340.8 181.195C341.798 179.907 343.133 178.919 344.657 178.341C348.362 176.993 352.423 176.993 356.128 178.341C357.653 178.917 358.988 179.906 359.985 181.195C360.91 182.455 361.394 183.984 361.362 185.546C361.392 186.817 361.049 188.069 360.376 189.148C359.686 190.225 358.733 191.109 357.606 191.714C359.029 192.331 360.253 193.331 361.141 194.603ZM355.091 202.097C355.643 201.705 356.088 201.18 356.385 200.572C356.682 199.963 356.821 199.29 356.79 198.613C356.815 197.95 356.672 197.291 356.375 196.697C356.078 196.103 355.637 195.593 355.091 195.215C353.667 194.296 351.992 193.844 350.299 193.923C348.62 193.831 346.955 194.271 345.541 195.181C345.006 195.586 344.572 196.11 344.273 196.712C343.974 197.313 343.819 197.976 343.819 198.647C343.819 199.319 343.974 199.981 344.273 200.583C344.572 201.184 345.006 201.708 345.541 202.114C346.945 203.034 348.606 203.481 350.282 203.388C351.964 203.462 353.627 203.011 355.04 202.097H355.091ZM346.306 182.725C345.84 183.084 345.463 183.544 345.204 184.072C344.945 184.599 344.81 185.179 344.81 185.767C344.81 186.354 344.945 186.934 345.204 187.461C345.463 187.989 345.84 188.449 346.306 188.808C347.501 189.614 348.927 190.008 350.367 189.93C351.826 190.015 353.275 189.628 354.496 188.825C354.968 188.472 355.35 188.014 355.614 187.488C355.877 186.961 356.014 186.381 356.014 185.792C356.014 185.203 355.877 184.623 355.614 184.096C355.35 183.57 354.968 183.112 354.496 182.759C353.279 181.96 351.838 181.572 350.384 181.654C348.927 181.541 347.473 181.918 346.255 182.725H346.306Z" fill="#EDEDED"/>
<path d="M387.14 191.698C388.114 192.489 388.89 193.498 389.406 194.642C389.923 195.787 390.165 197.036 390.114 198.291C390.135 199.981 389.675 201.643 388.788 203.083C387.843 204.571 386.485 205.752 384.88 206.481C382.852 207.368 380.652 207.792 378.439 207.722C376.371 207.713 374.315 207.398 372.339 206.787C370.546 206.27 368.868 205.416 367.394 204.272L369.722 200.041C370.887 200.987 372.218 201.707 373.647 202.165C375.166 202.695 376.763 202.965 378.371 202.964C379.978 203.066 381.574 202.649 382.926 201.774C383.456 201.386 383.886 200.877 384.18 200.288C384.473 199.7 384.621 199.049 384.611 198.392C384.601 197.734 384.433 197.089 384.122 196.509C383.811 195.93 383.366 195.434 382.824 195.062C380.926 194.129 378.815 193.718 376.706 193.873H369.637L371.2 177.865H388.482V182.453H375.839L375.177 189.251H377.998C382.093 189.268 385.169 190.083 387.14 191.698Z" fill="#EDEDED"/>
<path d="M415.518 181.349C417.913 184.44 419.087 188.306 418.815 192.207C418.902 195.146 418.272 198.063 416.979 200.704C415.853 202.948 414.076 204.801 411.881 206.022C409.569 207.277 406.966 207.898 404.337 207.824C402.9 207.83 401.468 207.665 400.071 207.331C398.87 207.046 397.723 206.57 396.673 205.92L398.712 201.808C400.392 202.815 402.328 203.317 404.286 203.252C405.516 203.322 406.747 203.128 407.896 202.683C409.045 202.237 410.085 201.551 410.947 200.67C412.671 198.554 413.533 195.865 413.36 193.142C412.439 194.177 411.269 194.961 409.961 195.419C408.508 195.948 406.97 196.207 405.424 196.183C403.622 196.198 401.839 195.809 400.207 195.045C398.73 194.349 397.48 193.247 396.605 191.867C395.725 190.439 395.277 188.786 395.313 187.109C395.272 185.303 395.775 183.527 396.758 182.011C397.715 180.547 399.055 179.371 400.632 178.613C402.344 177.815 404.215 177.414 406.104 177.44C407.865 177.353 409.623 177.659 411.251 178.335C412.879 179.011 414.336 180.04 415.518 181.349ZM410.811 190.406C411.35 189.974 411.783 189.425 412.077 188.801C412.372 188.177 412.52 187.494 412.51 186.803C412.521 186.126 412.382 185.455 412.103 184.838C411.824 184.221 411.412 183.674 410.896 183.235C409.629 182.233 408.039 181.731 406.427 181.824C404.921 181.745 403.439 182.223 402.264 183.167C401.76 183.633 401.358 184.198 401.084 184.827C400.809 185.456 400.667 186.134 400.667 186.82C400.667 187.506 400.809 188.185 401.084 188.814C401.358 189.443 401.76 190.008 402.264 190.474C403.485 191.42 405.002 191.901 406.546 191.833C408.088 191.886 409.597 191.379 410.794 190.406H410.811Z" fill="#EDEDED"/>
<path d="M458.408 190.491C459.892 191.186 461.143 192.295 462.011 193.685C462.89 195.114 463.338 196.766 463.302 198.443C463.332 200.221 462.829 201.967 461.858 203.456C460.909 204.929 459.567 206.106 457.983 206.855C456.273 207.657 454.4 208.053 452.512 208.011C450.764 208.105 449.018 207.813 447.396 207.155C445.775 206.497 444.319 205.489 443.131 204.204C440.723 201.118 439.543 197.25 439.818 193.346C439.743 190.408 440.372 187.494 441.653 184.849C442.779 182.599 444.555 180.74 446.751 179.513C449.074 178.272 451.679 177.651 454.313 177.712C455.749 177.715 457.179 177.88 458.578 178.205C459.78 178.496 460.927 178.978 461.977 179.632L459.954 183.745C458.272 182.726 456.329 182.224 454.364 182.3C453.135 182.224 451.905 182.415 450.758 182.861C449.61 183.307 448.574 183.997 447.72 184.883C445.981 186.992 445.112 189.684 445.29 192.411C446.214 191.38 447.383 190.597 448.688 190.134C450.147 189.605 451.69 189.346 453.242 189.369C455.027 189.346 456.794 189.729 458.408 190.491ZM456.403 202.301C456.904 201.835 457.303 201.271 457.576 200.644C457.849 200.017 457.99 199.34 457.99 198.656C457.99 197.972 457.849 197.295 457.576 196.668C457.303 196.041 456.904 195.477 456.403 195.011C455.151 194.109 453.647 193.624 452.104 193.624C450.561 193.624 449.057 194.109 447.805 195.011C447.266 195.446 446.833 195.998 446.538 196.625C446.244 197.252 446.096 197.938 446.105 198.63C446.085 199.305 446.218 199.975 446.495 200.59C446.772 201.205 447.185 201.75 447.703 202.182C448.974 203.189 450.569 203.697 452.189 203.609C453.707 203.708 455.208 203.242 456.403 202.301Z" fill="#EDEDED"/>
<path d="M490.287 203.015V207.722H468.604V204.051L480.329 192.989C481.397 192.049 482.304 190.941 483.014 189.709C483.457 188.84 483.695 187.881 483.711 186.905C483.75 186.307 483.646 185.708 483.407 185.158C483.167 184.608 482.799 184.123 482.334 183.745C481.138 182.928 479.701 182.539 478.256 182.64C476.945 182.562 475.635 182.799 474.435 183.331C473.234 183.864 472.179 184.675 471.357 185.699L467.533 182.742C468.744 181.16 470.35 179.923 472.189 179.157C474.258 178.283 476.487 177.854 478.732 177.899C481.469 177.76 484.17 178.57 486.379 180.193C487.31 180.923 488.054 181.866 488.548 182.942C489.041 184.018 489.271 185.196 489.216 186.379C489.225 187.938 488.876 189.478 488.197 190.882C487.193 192.687 485.882 194.303 484.322 195.657L476.438 203.117L490.287 203.015Z" fill="#EDEDED"/>
<path d="M514.791 192.105C515.765 192.896 516.54 193.905 517.054 195.05C517.567 196.195 517.805 197.445 517.747 198.699C517.772 200.424 517.289 202.119 516.359 203.572C515.428 205.025 514.091 206.173 512.514 206.872C510.488 207.767 508.286 208.191 506.073 208.113C504.005 208.118 501.948 207.808 499.973 207.195C498.183 206.671 496.506 205.818 495.028 204.68L497.356 200.432C498.524 201.377 499.854 202.102 501.281 202.573C502.802 203.095 504.398 203.365 506.005 203.372C507.616 203.463 509.215 203.047 510.576 202.182C511.117 201.79 511.555 201.274 511.853 200.677C512.151 200.08 512.3 199.42 512.289 198.752C512.277 198.085 512.104 197.431 511.786 196.844C511.467 196.258 511.011 195.757 510.457 195.385C508.567 194.45 506.459 194.045 504.357 194.212H497.237L498.817 178.205H516.082V182.793H503.439L502.777 189.59H505.58C509.727 189.658 512.797 190.497 514.791 192.105Z" fill="#EDEDED"/>
<path d="M549.983 201.145H544.766V207.841H539.481V201.145H523.338V197.356L537.867 178.358H543.713L529.999 196.438H539.617V190.508H544.715V196.438H549.932L549.983 201.145Z" fill="#EDEDED"/>
<circle cx="70" cy="300" r="20" fill="white" fill-opacity="0.6"/>
<circle cx="98" cy="300" r="20" fill="white" fill-opacity="0.6"/>
</g>
</g>
<defs>
<filter id="filter0_b_141_668" x="-5.98346" y="-5.99902" width="612.001" height="386.936" filterUnits="userSpaceOnUse" color-interpolation-filters="sRGB">
<feFlood flood-opacity="0" result="BackgroundImageFix"/>
<feGaussianBlur in="BackgroundImageFix" stdDeviation="3"/>
<feComposite in2="SourceAlpha" operator="in" result="effect1_backgroundBlur_141_668"/>
<feBlend mode="normal" in="SourceGraphic" in2="effect1_backgroundBlur_141_668" result="shape"/>
</filter>
<filter id="filter1_d_141_668" x="46" y="53.001" width="148" height="37.7168" filterUnits="userSpaceOnUse" color-interpolation-filters="sRGB">
<feFlood flood-opacity="0" result="BackgroundImageFix"/>
<feColorMatrix in="SourceAlpha" type="matrix" values="0 0 0 0 0 0 0 0 0 0 0 0 0 0 0 0 0 0 127 0" result="hardAlpha"/>
<feOffset dy="4"/>
<feGaussianBlur stdDeviation="2"/>
<feComposite in2="hardAlpha" operator="out"/>
<feColorMatrix type="matrix" values="0 0 0 0 0.0716667 0 0 0 0 0.140376 0 0 0 0 0.2 0 0 0 0.1 0"/>
<feBlend mode="normal" in2="BackgroundImageFix" result="effect1_dropShadow_141_668"/>
<feBlend mode="normal" in="SourceGraphic" in2="effect1_dropShadow_141_668" result="shape"/>
</filter>
<linearGradient id="paint0_linear_141_668" x1="-54.7041" y1="318.009" x2="412.453" y2="146.593" gradientUnits="userSpaceOnUse">
<stop stop-color="white"/>
<stop offset="0.12" stop-color="white" stop-opacity="0.98"/>
<stop offset="0.26" stop-color="white" stop-opacity="0.92"/>
<stop offset="0.41" stop-color="white" stop-opacity="0.83"/>
<stop offset="0.57" stop-color="white" stop-opacity="0.7"/>
<stop offset="0.74" stop-color="white" stop-opacity="0.53"/>
<stop offset="0.9" stop-color="white" stop-opacity="0.33"/>
<stop offset="1" stop-color="white" stop-opacity="0.2"/>
</linearGradient>
<linearGradient id="paint1_linear_141_668" x1="7.50001" y1="8.00097" x2="600" y2="367.001" gradientUnits="userSpaceOnUse">
<stop stop-color="white"/>
<stop offset="1" stop-color="white" stop-opacity="0"/>
</linearGradient>
<clipPath id="clip0_141_668">
<rect width="600" height="374.853" fill="white" transform="translate(0 0.000976562)"/>
</clipPath>
<clipPath id="clip1_141_668">
<rect width="500" height="268.114" fill="white" transform="translate(50 53.001)"/>
</clipPath>
</defs>
</svg>
