<svg width="212" height="211" viewBox="0 0 212 211" fill="none" xmlns="http://www.w3.org/2000/svg">
<rect x="0.799988" width="210.4" height="210.4" rx="105.2" fill="white"/>
<path d="M105.758 80.7781L111.676 65.7781H121.812L112.643 86.1101H118.707V91.6179H110.562V94.3132H118.707V99.821H110.562V108.2H100.66V99.821H91.6953V94.3132H100.66V91.6179H91.6953V86.1101H98.8144L89.7031 65.7781H99.8398L105.758 80.7781Z" fill="#1A1F71"/>
<path d="M95.8554 138.645V149.581C95.8554 150.569 95.6478 151.428 95.2324 152.159C94.817 152.882 94.2298 153.441 93.4707 153.835C92.7187 154.221 91.845 154.415 90.8496 154.415C89.9258 154.415 89.0986 154.25 88.3681 153.921C87.6448 153.584 87.0755 153.09 86.6601 152.438C86.2448 151.787 86.0371 150.999 86.0371 150.075H88.8301C88.8301 150.705 89.0234 151.203 89.4101 151.568C89.804 151.933 90.3196 152.116 90.957 152.116C91.6373 152.116 92.1601 151.901 92.5254 151.471C92.8906 151.035 93.0768 150.404 93.084 149.581V138.645H95.8554ZM98.7344 138.645H104.578C105.738 138.645 106.73 138.864 107.554 139.301C108.377 139.737 109 140.346 109.423 141.127C109.845 141.9 110.057 142.792 110.057 143.802C110.057 144.804 109.842 145.696 109.412 146.476C108.99 147.25 108.363 147.855 107.532 148.292C106.701 148.721 105.702 148.936 104.535 148.936H101.527V154.2H98.7344V138.645ZM104.148 146.637C105.165 146.637 105.928 146.383 106.437 145.875C106.945 145.359 107.199 144.668 107.199 143.802C107.199 142.928 106.945 142.24 106.437 141.739C105.928 141.238 105.165 140.987 104.148 140.987H101.527V146.637H104.148ZM114.396 138.645L118.221 145.52H118.371L122.195 138.645H125.353L119.703 148.378V154.2H116.91V148.378L111.238 138.645H114.396Z" fill="#222222"/>
</svg>
