<svg width="211" height="211" viewBox="0 0 211 211" fill="none" xmlns="http://www.w3.org/2000/svg">
<rect x="0.199951" width="210.4" height="210.4" rx="105.2" fill="white"/>
<path d="M105.158 80.7781L111.076 65.7781H121.212L112.043 86.1101H118.107V91.6179H109.962V94.3132H118.107V99.821H109.962V108.2H100.06V99.821H91.0953V94.3132H100.06V91.6179H91.0953V86.1101H98.2144L89.1031 65.7781H99.2398L105.158 80.7781Z" fill="#1A1F71"/>
<path d="M93.8238 143.887C93.7164 143.279 93.4908 142.752 93.147 142.308C92.8033 141.864 92.3664 141.528 91.8365 141.299C91.3137 141.062 90.7372 140.944 90.107 140.944C89.2476 140.944 88.4921 141.159 87.8404 141.589C87.1887 142.011 86.6802 142.634 86.315 143.458C85.9498 144.281 85.7671 145.27 85.7671 146.423C85.7671 147.583 85.9498 148.575 86.315 149.398C86.6802 150.222 87.1887 150.845 87.8404 151.267C88.4992 151.69 89.2548 151.901 90.107 151.901C90.7229 151.901 91.2886 151.79 91.8042 151.568C92.327 151.339 92.7639 151.01 93.1148 150.58C93.4657 150.15 93.702 149.638 93.8238 149.044H96.6382C96.495 150.046 96.1333 150.956 95.5533 151.772C94.9804 152.589 94.2212 153.233 93.2759 153.706C92.3306 154.178 91.26 154.415 90.064 154.415C88.6962 154.415 87.4716 154.096 86.3902 153.459C85.316 152.814 84.4745 151.89 83.8658 150.687C83.257 149.477 82.9527 148.055 82.9527 146.423C82.9527 144.783 83.257 143.361 83.8658 142.158C84.4817 140.955 85.3267 140.035 86.4009 139.397C87.4823 138.753 88.7033 138.43 90.064 138.43C91.2098 138.43 92.2518 138.649 93.19 139.086C94.1281 139.515 94.898 140.142 95.4996 140.966C96.1011 141.782 96.4807 142.756 96.6382 143.887H93.8238ZM111.828 154.2H109.335L101.966 143.565H101.837V154.2H99.0445V138.645H101.58L108.906 149.28H109.056V138.645H111.828V154.2ZM116.791 138.645L120.615 145.52H120.765L124.589 138.645H127.748L122.097 148.378V154.2H119.304V148.378L113.632 138.645H116.791Z" fill="#222222"/>
</svg>
