<svg width="201" height="127" viewBox="0 0 201 127" fill="none" xmlns="http://www.w3.org/2000/svg">
<path d="M15.8374 7.47069H185.956C190.91 7.47069 194.906 11.4445 194.906 16.372V116.099C194.906 121.026 190.91 125 185.956 125H15.8374C10.8828 125 6.88721 121.026 6.88721 116.099V16.372C6.88721 11.4445 10.8828 7.47069 15.8374 7.47069Z" fill="white" stroke="#E1E4E5" stroke-width="4"/>
<path d="M155.014 16.086H168.055C170.101 16.086 171.763 17.7392 171.763 19.774C171.763 21.8088 170.101 23.462 168.055 23.462H155.014C152.968 23.462 151.306 21.8088 151.306 19.774C151.306 17.7392 152.968 16.086 155.014 16.086Z" fill="white" stroke="#E1E4E5" stroke-width="4"/>
<path d="M127.523 16.086H140.565C142.611 16.086 144.273 17.7392 144.273 19.774C144.273 21.8088 142.611 23.462 140.565 23.462H127.523C125.478 23.462 123.815 21.8088 123.815 19.774C123.815 17.7392 125.478 16.086 127.523 16.086Z" fill="white" stroke="#E1E4E5" stroke-width="4"/>
<path d="M113.043 16.086C115.089 16.086 116.751 17.7392 116.751 19.774C116.751 21.8088 115.089 23.462 113.043 23.462C110.998 23.462 109.335 21.8088 109.335 19.774C109.335 17.7392 110.998 16.086 113.043 16.086Z" fill="white" stroke="#E1E4E5" stroke-width="4"/>
<path d="M30.3818 84.5308H55.6662V93.75H66.3106V84.5308H72.8315V75.6613H66.3106V41.3594H52.3738L30.3818 75.7884V84.5308V84.5308ZM55.858 75.6613H41.6016V75.248L55.4425 53.4397H55.858V75.6613ZM100.897 94.8627C114.13 94.8627 122.122 84.8487 122.154 67.5865C122.186 50.4514 114.066 40.6282 100.897 40.6282C87.6952 40.6282 79.672 50.4196 79.64 67.5865C79.5761 84.7851 87.6313 94.8627 100.897 94.8627ZM100.897 85.707C94.8554 85.707 90.9557 79.6668 90.9877 67.6183C91.0196 55.7286 94.8874 49.752 100.897 49.752C106.874 49.752 110.806 55.7286 110.806 67.6183C110.806 79.6668 106.906 85.707 100.897 85.707ZM129.282 84.5308H154.566V93.75H165.211V84.5308H171.731V75.6613H165.211V41.3594H151.274L129.282 75.7884V84.5308ZM154.758 75.6613H140.502V75.248L154.342 53.4397H154.758V75.6613V75.6613Z" fill="#E1E4E5"/>
<path d="M21.815 16.086C23.4453 16.086 24.7878 17.4213 24.7878 19.0427C24.7878 20.6642 23.4453 21.9995 21.815 21.9995C20.1848 21.9995 18.8423 20.6642 18.8423 19.0427C18.8423 17.4213 20.1848 16.086 21.815 16.086Z" fill="white" stroke="#E1E4E5" stroke-width="4"/>
<path d="M9.34854 94.0686C11.4317 94.0686 13.1204 92.3889 13.1204 90.317C13.1204 88.245 11.4317 86.5654 9.34854 86.5654C7.26539 86.5654 5.57666 88.245 5.57666 90.317C5.57666 92.3889 7.26539 94.0686 9.34854 94.0686Z" fill="#BA143B"/>
<path d="M195.194 46.6693C198.124 46.6693 200.5 44.3064 200.5 41.3916C200.5 38.4768 198.124 36.1139 195.194 36.1139C192.263 36.1139 189.888 38.4768 189.888 41.3916C189.888 44.3064 192.263 46.6693 195.194 46.6693Z" fill="#BA143B"/>
<path d="M98.8829 23.6527C101.054 23.6527 102.815 21.9019 102.815 19.7421C102.815 17.5824 101.054 15.8316 98.8829 15.8316C96.7115 15.8316 94.9512 17.5824 94.9512 19.7421C94.9512 21.9019 96.7115 23.6527 98.8829 23.6527Z" fill="#E1E4E5"/>
<path d="M51.6705 10.4282C54.5657 10.4282 56.9128 8.09377 56.9128 5.2141C56.9128 2.33443 54.5657 0 51.6705 0C48.7753 0 46.4282 2.33443 46.4282 5.2141C46.4282 8.09377 48.7753 10.4282 51.6705 10.4282Z" fill="#BA143B"/>
<path d="M126.789 108.692C129.19 108.692 131.136 106.756 131.136 104.368C131.136 101.98 129.19 100.044 126.789 100.044C124.388 100.044 122.441 101.98 122.441 104.368C122.441 106.756 124.388 108.692 126.789 108.692Z" fill="#BA143B"/>
<path d="M46.4283 116.64C48.635 116.64 50.4239 114.861 50.4239 112.666C50.4239 110.471 48.635 108.692 46.4283 108.692C44.2215 108.692 42.4326 110.471 42.4326 112.666C42.4326 114.861 44.2215 116.64 46.4283 116.64Z" fill="#E1E4E5"/>
<path d="M84.9139 103.51C86.5734 103.51 87.9186 102.172 87.9186 100.522C87.9186 98.8711 86.5734 97.5331 84.9139 97.5331C83.2544 97.5331 81.9092 98.8711 81.9092 100.522C81.9092 102.172 83.2544 103.51 84.9139 103.51Z" fill="#E1E4E5"/>
<path d="M179.627 20.6642L185.061 15.2594C185.253 15.0686 185.572 15.0686 185.764 15.2594C185.956 15.4501 185.956 15.7681 185.764 15.9588L180.33 21.3637C180.138 21.5544 179.819 21.5544 179.627 21.3637C179.435 21.2047 179.435 20.8868 179.627 20.6642Z" fill="#E1E4E5"/>
<path d="M182.983 20.6962L184.55 19.1379C184.741 18.9471 185.061 18.9471 185.253 19.1379C185.445 19.3287 185.445 19.6467 185.253 19.8375L183.686 21.3958C183.495 21.5866 183.175 21.5866 182.983 21.3958C182.759 21.205 182.759 20.887 182.983 20.6962Z" fill="#E1E4E5"/>
<path d="M12.3533 115.654L17.212 110.821C17.4038 110.631 17.6914 110.631 17.8513 110.821C18.0431 111.012 18.0431 111.298 17.8513 111.457L12.9926 116.29C12.8008 116.481 12.5131 116.481 12.3533 116.29C12.1934 116.131 12.1934 115.845 12.3533 115.654Z" fill="#E1E4E5"/>
<path d="M15.3582 115.686L16.7647 114.287C16.9565 114.096 17.2441 114.096 17.404 114.287C17.5958 114.478 17.5958 114.764 17.404 114.923L15.9975 116.322C15.8057 116.513 15.518 116.513 15.3582 116.322C15.1664 116.131 15.1664 115.845 15.3582 115.686Z" fill="#E1E4E5"/>
<path d="M187.202 110.758L180.586 117.339C180.33 117.593 179.946 117.593 179.723 117.339C179.467 117.085 179.467 116.703 179.723 116.481L186.339 109.899C186.595 109.645 186.979 109.645 187.202 109.899C187.458 110.122 187.458 110.504 187.202 110.758Z" fill="#E1E4E5"/>
<path d="M183.143 110.726L181.225 112.635C180.97 112.889 180.586 112.889 180.362 112.635C180.106 112.38 180.106 111.999 180.362 111.776L182.28 109.868C182.536 109.613 182.919 109.613 183.143 109.868C183.399 110.09 183.399 110.472 183.143 110.726Z" fill="#E1E4E5"/>
<path fill-rule="evenodd" clip-rule="evenodd" d="M14.7884 66.9189C6.89302 66.9189 0.5 60.4655 0.5 52.5178C0.5 44.5702 6.89302 38.1486 14.7564 38.1486C22.6198 38.1486 29.0129 44.602 29.0129 52.5178C29.0129 60.4337 22.6518 66.9189 14.7884 66.9189Z" fill="#BA143B"/>
<path d="M20.5102 46.4141L14.5007 52.8045L10.8887 48.9575" stroke="white" stroke-width="2" stroke-linecap="round" stroke-linejoin="round"/>
<path d="M8.49121 58.9401L14.5006 52.5497L18.1127 56.3966" stroke="white" stroke-width="2" stroke-linecap="round" stroke-linejoin="round"/>
</svg>
