<svg width="211" height="211" viewBox="0 0 211 211" fill="none" xmlns="http://www.w3.org/2000/svg">
<rect width="210.4" height="210.4" rx="105.2" fill="white"/>
<path d="M85.3172 89.9773H78.7547V84.0007H83.9695L79.868 65.7781H88.8914L92.3192 84.0007H97.1824L101.138 65.7781H109.282L113.237 84.0007H118.13L121.528 65.7781H130.552L126.421 84.0007H131.665V89.9773H125.073L120.942 108.2H111.391L107.583 89.9773H102.778L98.9695 108.2H89.4188L85.3172 89.9773ZM94.3992 95.1335H94.7508L95.8641 89.9773H93.4324L94.3992 95.1335ZM106.352 84.0007L105.356 79.2546H105.005L104.009 84.0007H106.352ZM115.669 95.1921H116.02L116.987 89.9773H114.526L115.669 95.1921Z" fill="#1A1F71"/>
<path d="M81.6395 138.645H84.4324V145.8H84.6473L90.7274 138.645H94.1434L88.1277 145.628L94.2078 154.2H90.8348L86.1727 147.518L84.4324 149.559V154.2H81.6395V138.645ZM95.9266 138.645H101.77C102.938 138.645 103.93 138.853 104.746 139.268C105.569 139.677 106.193 140.253 106.615 140.998C107.038 141.743 107.249 142.613 107.249 143.608C107.249 144.668 107.009 145.578 106.529 146.337C106.056 147.096 105.362 147.662 104.445 148.034L107.807 154.2H104.692L101.641 148.507H98.7195V154.2H95.9266V138.645ZM101.341 146.165C103.374 146.165 104.391 145.313 104.391 143.608C104.391 142.763 104.141 142.115 103.639 141.664C103.138 141.213 102.372 140.987 101.341 140.987H98.7195V146.165H101.341ZM108.559 138.645H111.567L114.382 150.096H114.532L117.518 138.645H120.268L123.276 150.118H123.405L126.22 138.645H129.227L124.845 154.2H122.073L118.958 143.264H118.85L115.714 154.2H112.942L108.559 138.645Z" fill="#222222"/>
</svg>
