<svg width="211" height="211" viewBox="0 0 211 211" fill="none" xmlns="http://www.w3.org/2000/svg">
<rect x="0.399994" width="210.4" height="210.4" rx="105.2" fill="white"/>
<path d="M103.912 108.757C99.0101 108.503 95.1527 107.155 92.3402 104.714C89.5472 102.253 88.1117 98.7664 88.0336 94.2546H97.6429C97.7406 96.032 98.3363 97.448 99.4301 98.5027C100.543 99.5378 102.037 100.163 103.912 100.378V90.739L100.924 90.0359C93.0726 88.2195 89.1469 84.3132 89.1469 78.3171C89.1273 75.9148 89.7426 73.7664 90.9926 71.8718C92.2426 69.9578 93.9808 68.4246 96.2074 67.2722C98.4535 66.1199 101.022 65.446 103.912 65.2507V60.446H107.311V65.2507C110.221 65.4265 112.76 66.0906 114.928 67.2429C117.116 68.3757 118.805 69.8992 119.996 71.8132C121.188 73.7273 121.803 75.9148 121.842 78.3757H112.233C112.135 77.0476 111.666 75.9734 110.827 75.1531C109.987 74.3132 108.815 73.7859 107.311 73.571V82.7117L109.479 83.239C113.659 84.1765 116.852 85.6902 119.059 87.78C121.286 89.8699 122.409 92.575 122.428 95.8953C122.409 98.4148 121.803 100.612 120.612 102.487C119.42 104.343 117.692 105.807 115.426 106.882C113.161 107.956 110.455 108.581 107.311 108.757V113.532H103.912V108.757ZM99.4594 77.7312C99.4594 78.7273 99.8402 79.5671 100.602 80.2507C101.383 80.9148 102.487 81.4617 103.912 81.8914V73.571C102.448 73.8054 101.334 74.2937 100.573 75.0359C99.8304 75.7585 99.4594 76.657 99.4594 77.7312ZM107.311 100.348C108.854 100.114 110.055 99.6062 110.914 98.825C111.793 98.0242 112.252 97.0476 112.291 95.8953C112.272 94.8601 111.862 94.0105 111.061 93.3464C110.26 92.6628 109.01 92.0769 107.311 91.5886V100.348Z" fill="#1A1F71"/>
<path d="M97.1722 138.645V148.807C97.1722 149.91 96.9073 150.888 96.3773 151.74C95.8545 152.592 95.1133 153.255 94.1537 153.727C93.2012 154.2 92.1019 154.436 90.8558 154.436C89.6026 154.436 88.4961 154.2 87.5365 153.727C86.584 153.255 85.8464 152.592 85.3236 151.74C84.8008 150.888 84.5394 149.91 84.5394 148.807V138.645H87.3324V148.571C87.3324 149.223 87.4756 149.803 87.7621 150.311C88.0557 150.82 88.4675 151.221 88.9974 151.514C89.5345 151.801 90.154 151.944 90.8558 151.944C91.5577 151.944 92.1735 151.801 92.7035 151.514C93.2334 151.228 93.6416 150.83 93.9281 150.322C94.2146 149.806 94.3578 149.223 94.3578 148.571V138.645H97.1722ZM108.516 142.921C108.452 142.262 108.154 141.746 107.624 141.374C107.102 141.001 106.418 140.815 105.573 140.815C105 140.815 104.498 140.901 104.069 141.073C103.639 141.245 103.31 141.485 103.08 141.793C102.851 142.101 102.737 142.448 102.737 142.835C102.737 143.429 102.984 143.891 103.478 144.22C103.972 144.543 104.613 144.797 105.401 144.983L106.862 145.37C108.201 145.678 109.293 146.19 110.138 146.906C110.99 147.615 111.416 148.593 111.416 149.839C111.416 150.748 111.184 151.55 110.718 152.245C110.253 152.94 109.576 153.48 108.688 153.867C107.807 154.247 106.754 154.436 105.53 154.436C104.319 154.436 103.27 154.25 102.382 153.878C101.494 153.498 100.8 152.95 100.298 152.234C99.8041 151.511 99.5355 150.641 99.4926 149.624H102.243C102.307 150.412 102.636 151.013 103.231 151.428C103.832 151.844 104.592 152.052 105.508 152.052C106.117 152.052 106.658 151.958 107.13 151.772C107.603 151.586 107.968 151.325 108.226 150.988C108.491 150.644 108.623 150.254 108.623 149.817C108.623 149.251 108.387 148.811 107.914 148.496C107.449 148.174 106.747 147.891 105.809 147.647L104.047 147.196C101.283 146.473 99.9008 145.076 99.9008 143.007C99.9008 142.104 100.148 141.309 100.642 140.622C101.136 139.927 101.816 139.39 102.683 139.01C103.557 138.624 104.534 138.43 105.616 138.43C106.704 138.43 107.667 138.624 108.505 139.01C109.35 139.39 110.006 139.92 110.471 140.6C110.944 141.281 111.187 142.054 111.202 142.921H108.516ZM113.737 154.2V138.645H119.108C120.648 138.645 121.976 138.957 123.093 139.58C124.21 140.196 125.066 141.087 125.661 142.255C126.262 143.422 126.563 144.804 126.563 146.401C126.563 148.012 126.262 149.405 125.661 150.58C125.059 151.747 124.192 152.642 123.061 153.265C121.929 153.888 120.583 154.2 119.022 154.2H113.737ZM118.871 151.772C120.497 151.772 121.718 151.325 122.535 150.429C123.358 149.534 123.77 148.191 123.77 146.401C123.77 144.625 123.365 143.293 122.556 142.405C121.747 141.517 120.547 141.073 118.957 141.073H116.53V151.772H118.871Z" fill="#222222"/>
</svg>
