<svg width="18" height="18" viewBox="0 0 18 18" fill="none" xmlns="http://www.w3.org/2000/svg">
<g clip-path="url(#clip0_539_6158)">
<path d="M9 13.5C9.46599 13.5 9.84375 13.1222 9.84375 12.6562C9.84375 12.1903 9.46599 11.8125 9 11.8125C8.53401 11.8125 8.15625 12.1903 8.15625 12.6562C8.15625 13.1222 8.53401 13.5 9 13.5Z" fill="#3D44EA"/>
<path d="M9 10.125V9.5625C10.2424 9.5625 11.25 8.68078 11.25 7.59375C11.25 6.50672 10.2424 5.625 9 5.625C7.75758 5.625 6.75 6.50672 6.75 7.59375V7.875" stroke="#3D44EA" stroke-width="1.5" stroke-linecap="round" stroke-linejoin="round"/>
<path d="M9 15.75C12.7279 15.75 15.75 12.7279 15.75 9C15.75 5.27208 12.7279 2.25 9 2.25C5.27208 2.25 2.25 5.27208 2.25 9C2.25 12.7279 5.27208 15.75 9 15.75Z" stroke="#3D44EA" stroke-width="1.5" stroke-linecap="round" stroke-linejoin="round"/>
</g>
<defs>
<clipPath id="clip0_539_6158">
<rect width="18" height="18" fill="white"/>
</clipPath>
</defs>
</svg>
